<svg xmlns="http://www.w3.org/2000/svg" width="1080" height="680" viewBox="0 0 1080 680">
<style>
text{font-family:Arial,'Microsoft YaHei',sans-serif;font-size:12px;fill:#222}
.title{font-size:18px;font-weight:700}
.note{fill:#666;font-size:11px}
.axis{stroke:#222;stroke-width:1}
.grid{stroke:#ddd;stroke-width:1}
.zero{stroke:#888;stroke-width:1.2;stroke-dasharray:4 4}
.fit{stroke:#c35a4a;stroke-width:2;fill:none}
.point{fill:#2f6fbb;opacity:.72}
</style>
<text class="title" x="92" y="30">布伦特:迪拜:米纳斯 = 4:3:3，n=132，R²=0.7967</text>
<text class="note" x="92" y="52">模型：Δp_i&apos; = a + bΔp_i + ε_i；单位均为 USD/bbl；样本筛选为当前和上一窗口433均价均在[40,80]。</text>
<line class="grid" x1="92" y1="588.0" x2="1032" y2="588.0"/>
<text x="84" y="592.0" text-anchor="end">-30</text>
<line class="grid" x1="92" y1="486.8" x2="1032" y2="486.8"/>
<text x="84" y="490.8" text-anchor="end">-20</text>
<line class="grid" x1="92" y1="385.6" x2="1032" y2="385.6"/>
<text x="84" y="389.6" text-anchor="end">-10</text>
<line class="grid" x1="92" y1="284.4" x2="1032" y2="284.4"/>
<text x="84" y="288.4" text-anchor="end">0</text>
<line class="grid" x1="92" y1="183.2" x2="1032" y2="183.2"/>
<text x="84" y="187.2" text-anchor="end">10</text>
<line class="grid" x1="92" y1="82.0" x2="1032" y2="82.0"/>
<text x="84" y="86.0" text-anchor="end">20</text>
<line class="grid" x1="92.0" y1="82" x2="92.0" y2="588"/>
<text x="92.0" y="622" text-anchor="middle">-20</text>
<line class="grid" x1="327.0" y1="82" x2="327.0" y2="588"/>
<text x="327.0" y="622" text-anchor="middle">-10</text>
<line class="grid" x1="562.0" y1="82" x2="562.0" y2="588"/>
<text x="562.0" y="622" text-anchor="middle">0</text>
<line class="grid" x1="797.0" y1="82" x2="797.0" y2="588"/>
<text x="797.0" y="622" text-anchor="middle">10</text>
<line class="grid" x1="1032.0" y1="82" x2="1032.0" y2="588"/>
<text x="1032.0" y="622" text-anchor="middle">20</text>
<line class="zero" x1="562.0" y1="82" x2="562.0" y2="588"/>
<line class="zero" x1="92" y1="284.4" x2="1032" y2="284.4"/>
<line class="axis" x1="92" y1="82" x2="92" y2="588"/>
<line class="axis" x1="92" y1="588" x2="1032" y2="588"/>
<line class="fit" x1="92.0" y1="557.3" x2="1032.0" y2="9.3"/>
<circle class="point" cx="659.1" cy="240.2" r="3"/>
<circle class="point" cx="580.7" cy="261.3" r="3"/>
<circle class="point" cx="465.6" cy="316.4" r="3"/>
<circle class="point" cx="456.5" cy="330.0" r="3"/>
<circle class="point" cx="648.4" cy="248.1" r="3"/>
<circle class="point" cx="589.6" cy="242.0" r="3"/>
<circle class="point" cx="544.2" cy="316.5" r="3"/>
<circle class="point" cx="621.9" cy="211.7" r="3"/>
<circle class="point" cx="508.8" cy="357.7" r="3"/>
<circle class="point" cx="585.0" cy="249.3" r="3"/>
<circle class="point" cx="709.4" cy="197.9" r="3"/>
<circle class="point" cx="585.2" cy="264.5" r="3"/>
<circle class="point" cx="581.1" cy="236.4" r="3"/>
<circle class="point" cx="555.5" cy="298.4" r="3"/>
<circle class="point" cx="570.0" cy="274.4" r="3"/>
<circle class="point" cx="535.5" cy="301.4" r="3"/>
<circle class="point" cx="488.0" cy="330.5" r="3"/>
<circle class="point" cx="624.3" cy="244.3" r="3"/>
<circle class="point" cx="491.5" cy="334.4" r="3"/>
<circle class="point" cx="594.5" cy="256.2" r="3"/>
<circle class="point" cx="493.6" cy="321.0" r="3"/>
<circle class="point" cx="501.7" cy="334.9" r="3"/>
<circle class="point" cx="591.0" cy="269.1" r="3"/>
<circle class="point" cx="629.6" cy="248.5" r="3"/>
<circle class="point" cx="606.2" cy="264.4" r="3"/>
<circle class="point" cx="658.7" cy="240.8" r="3"/>
<circle class="point" cx="581.9" cy="253.2" r="3"/>
<circle class="point" cx="680.4" cy="229.2" r="3"/>
<circle class="point" cx="574.6" cy="269.5" r="3"/>
<circle class="point" cx="666.7" cy="245.9" r="3"/>
<circle class="point" cx="585.0" cy="270.2" r="3"/>
<circle class="point" cx="512.9" cy="321.7" r="3"/>
<circle class="point" cx="509.0" cy="325.7" r="3"/>
<circle class="point" cx="581.7" cy="247.1" r="3"/>
<circle class="point" cx="640.2" cy="272.3" r="3"/>
<circle class="point" cx="646.0" cy="228.8" r="3"/>
<circle class="point" cx="608.8" cy="262.6" r="3"/>
<circle class="point" cx="638.5" cy="228.2" r="3"/>
<circle class="point" cx="540.2" cy="312.4" r="3"/>
<circle class="point" cx="561.6" cy="295.9" r="3"/>
<circle class="point" cx="583.5" cy="228.2" r="3"/>
<circle class="point" cx="458.1" cy="309.8" r="3"/>
<circle class="point" cx="573.7" cy="270.3" r="3"/>
<circle class="point" cx="512.0" cy="294.5" r="3"/>
<circle class="point" cx="649.9" cy="248.1" r="3"/>
<circle class="point" cx="610.5" cy="255.2" r="3"/>
<circle class="point" cx="628.6" cy="236.2" r="3"/>
<circle class="point" cx="373.0" cy="385.9" r="3"/>
<circle class="point" cx="405.4" cy="391.5" r="3"/>
<circle class="point" cx="514.5" cy="309.4" r="3"/>
<circle class="point" cx="452.1" cy="358.7" r="3"/>
<circle class="point" cx="603.6" cy="263.0" r="3"/>
<circle class="point" cx="632.6" cy="234.2" r="3"/>
<circle class="point" cx="614.3" cy="274.2" r="3"/>
<circle class="point" cx="637.9" cy="228.8" r="3"/>
<circle class="point" cx="584.2" cy="267.9" r="3"/>
<circle class="point" cx="643.0" cy="294.7" r="3"/>
<circle class="point" cx="602.7" cy="244.4" r="3"/>
<circle class="point" cx="539.6" cy="299.5" r="3"/>
<circle class="point" cx="564.2" cy="274.4" r="3"/>
<circle class="point" cx="411.8" cy="377.2" r="3"/>
<circle class="point" cx="523.4" cy="308.5" r="3"/>
<circle class="point" cx="589.0" cy="254.3" r="3"/>
<circle class="point" cx="533.1" cy="300.0" r="3"/>
<circle class="point" cx="467.9" cy="325.4" r="3"/>
<circle class="point" cx="572.8" cy="262.2" r="3"/>
<circle class="point" cx="633.0" cy="260.1" r="3"/>
<circle class="point" cx="516.4" cy="313.7" r="3"/>
<circle class="point" cx="594.6" cy="263.7" r="3"/>
<circle class="point" cx="594.4" cy="270.6" r="3"/>
<circle class="point" cx="587.7" cy="273.6" r="3"/>
<circle class="point" cx="636.4" cy="237.8" r="3"/>
<circle class="point" cx="486.5" cy="367.5" r="3"/>
<circle class="point" cx="380.6" cy="366.3" r="3"/>
<circle class="point" cx="324.4" cy="483.2" r="3"/>
<circle class="point" cx="591.5" cy="267.4" r="3"/>
<circle class="point" cx="527.8" cy="348.6" r="3"/>
<circle class="point" cx="535.3" cy="267.9" r="3"/>
<circle class="point" cx="656.3" cy="231.6" r="3"/>
<circle class="point" cx="636.2" cy="251.7" r="3"/>
<circle class="point" cx="576.3" cy="265.4" r="3"/>
<circle class="point" cx="652.7" cy="245.0" r="3"/>
<circle class="point" cx="584.1" cy="268.3" r="3"/>
<circle class="point" cx="678.2" cy="225.6" r="3"/>
<circle class="point" cx="652.6" cy="228.9" r="3"/>
<circle class="point" cx="638.8" cy="234.5" r="3"/>
<circle class="point" cx="472.4" cy="331.7" r="3"/>
<circle class="point" cx="576.0" cy="263.1" r="3"/>
<circle class="point" cx="644.0" cy="263.0" r="3"/>
<circle class="point" cx="572.4" cy="246.6" r="3"/>
<circle class="point" cx="578.2" cy="254.5" r="3"/>
<circle class="point" cx="556.0" cy="265.2" r="3"/>
<circle class="point" cx="637.7" cy="210.5" r="3"/>
<circle class="point" cx="688.4" cy="219.5" r="3"/>
<circle class="point" cx="568.3" cy="304.9" r="3"/>
<circle class="point" cx="501.8" cy="377.5" r="3"/>
<circle class="point" cx="520.7" cy="312.6" r="3"/>
<circle class="point" cx="573.0" cy="254.0" r="3"/>
<circle class="point" cx="571.7" cy="265.0" r="3"/>
<circle class="point" cx="523.8" cy="295.0" r="3"/>
<circle class="point" cx="534.0" cy="271.1" r="3"/>
<circle class="point" cx="608.8" cy="254.5" r="3"/>
<circle class="point" cx="609.2" cy="231.5" r="3"/>
<circle class="point" cx="585.0" cy="245.8" r="3"/>
<circle class="point" cx="554.3" cy="294.0" r="3"/>
<circle class="point" cx="576.0" cy="245.9" r="3"/>
<circle class="point" cx="583.6" cy="257.0" r="3"/>
<circle class="point" cx="520.0" cy="266.9" r="3"/>
<circle class="point" cx="555.3" cy="312.4" r="3"/>
<circle class="point" cx="549.5" cy="271.2" r="3"/>
<circle class="point" cx="657.3" cy="220.3" r="3"/>
<circle class="point" cx="534.0" cy="316.7" r="3"/>
<circle class="point" cx="533.4" cy="310.1" r="3"/>
<circle class="point" cx="512.4" cy="337.7" r="3"/>
<circle class="point" cx="600.0" cy="240.8" r="3"/>
<circle class="point" cx="446.0" cy="375.2" r="3"/>
<circle class="point" cx="522.7" cy="328.4" r="3"/>
<circle class="point" cx="496.0" cy="271.9" r="3"/>
<circle class="point" cx="645.1" cy="234.5" r="3"/>
<circle class="point" cx="546.6" cy="239.1" r="3"/>
<circle class="point" cx="610.3" cy="309.4" r="3"/>
<circle class="point" cx="551.8" cy="319.1" r="3"/>
<circle class="point" cx="522.8" cy="298.9" r="3"/>
<circle class="point" cx="471.0" cy="335.9" r="3"/>
<circle class="point" cx="592.4" cy="260.2" r="3"/>
<circle class="point" cx="539.9" cy="298.0" r="3"/>
<circle class="point" cx="545.6" cy="295.2" r="3"/>
<circle class="point" cx="528.4" cy="317.8" r="3"/>
<circle class="point" cx="575.3" cy="267.5" r="3"/>
<circle class="point" cx="622.4" cy="243.6" r="3"/>
<circle class="point" cx="595.2" cy="249.2" r="3"/>
<circle class="point" cx="839.2" cy="144.9" r="3"/>
<text x="92" y="656">横轴：Δp_i，国际433价格变动（USD/bbl）；纵轴：Δp_i&apos;，国内调价幅度（USD/bbl）。</text>
</svg>