<svg xmlns="http://www.w3.org/2000/svg" width="1180" height="560" viewBox="0 0 1180 560">
<style>
text{font-family:Arial,'Microsoft YaHei',sans-serif;font-size:12px;fill:#222}
.title{font-size:18px;font-weight:700}
.axis{stroke:#222;stroke-width:1}
.grid{stroke:#ddd;stroke-width:1}
.cost{fill:none;stroke:#2f6fbb;stroke-width:2}
.gas{fill:none;stroke:#c35a4a;stroke-width:2}
.note{fill:#666;font-size:11px}
</style>
<text class="title" x="96" y="26">40-80美元/桶区间：理论成本CNY口径与汽油价格</text>
<text class="note" x="96" y="45">左轴：理论国内成本10工作日均值（CNY/ton）；右轴：汽油价格真实值（CNY/ton）。</text>
<line class="grid" x1="96" y1="488.0" x2="1084" y2="488.0"/>
<text x="88" y="492.0" text-anchor="end">1500</text>
<line class="grid" x1="96" y1="416.3" x2="1084" y2="416.3"/>
<text x="88" y="420.3" text-anchor="end">2000</text>
<line class="grid" x1="96" y1="344.7" x2="1084" y2="344.7"/>
<text x="88" y="348.7" text-anchor="end">2500</text>
<line class="grid" x1="96" y1="273.0" x2="1084" y2="273.0"/>
<text x="88" y="277.0" text-anchor="end">3000</text>
<line class="grid" x1="96" y1="201.3" x2="1084" y2="201.3"/>
<text x="88" y="205.3" text-anchor="end">3500</text>
<line class="grid" x1="96" y1="129.7" x2="1084" y2="129.7"/>
<text x="88" y="133.7" text-anchor="end">4000</text>
<line class="grid" x1="96" y1="58.0" x2="1084" y2="58.0"/>
<text x="88" y="62.0" text-anchor="end">4500</text>
<text x="1092" y="492.0">6000</text>
<text x="1092" y="384.5">7000</text>
<text x="1092" y="277.0">8000</text>
<text x="1092" y="169.5">9000</text>
<text x="1092" y="62.0">10000</text>
<line class="grid" x1="96.0" y1="58" x2="96.0" y2="488"/>
<text x="96.0" y="512" text-anchor="middle">2016-05</text>
<line class="grid" x1="237.1" y1="58" x2="237.1" y2="488"/>
<text x="237.1" y="512" text-anchor="middle">2017-08</text>
<line class="grid" x1="378.3" y1="58" x2="378.3" y2="488"/>
<text x="378.3" y="512" text-anchor="middle">2018-11</text>
<line class="grid" x1="519.4" y1="58" x2="519.4" y2="488"/>
<text x="519.4" y="512" text-anchor="middle">2020-02</text>
<line class="grid" x1="660.6" y1="58" x2="660.6" y2="488"/>
<text x="660.6" y="512" text-anchor="middle">2021-05</text>
<line class="grid" x1="801.7" y1="58" x2="801.7" y2="488"/>
<text x="801.7" y="512" text-anchor="middle">2022-08</text>
<line class="grid" x1="942.9" y1="58" x2="942.9" y2="488"/>
<text x="942.9" y="512" text-anchor="middle">2023-11</text>
<line class="grid" x1="1084.0" y1="58" x2="1084.0" y2="488"/>
<text x="1084.0" y="512" text-anchor="middle">2025-02</text>
<line class="axis" x1="96" y1="58" x2="96" y2="488"/>
<line class="axis" x1="1084" y1="58" x2="1084" y2="488"/>
<line class="axis" x1="96" y1="488" x2="1084" y2="488"/>
<path class="cost" d="M96.0,399.7 L100.3,368.7 L104.6,365.1 L117.9,400.9 L122.2,423.1 L126.5,395.3 L130.8,382.2 L136.1,391.2 L145.6,355.1 L154.2,394.0 L158.6,368.8 L162.9,322.1 L167.2,315.1 L171.8,312.6 L175.8,315.8 L182.0,313.7 L190.6,328.6 L194.9,347.5 L199.5,323.7 L208.5,354.8 L212.8,335.9 L217.4,356.8 L221.7,380.8 L230.4,372.1 L234.7,353.5 L247.6,339.6 L251.9,315.0 L262.4,300.1 L266.7,277.4 L279.7,274.9 L284.3,255.1 L288.6,256.1 L292.9,272.6 L298.8,280.5 L307.4,271.2 L312.0,263.2 L316.3,231.2 L321.0,221.7 L325.3,191.5 L329.6,197.3 L334.8,189.4 L339.1,174.5 L343.5,196.6 L347.8,187.3 L352.1,200.6 L356.4,175.0 L360.7,159.3 L364.7,137.0 L370.6,123.2 L374.9,162.4 L379.2,211.6 L383.5,268.7 L387.8,277.9 L392.2,308.4 L397.4,307.1 L401.7,283.5 L406.9,267.4 L411.3,247.2 L419.9,238.5 L424.5,220.0 L428.8,204.3 L434.1,201.8 L438.4,198.7 L443.0,241.5 L447.3,257.8 L451.6,250.4 L460.3,255.9 L464.6,279.1 L468.9,269.8 L473.5,245.6 L483.7,268.0 L488.0,259.2 L492.3,247.6 L496.6,236.0 L505.3,211.2 L516.3,273.2 L520.7,295.3 L564.7,391.1 L577.7,384.3 L609.7,379.9 L614.0,359.9 L618.4,355.1 L623.0,333.8 L627.3,332.0 L633.5,287.1 L637.5,270.9 L641.8,247.0 L646.1,276.0 L654.7,265.4 L659.6,251.7 L668.3,235.3 L673.5,206.0 L677.8,198.0 L682.1,207.2 L690.8,242.6 L695.1,225.4 L698.8,217.2 L705.3,171.8 L726.5,214.8 L730.8,209.7 L844.2,152.9 L848.6,158.6 L871.1,174.4 L889.5,153.9 L893.9,155.1 L898.5,143.5 L902.8,131.7 L907.1,100.2 L952.1,141.3 L956.7,123.7 L961.0,124.7 L965.4,99.8 L1043.3,138.4 L1047.3,147.7 L1051.6,154.3 L1069.2,138.2 L1073.5,92.2 L1084.0,122.1"/>
<path class="gas" d="M96.0,461.1 L100.3,438.6 L104.6,426.7 L117.9,443.4 L122.2,467.0 L126.5,448.2 L130.8,426.2 L136.1,442.9 L145.6,404.7 L154.2,443.9 L158.6,425.1 L162.9,378.4 L167.2,367.6 L171.8,341.8 L175.8,349.3 L182.0,343.9 L190.6,353.1 L194.9,377.8 L199.5,356.3 L208.5,383.2 L212.8,368.1 L217.4,387.5 L221.7,414.4 L230.4,406.3 L234.7,387.5 L247.6,377.3 L251.9,354.7 L262.4,338.6 L266.7,310.1 L279.7,302.6 L284.3,283.2 L288.6,276.2 L292.9,294.5 L298.8,314.9 L307.4,296.7 L312.0,290.7 L316.3,263.3 L321.0,252.6 L325.3,224.6 L329.6,238.6 L334.8,244.5 L339.1,215.5 L343.5,228.9 L347.8,221.4 L352.1,226.8 L356.4,207.4 L360.7,191.8 L364.7,166.0 L370.6,148.3 L374.9,188.6 L379.2,243.4 L383.5,301.5 L387.8,314.9 L392.2,354.7 L397.4,343.4 L401.7,317.1 L406.9,311.7 L411.3,282.7 L419.9,274.1 L424.5,279.5 L428.8,258.5 L434.1,266.5 L438.4,261.2 L443.0,311.2 L447.3,324.1 L451.6,307.9 L460.3,316.5 L464.6,339.1 L468.9,326.8 L473.5,313.3 L483.7,329.4 L488.0,318.1 L492.3,310.6 L496.6,304.7 L505.3,279.5 L516.3,324.6 L520.7,369.2 L564.7,454.7 L577.7,445.5 L609.7,445.0 L614.0,428.3 L618.4,418.7 L623.0,398.8 L627.3,390.7 L633.5,361.1 L637.5,333.2 L641.8,307.9 L646.1,332.1 L654.7,321.4 L659.6,310.6 L668.3,291.8 L673.5,267.6 L677.8,260.1 L682.1,270.9 L690.8,297.7 L695.1,282.7 L698.8,273.0 L705.3,235.9 L726.5,274.1 L730.8,259.0 L844.2,173.0 L848.6,195.1 L871.1,219.2 L889.5,207.4 L893.9,213.3 L898.5,205.8 L902.8,189.2 L907.1,159.6 L952.1,205.3 L956.7,183.8 L961.0,189.2 L965.4,167.7 L1043.3,213.3 L1047.3,203.7 L1051.6,219.2 L1069.2,211.7 L1073.5,175.2 L1084.0,193.4"/>
<rect x="96" y="528" width="18" height="4" fill="#2f6fbb"/>
<text x="122" y="534">理论国内成本10工作日均值（CNY/ton）</text>
<rect x="486" y="528" width="18" height="4" fill="#c35a4a"/>
<text x="512" y="534">汽油价格真实值（CNY/ton）</text>
</svg>