<svg xmlns="http://www.w3.org/2000/svg" width="940" height="692" viewBox="0 0 940 692">
<style>
text{font-family:Arial,'Microsoft YaHei',sans-serif;font-size:12px;fill:#222}
.title{font-size:18px;font-weight:700}
.axis{stroke:#222;stroke-width:1}
.grid{stroke:#ddd;stroke-width:1}
.bar{fill:#2f6fbb}
.bar.neg{fill:#c35a4a}
.note{fill:#666;font-size:11px}
</style>
<text class="title" x="110" y="26">40-80美元/桶区间：汽油变化率 / 理论成本CNY变化率</text>
<text class="note" x="110" y="45">0.1为分箱宽度，仅绘制数量大于0的区间。</text>
<line class="grid" x1="110.0" y1="50" x2="110.0" y2="654"/>
<text x="110.0" y="674" text-anchor="middle">0</text>
<line class="grid" x1="138.1" y1="50" x2="138.1" y2="654"/>
<text x="138.1" y="674" text-anchor="middle">1</text>
<line class="grid" x1="166.3" y1="50" x2="166.3" y2="654"/>
<text x="166.3" y="674" text-anchor="middle">2</text>
<line class="grid" x1="194.4" y1="50" x2="194.4" y2="654"/>
<text x="194.4" y="674" text-anchor="middle">3</text>
<line class="grid" x1="222.6" y1="50" x2="222.6" y2="654"/>
<text x="222.6" y="674" text-anchor="middle">4</text>
<line class="grid" x1="250.7" y1="50" x2="250.7" y2="654"/>
<text x="250.7" y="674" text-anchor="middle">5</text>
<line class="grid" x1="278.9" y1="50" x2="278.9" y2="654"/>
<text x="278.9" y="674" text-anchor="middle">6</text>
<line class="grid" x1="307.0" y1="50" x2="307.0" y2="654"/>
<text x="307.0" y="674" text-anchor="middle">7</text>
<line class="grid" x1="335.2" y1="50" x2="335.2" y2="654"/>
<text x="335.2" y="674" text-anchor="middle">8</text>
<line class="grid" x1="363.3" y1="50" x2="363.3" y2="654"/>
<text x="363.3" y="674" text-anchor="middle">9</text>
<line class="grid" x1="391.5" y1="50" x2="391.5" y2="654"/>
<text x="391.5" y="674" text-anchor="middle">10</text>
<line class="grid" x1="419.6" y1="50" x2="419.6" y2="654"/>
<text x="419.6" y="674" text-anchor="middle">11</text>
<line class="grid" x1="447.8" y1="50" x2="447.8" y2="654"/>
<text x="447.8" y="674" text-anchor="middle">12</text>
<line class="grid" x1="475.9" y1="50" x2="475.9" y2="654"/>
<text x="475.9" y="674" text-anchor="middle">13</text>
<line class="grid" x1="504.1" y1="50" x2="504.1" y2="654"/>
<text x="504.1" y="674" text-anchor="middle">14</text>
<line class="grid" x1="532.2" y1="50" x2="532.2" y2="654"/>
<text x="532.2" y="674" text-anchor="middle">15</text>
<line class="grid" x1="560.4" y1="50" x2="560.4" y2="654"/>
<text x="560.4" y="674" text-anchor="middle">16</text>
<line class="grid" x1="588.5" y1="50" x2="588.5" y2="654"/>
<text x="588.5" y="674" text-anchor="middle">17</text>
<line class="grid" x1="616.7" y1="50" x2="616.7" y2="654"/>
<text x="616.7" y="674" text-anchor="middle">18</text>
<line class="grid" x1="644.8" y1="50" x2="644.8" y2="654"/>
<text x="644.8" y="674" text-anchor="middle">19</text>
<line class="grid" x1="673.0" y1="50" x2="673.0" y2="654"/>
<text x="673.0" y="674" text-anchor="middle">20</text>
<line class="grid" x1="701.1" y1="50" x2="701.1" y2="654"/>
<text x="701.1" y="674" text-anchor="middle">21</text>
<line class="grid" x1="729.3" y1="50" x2="729.3" y2="654"/>
<text x="729.3" y="674" text-anchor="middle">22</text>
<line class="grid" x1="757.4" y1="50" x2="757.4" y2="654"/>
<text x="757.4" y="674" text-anchor="middle">23</text>
<line class="grid" x1="785.6" y1="50" x2="785.6" y2="654"/>
<text x="785.6" y="674" text-anchor="middle">24</text>
<line class="grid" x1="813.7" y1="50" x2="813.7" y2="654"/>
<text x="813.7" y="674" text-anchor="middle">25</text>
<line class="grid" x1="841.9" y1="50" x2="841.9" y2="654"/>
<text x="841.9" y="674" text-anchor="middle">26</text>
<line class="grid" x1="870.0" y1="50" x2="870.0" y2="654"/>
<text x="870.0" y="674" text-anchor="middle">27</text>
<line class="axis" x1="110" y1="654" x2="870" y2="654"/>
<text x="102" y="68" text-anchor="end">[-3.8, -3.7)</text>
<rect class="bar neg" x="110" y="56" width="28.1" height="14" rx="2"/>
<text x="144.1" y="68">1</text>
<text x="102" y="90" text-anchor="end">[-1.8, -1.7)</text>
<rect class="bar neg" x="110" y="78" width="28.1" height="14" rx="2"/>
<text x="144.1" y="90">1</text>
<text x="102" y="112" text-anchor="end">[-0.7, -0.6)</text>
<rect class="bar neg" x="110" y="100" width="28.1" height="14" rx="2"/>
<text x="144.1" y="112">1</text>
<text x="102" y="134" text-anchor="end">[-0.5, -0.4)</text>
<rect class="bar neg" x="110" y="122" width="28.1" height="14" rx="2"/>
<text x="144.1" y="134">1</text>
<text x="102" y="156" text-anchor="end">[-0.2, -0.1)</text>
<rect class="bar neg" x="110" y="144" width="28.1" height="14" rx="2"/>
<text x="144.1" y="156">1</text>
<text x="102" y="178" text-anchor="end">[0.1, 0.2)</text>
<rect class="bar" x="110" y="166" width="56.3" height="14" rx="2"/>
<text x="172.3" y="178">2</text>
<text x="102" y="200" text-anchor="end">[0.2, 0.3)</text>
<rect class="bar" x="110" y="188" width="168.9" height="14" rx="2"/>
<text x="284.9" y="200">6</text>
<text x="102" y="222" text-anchor="end">[0.3, 0.4)</text>
<rect class="bar" x="110" y="210" width="365.9" height="14" rx="2"/>
<text x="481.9" y="222">13</text>
<text x="102" y="244" text-anchor="end">[0.4, 0.5)</text>
<rect class="bar" x="110" y="232" width="760.0" height="14" rx="2"/>
<text x="876.0" y="244">27</text>
<text x="102" y="266" text-anchor="end">[0.5, 0.6)</text>
<rect class="bar" x="110" y="254" width="450.4" height="14" rx="2"/>
<text x="566.4" y="266">16</text>
<text x="102" y="288" text-anchor="end">[0.6, 0.7)</text>
<rect class="bar" x="110" y="276" width="394.1" height="14" rx="2"/>
<text x="510.1" y="288">14</text>
<text x="102" y="310" text-anchor="end">[0.7, 0.8)</text>
<rect class="bar" x="110" y="298" width="225.2" height="14" rx="2"/>
<text x="341.2" y="310">8</text>
<text x="102" y="332" text-anchor="end">[0.8, 0.9)</text>
<rect class="bar" x="110" y="320" width="112.6" height="14" rx="2"/>
<text x="228.6" y="332">4</text>
<text x="102" y="354" text-anchor="end">[0.9, 1.0)</text>
<rect class="bar" x="110" y="342" width="56.3" height="14" rx="2"/>
<text x="172.3" y="354">2</text>
<text x="102" y="376" text-anchor="end">[1.0, 1.1)</text>
<rect class="bar" x="110" y="364" width="84.4" height="14" rx="2"/>
<text x="200.4" y="376">3</text>
<text x="102" y="398" text-anchor="end">[1.1, 1.2)</text>
<rect class="bar" x="110" y="386" width="56.3" height="14" rx="2"/>
<text x="172.3" y="398">2</text>
<text x="102" y="420" text-anchor="end">[1.2, 1.3)</text>
<rect class="bar" x="110" y="408" width="56.3" height="14" rx="2"/>
<text x="172.3" y="420">2</text>
<text x="102" y="442" text-anchor="end">[1.3, 1.4)</text>
<rect class="bar" x="110" y="430" width="56.3" height="14" rx="2"/>
<text x="172.3" y="442">2</text>
<text x="102" y="464" text-anchor="end">[1.4, 1.5)</text>
<rect class="bar" x="110" y="452" width="56.3" height="14" rx="2"/>
<text x="172.3" y="464">2</text>
<text x="102" y="486" text-anchor="end">[1.5, 1.6)</text>
<rect class="bar" x="110" y="474" width="56.3" height="14" rx="2"/>
<text x="172.3" y="486">2</text>
<text x="102" y="508" text-anchor="end">[1.6, 1.7)</text>
<rect class="bar" x="110" y="496" width="28.1" height="14" rx="2"/>
<text x="144.1" y="508">1</text>
<text x="102" y="530" text-anchor="end">[2.1, 2.2)</text>
<rect class="bar" x="110" y="518" width="28.1" height="14" rx="2"/>
<text x="144.1" y="530">1</text>
<text x="102" y="552" text-anchor="end">[2.2, 2.3)</text>
<rect class="bar" x="110" y="540" width="28.1" height="14" rx="2"/>
<text x="144.1" y="552">1</text>
<text x="102" y="574" text-anchor="end">[2.9, 3.0)</text>
<rect class="bar" x="110" y="562" width="28.1" height="14" rx="2"/>
<text x="144.1" y="574">1</text>
<text x="102" y="596" text-anchor="end">[3.3, 3.4)</text>
<rect class="bar" x="110" y="584" width="28.1" height="14" rx="2"/>
<text x="144.1" y="596">1</text>
<text x="102" y="618" text-anchor="end">[4.5, 4.6)</text>
<rect class="bar" x="110" y="606" width="28.1" height="14" rx="2"/>
<text x="144.1" y="618">1</text>
<text x="102" y="640" text-anchor="end">[5.1, 5.2)</text>
<rect class="bar" x="110" y="628" width="56.3" height="14" rx="2"/>
<text x="172.3" y="640">2</text>
</svg>