<svg xmlns="http://www.w3.org/2000/svg" width="940" height="1044" viewBox="0 0 940 1044">
<style>
text{font-family:Arial,'Microsoft YaHei',sans-serif;font-size:12px;fill:#222}
.title{font-size:18px;font-weight:700}
.axis{stroke:#222;stroke-width:1}
.grid{stroke:#ddd;stroke-width:1}
.bar{fill:#2f6fbb}
.bar.neg{fill:#c35a4a}
.note{fill:#666;font-size:11px}
</style>
<text class="title" x="110" y="26">汽油变化率 / 理论国内成本变化率：0.1区间数量统计</text>
<text class="note" x="110" y="45">仅绘制数量大于0的区间；完整区间统计见 CSV。</text>
<line class="grid" x1="110.0" y1="50" x2="110.0" y2="1006"/>
<text x="110.0" y="1026" text-anchor="middle">0</text>
<line class="grid" x1="121.2" y1="50" x2="121.2" y2="1006"/>
<text x="121.2" y="1026" text-anchor="middle">1</text>
<line class="grid" x1="132.4" y1="50" x2="132.4" y2="1006"/>
<text x="132.4" y="1026" text-anchor="middle">2</text>
<line class="grid" x1="143.5" y1="50" x2="143.5" y2="1006"/>
<text x="143.5" y="1026" text-anchor="middle">3</text>
<line class="grid" x1="154.7" y1="50" x2="154.7" y2="1006"/>
<text x="154.7" y="1026" text-anchor="middle">4</text>
<line class="grid" x1="165.9" y1="50" x2="165.9" y2="1006"/>
<text x="165.9" y="1026" text-anchor="middle">5</text>
<line class="grid" x1="177.1" y1="50" x2="177.1" y2="1006"/>
<text x="177.1" y="1026" text-anchor="middle">6</text>
<line class="grid" x1="188.2" y1="50" x2="188.2" y2="1006"/>
<text x="188.2" y="1026" text-anchor="middle">7</text>
<line class="grid" x1="199.4" y1="50" x2="199.4" y2="1006"/>
<text x="199.4" y="1026" text-anchor="middle">8</text>
<line class="grid" x1="210.6" y1="50" x2="210.6" y2="1006"/>
<text x="210.6" y="1026" text-anchor="middle">9</text>
<line class="grid" x1="221.8" y1="50" x2="221.8" y2="1006"/>
<text x="221.8" y="1026" text-anchor="middle">10</text>
<line class="grid" x1="232.9" y1="50" x2="232.9" y2="1006"/>
<text x="232.9" y="1026" text-anchor="middle">11</text>
<line class="grid" x1="244.1" y1="50" x2="244.1" y2="1006"/>
<text x="244.1" y="1026" text-anchor="middle">12</text>
<line class="grid" x1="255.3" y1="50" x2="255.3" y2="1006"/>
<text x="255.3" y="1026" text-anchor="middle">13</text>
<line class="grid" x1="266.5" y1="50" x2="266.5" y2="1006"/>
<text x="266.5" y="1026" text-anchor="middle">14</text>
<line class="grid" x1="277.6" y1="50" x2="277.6" y2="1006"/>
<text x="277.6" y="1026" text-anchor="middle">15</text>
<line class="grid" x1="288.8" y1="50" x2="288.8" y2="1006"/>
<text x="288.8" y="1026" text-anchor="middle">16</text>
<line class="grid" x1="300.0" y1="50" x2="300.0" y2="1006"/>
<text x="300.0" y="1026" text-anchor="middle">17</text>
<line class="grid" x1="311.2" y1="50" x2="311.2" y2="1006"/>
<text x="311.2" y="1026" text-anchor="middle">18</text>
<line class="grid" x1="322.4" y1="50" x2="322.4" y2="1006"/>
<text x="322.4" y="1026" text-anchor="middle">19</text>
<line class="grid" x1="333.5" y1="50" x2="333.5" y2="1006"/>
<text x="333.5" y="1026" text-anchor="middle">20</text>
<line class="grid" x1="344.7" y1="50" x2="344.7" y2="1006"/>
<text x="344.7" y="1026" text-anchor="middle">21</text>
<line class="grid" x1="355.9" y1="50" x2="355.9" y2="1006"/>
<text x="355.9" y="1026" text-anchor="middle">22</text>
<line class="grid" x1="367.1" y1="50" x2="367.1" y2="1006"/>
<text x="367.1" y="1026" text-anchor="middle">23</text>
<line class="grid" x1="378.2" y1="50" x2="378.2" y2="1006"/>
<text x="378.2" y="1026" text-anchor="middle">24</text>
<line class="grid" x1="389.4" y1="50" x2="389.4" y2="1006"/>
<text x="389.4" y="1026" text-anchor="middle">25</text>
<line class="grid" x1="400.6" y1="50" x2="400.6" y2="1006"/>
<text x="400.6" y="1026" text-anchor="middle">26</text>
<line class="grid" x1="411.8" y1="50" x2="411.8" y2="1006"/>
<text x="411.8" y="1026" text-anchor="middle">27</text>
<line class="grid" x1="422.9" y1="50" x2="422.9" y2="1006"/>
<text x="422.9" y="1026" text-anchor="middle">28</text>
<line class="grid" x1="434.1" y1="50" x2="434.1" y2="1006"/>
<text x="434.1" y="1026" text-anchor="middle">29</text>
<line class="grid" x1="445.3" y1="50" x2="445.3" y2="1006"/>
<text x="445.3" y="1026" text-anchor="middle">30</text>
<line class="grid" x1="456.5" y1="50" x2="456.5" y2="1006"/>
<text x="456.5" y="1026" text-anchor="middle">31</text>
<line class="grid" x1="467.6" y1="50" x2="467.6" y2="1006"/>
<text x="467.6" y="1026" text-anchor="middle">32</text>
<line class="grid" x1="478.8" y1="50" x2="478.8" y2="1006"/>
<text x="478.8" y="1026" text-anchor="middle">33</text>
<line class="grid" x1="490.0" y1="50" x2="490.0" y2="1006"/>
<text x="490.0" y="1026" text-anchor="middle">34</text>
<line class="grid" x1="501.2" y1="50" x2="501.2" y2="1006"/>
<text x="501.2" y="1026" text-anchor="middle">35</text>
<line class="grid" x1="512.4" y1="50" x2="512.4" y2="1006"/>
<text x="512.4" y="1026" text-anchor="middle">36</text>
<line class="grid" x1="523.5" y1="50" x2="523.5" y2="1006"/>
<text x="523.5" y="1026" text-anchor="middle">37</text>
<line class="grid" x1="534.7" y1="50" x2="534.7" y2="1006"/>
<text x="534.7" y="1026" text-anchor="middle">38</text>
<line class="grid" x1="545.9" y1="50" x2="545.9" y2="1006"/>
<text x="545.9" y="1026" text-anchor="middle">39</text>
<line class="grid" x1="557.1" y1="50" x2="557.1" y2="1006"/>
<text x="557.1" y="1026" text-anchor="middle">40</text>
<line class="grid" x1="568.2" y1="50" x2="568.2" y2="1006"/>
<text x="568.2" y="1026" text-anchor="middle">41</text>
<line class="grid" x1="579.4" y1="50" x2="579.4" y2="1006"/>
<text x="579.4" y="1026" text-anchor="middle">42</text>
<line class="grid" x1="590.6" y1="50" x2="590.6" y2="1006"/>
<text x="590.6" y="1026" text-anchor="middle">43</text>
<line class="grid" x1="601.8" y1="50" x2="601.8" y2="1006"/>
<text x="601.8" y="1026" text-anchor="middle">44</text>
<line class="grid" x1="612.9" y1="50" x2="612.9" y2="1006"/>
<text x="612.9" y="1026" text-anchor="middle">45</text>
<line class="grid" x1="624.1" y1="50" x2="624.1" y2="1006"/>
<text x="624.1" y="1026" text-anchor="middle">46</text>
<line class="grid" x1="635.3" y1="50" x2="635.3" y2="1006"/>
<text x="635.3" y="1026" text-anchor="middle">47</text>
<line class="grid" x1="646.5" y1="50" x2="646.5" y2="1006"/>
<text x="646.5" y="1026" text-anchor="middle">48</text>
<line class="grid" x1="657.6" y1="50" x2="657.6" y2="1006"/>
<text x="657.6" y="1026" text-anchor="middle">49</text>
<line class="grid" x1="668.8" y1="50" x2="668.8" y2="1006"/>
<text x="668.8" y="1026" text-anchor="middle">50</text>
<line class="grid" x1="680.0" y1="50" x2="680.0" y2="1006"/>
<text x="680.0" y="1026" text-anchor="middle">51</text>
<line class="grid" x1="691.2" y1="50" x2="691.2" y2="1006"/>
<text x="691.2" y="1026" text-anchor="middle">52</text>
<line class="grid" x1="702.4" y1="50" x2="702.4" y2="1006"/>
<text x="702.4" y="1026" text-anchor="middle">53</text>
<line class="grid" x1="713.5" y1="50" x2="713.5" y2="1006"/>
<text x="713.5" y="1026" text-anchor="middle">54</text>
<line class="grid" x1="724.7" y1="50" x2="724.7" y2="1006"/>
<text x="724.7" y="1026" text-anchor="middle">55</text>
<line class="grid" x1="735.9" y1="50" x2="735.9" y2="1006"/>
<text x="735.9" y="1026" text-anchor="middle">56</text>
<line class="grid" x1="747.1" y1="50" x2="747.1" y2="1006"/>
<text x="747.1" y="1026" text-anchor="middle">57</text>
<line class="grid" x1="758.2" y1="50" x2="758.2" y2="1006"/>
<text x="758.2" y="1026" text-anchor="middle">58</text>
<line class="grid" x1="769.4" y1="50" x2="769.4" y2="1006"/>
<text x="769.4" y="1026" text-anchor="middle">59</text>
<line class="grid" x1="780.6" y1="50" x2="780.6" y2="1006"/>
<text x="780.6" y="1026" text-anchor="middle">60</text>
<line class="grid" x1="791.8" y1="50" x2="791.8" y2="1006"/>
<text x="791.8" y="1026" text-anchor="middle">61</text>
<line class="grid" x1="802.9" y1="50" x2="802.9" y2="1006"/>
<text x="802.9" y="1026" text-anchor="middle">62</text>
<line class="grid" x1="814.1" y1="50" x2="814.1" y2="1006"/>
<text x="814.1" y="1026" text-anchor="middle">63</text>
<line class="grid" x1="825.3" y1="50" x2="825.3" y2="1006"/>
<text x="825.3" y="1026" text-anchor="middle">64</text>
<line class="grid" x1="836.5" y1="50" x2="836.5" y2="1006"/>
<text x="836.5" y="1026" text-anchor="middle">65</text>
<line class="grid" x1="847.6" y1="50" x2="847.6" y2="1006"/>
<text x="847.6" y="1026" text-anchor="middle">66</text>
<line class="grid" x1="858.8" y1="50" x2="858.8" y2="1006"/>
<text x="858.8" y="1026" text-anchor="middle">67</text>
<line class="grid" x1="870.0" y1="50" x2="870.0" y2="1006"/>
<text x="870.0" y="1026" text-anchor="middle">68</text>
<line class="axis" x1="110" y1="1006" x2="870" y2="1006"/>
<text x="102" y="68" text-anchor="end">[-17.9, -17.8)</text>
<rect class="bar neg" x="110" y="56" width="11.2" height="14" rx="2"/>
<text x="127.2" y="68">1</text>
<text x="102" y="90" text-anchor="end">[-10.2, -10.1)</text>
<rect class="bar neg" x="110" y="78" width="11.2" height="14" rx="2"/>
<text x="127.2" y="90">1</text>
<text x="102" y="112" text-anchor="end">[-6.3, -6.2)</text>
<rect class="bar neg" x="110" y="100" width="11.2" height="14" rx="2"/>
<text x="127.2" y="112">1</text>
<text x="102" y="134" text-anchor="end">[-6.1, -6.0)</text>
<rect class="bar neg" x="110" y="122" width="11.2" height="14" rx="2"/>
<text x="127.2" y="134">1</text>
<text x="102" y="156" text-anchor="end">[-2.3, -2.2)</text>
<rect class="bar neg" x="110" y="144" width="11.2" height="14" rx="2"/>
<text x="127.2" y="156">1</text>
<text x="102" y="178" text-anchor="end">[-2.1, -2.0)</text>
<rect class="bar neg" x="110" y="166" width="11.2" height="14" rx="2"/>
<text x="127.2" y="178">1</text>
<text x="102" y="200" text-anchor="end">[-1.6, -1.5)</text>
<rect class="bar neg" x="110" y="188" width="11.2" height="14" rx="2"/>
<text x="127.2" y="200">1</text>
<text x="102" y="222" text-anchor="end">[-1.5, -1.4)</text>
<rect class="bar neg" x="110" y="210" width="11.2" height="14" rx="2"/>
<text x="127.2" y="222">1</text>
<text x="102" y="244" text-anchor="end">[-1.2, -1.1)</text>
<rect class="bar neg" x="110" y="232" width="11.2" height="14" rx="2"/>
<text x="127.2" y="244">1</text>
<text x="102" y="266" text-anchor="end">[-1.1, -1.0)</text>
<rect class="bar neg" x="110" y="254" width="11.2" height="14" rx="2"/>
<text x="127.2" y="266">1</text>
<text x="102" y="288" text-anchor="end">[-0.8, -0.7)</text>
<rect class="bar neg" x="110" y="276" width="11.2" height="14" rx="2"/>
<text x="127.2" y="288">1</text>
<text x="102" y="310" text-anchor="end">[-0.6, -0.5)</text>
<rect class="bar neg" x="110" y="298" width="11.2" height="14" rx="2"/>
<text x="127.2" y="310">1</text>
<text x="102" y="332" text-anchor="end">[-0.5, -0.4)</text>
<rect class="bar neg" x="110" y="320" width="22.4" height="14" rx="2"/>
<text x="138.4" y="332">2</text>
<text x="102" y="354" text-anchor="end">[-0.2, -0.1)</text>
<rect class="bar neg" x="110" y="342" width="11.2" height="14" rx="2"/>
<text x="127.2" y="354">1</text>
<text x="102" y="376" text-anchor="end">[0.0, 0.1)</text>
<rect class="bar" x="110" y="364" width="100.6" height="14" rx="2"/>
<text x="216.6" y="376">9</text>
<text x="102" y="398" text-anchor="end">[0.1, 0.2)</text>
<rect class="bar" x="110" y="386" width="55.9" height="14" rx="2"/>
<text x="171.9" y="398">5</text>
<text x="102" y="420" text-anchor="end">[0.2, 0.3)</text>
<rect class="bar" x="110" y="408" width="223.5" height="14" rx="2"/>
<text x="339.5" y="420">20</text>
<text x="102" y="442" text-anchor="end">[0.3, 0.4)</text>
<rect class="bar" x="110" y="430" width="424.7" height="14" rx="2"/>
<text x="540.7" y="442">38</text>
<text x="102" y="464" text-anchor="end">[0.4, 0.5)</text>
<rect class="bar" x="110" y="452" width="760.0" height="14" rx="2"/>
<text x="876.0" y="464">68</text>
<text x="102" y="486" text-anchor="end">[0.5, 0.6)</text>
<rect class="bar" x="110" y="474" width="435.9" height="14" rx="2"/>
<text x="551.9" y="486">39</text>
<text x="102" y="508" text-anchor="end">[0.6, 0.7)</text>
<rect class="bar" x="110" y="496" width="223.5" height="14" rx="2"/>
<text x="339.5" y="508">20</text>
<text x="102" y="530" text-anchor="end">[0.7, 0.8)</text>
<rect class="bar" x="110" y="518" width="257.1" height="14" rx="2"/>
<text x="373.1" y="530">23</text>
<text x="102" y="552" text-anchor="end">[0.8, 0.9)</text>
<rect class="bar" x="110" y="540" width="134.1" height="14" rx="2"/>
<text x="250.1" y="552">12</text>
<text x="102" y="574" text-anchor="end">[0.9, 1.0)</text>
<rect class="bar" x="110" y="562" width="100.6" height="14" rx="2"/>
<text x="216.6" y="574">9</text>
<text x="102" y="596" text-anchor="end">[1.0, 1.1)</text>
<rect class="bar" x="110" y="584" width="33.5" height="14" rx="2"/>
<text x="149.5" y="596">3</text>
<text x="102" y="618" text-anchor="end">[1.1, 1.2)</text>
<rect class="bar" x="110" y="606" width="33.5" height="14" rx="2"/>
<text x="149.5" y="618">3</text>
<text x="102" y="640" text-anchor="end">[1.2, 1.3)</text>
<rect class="bar" x="110" y="628" width="33.5" height="14" rx="2"/>
<text x="149.5" y="640">3</text>
<text x="102" y="662" text-anchor="end">[1.3, 1.4)</text>
<rect class="bar" x="110" y="650" width="44.7" height="14" rx="2"/>
<text x="160.7" y="662">4</text>
<text x="102" y="684" text-anchor="end">[1.4, 1.5)</text>
<rect class="bar" x="110" y="672" width="22.4" height="14" rx="2"/>
<text x="138.4" y="684">2</text>
<text x="102" y="706" text-anchor="end">[1.5, 1.6)</text>
<rect class="bar" x="110" y="694" width="33.5" height="14" rx="2"/>
<text x="149.5" y="706">3</text>
<text x="102" y="728" text-anchor="end">[1.6, 1.7)</text>
<rect class="bar" x="110" y="716" width="44.7" height="14" rx="2"/>
<text x="160.7" y="728">4</text>
<text x="102" y="750" text-anchor="end">[1.9, 2.0)</text>
<rect class="bar" x="110" y="738" width="11.2" height="14" rx="2"/>
<text x="127.2" y="750">1</text>
<text x="102" y="772" text-anchor="end">[2.0, 2.1)</text>
<rect class="bar" x="110" y="760" width="11.2" height="14" rx="2"/>
<text x="127.2" y="772">1</text>
<text x="102" y="794" text-anchor="end">[2.1, 2.2)</text>
<rect class="bar" x="110" y="782" width="11.2" height="14" rx="2"/>
<text x="127.2" y="794">1</text>
<text x="102" y="816" text-anchor="end">[2.3, 2.4)</text>
<rect class="bar" x="110" y="804" width="11.2" height="14" rx="2"/>
<text x="127.2" y="816">1</text>
<text x="102" y="838" text-anchor="end">[2.5, 2.6)</text>
<rect class="bar" x="110" y="826" width="22.4" height="14" rx="2"/>
<text x="138.4" y="838">2</text>
<text x="102" y="860" text-anchor="end">[2.7, 2.8)</text>
<rect class="bar" x="110" y="848" width="11.2" height="14" rx="2"/>
<text x="127.2" y="860">1</text>
<text x="102" y="882" text-anchor="end">[3.0, 3.1)</text>
<rect class="bar" x="110" y="870" width="11.2" height="14" rx="2"/>
<text x="127.2" y="882">1</text>
<text x="102" y="904" text-anchor="end">[3.9, 4.0)</text>
<rect class="bar" x="110" y="892" width="11.2" height="14" rx="2"/>
<text x="127.2" y="904">1</text>
<text x="102" y="926" text-anchor="end">[4.0, 4.1)</text>
<rect class="bar" x="110" y="914" width="11.2" height="14" rx="2"/>
<text x="127.2" y="926">1</text>
<text x="102" y="948" text-anchor="end">[5.2, 5.3)</text>
<rect class="bar" x="110" y="936" width="11.2" height="14" rx="2"/>
<text x="127.2" y="948">1</text>
<text x="102" y="970" text-anchor="end">[12.7, 12.8)</text>
<rect class="bar" x="110" y="958" width="11.2" height="14" rx="2"/>
<text x="127.2" y="970">1</text>
<text x="102" y="992" text-anchor="end">[24.1, 24.2)</text>
<rect class="bar" x="110" y="980" width="11.2" height="14" rx="2"/>
<text x="127.2" y="992">1</text>
</svg>