<svg xmlns="http://www.w3.org/2000/svg" width="1180" height="560" viewBox="0 0 1180 560">
<style>
text{font-family:Arial,'Microsoft YaHei',sans-serif;font-size:12px;fill:#222}
.title{font-size:18px;font-weight:700}
.axis{stroke:#222;stroke-width:1}
.grid{stroke:#ddd;stroke-width:1}
.cost{fill:none;stroke:#2f6fbb;stroke-width:2}
.gas{fill:none;stroke:#c35a4a;stroke-width:2}
.note{fill:#666;font-size:11px}
</style>
<text class="title" x="96" y="26">40-80美元/桶区间：理论成本USD口径与汽油价格</text>
<text class="note" x="96" y="45">左轴：理论国内成本10工作日均值（USD/bbl）；右轴：汽油价格真实值（CNY/ton）。</text>
<line class="grid" x1="96" y1="488.0" x2="1084" y2="488.0"/>
<text x="88" y="492.0" text-anchor="end">40</text>
<line class="grid" x1="96" y1="380.5" x2="1084" y2="380.5"/>
<text x="88" y="384.5" text-anchor="end">50</text>
<line class="grid" x1="96" y1="273.0" x2="1084" y2="273.0"/>
<text x="88" y="277.0" text-anchor="end">60</text>
<line class="grid" x1="96" y1="165.5" x2="1084" y2="165.5"/>
<text x="88" y="169.5" text-anchor="end">70</text>
<line class="grid" x1="96" y1="58.0" x2="1084" y2="58.0"/>
<text x="88" y="62.0" text-anchor="end">80</text>
<text x="1092" y="492.0">6000</text>
<text x="1092" y="384.5">7000</text>
<text x="1092" y="277.0">8000</text>
<text x="1092" y="169.5">9000</text>
<text x="1092" y="62.0">10000</text>
<line class="grid" x1="96.0" y1="58" x2="96.0" y2="488"/>
<text x="96.0" y="512" text-anchor="middle">2016-05</text>
<line class="grid" x1="237.1" y1="58" x2="237.1" y2="488"/>
<text x="237.1" y="512" text-anchor="middle">2017-08</text>
<line class="grid" x1="378.3" y1="58" x2="378.3" y2="488"/>
<text x="378.3" y="512" text-anchor="middle">2018-11</text>
<line class="grid" x1="519.4" y1="58" x2="519.4" y2="488"/>
<text x="519.4" y="512" text-anchor="middle">2020-02</text>
<line class="grid" x1="660.6" y1="58" x2="660.6" y2="488"/>
<text x="660.6" y="512" text-anchor="middle">2021-05</text>
<line class="grid" x1="801.7" y1="58" x2="801.7" y2="488"/>
<text x="801.7" y="512" text-anchor="middle">2022-08</text>
<line class="grid" x1="942.9" y1="58" x2="942.9" y2="488"/>
<text x="942.9" y="512" text-anchor="middle">2023-11</text>
<line class="grid" x1="1084.0" y1="58" x2="1084.0" y2="488"/>
<text x="1084.0" y="512" text-anchor="middle">2025-02</text>
<line class="axis" x1="96" y1="58" x2="96" y2="488"/>
<line class="axis" x1="1084" y1="58" x2="1084" y2="488"/>
<line class="axis" x1="96" y1="488" x2="1084" y2="488"/>
<path class="cost" d="M96.0,441.8 L100.3,396.4 L104.6,391.1 L117.9,455.2 L122.2,487.8 L126.5,444.8 L130.8,426.6 L136.1,439.6 L145.6,390.2 L154.2,458.3 L158.6,421.5 L162.9,356.8 L167.2,347.4 L171.8,339.1 L175.8,342.2 L182.0,338.3 L190.6,364.0 L194.9,390.1 L199.5,354.7 L208.5,401.5 L212.8,370.1 L217.4,397.0 L221.7,435.7 L230.4,417.6 L234.7,386.5 L247.6,350.5 L251.9,321.4 L262.4,297.1 L266.7,260.9 L279.7,244.7 L284.3,208.7 L288.6,194.5 L292.9,218.6 L298.8,238.1 L307.4,215.6 L312.0,200.8 L316.3,155.7 L321.0,140.5 L325.3,99.2 L329.6,110.4 L334.8,119.3 L339.1,102.4 L343.5,155.1 L347.8,145.6 L352.1,167.3 L356.4,128.7 L360.7,107.3 L364.7,74.9 L370.6,61.9 L374.9,115.3 L379.2,193.3 L383.5,279.5 L387.8,288.3 L392.2,331.0 L397.4,318.9 L401.7,280.5 L406.9,259.9 L411.3,222.6 L419.9,209.9 L424.5,180.9 L428.8,159.9 L434.1,172.2 L438.4,171.3 L443.0,235.4 L447.3,255.9 L451.6,244.2 L460.3,270.0 L464.6,304.0 L468.9,297.8 L473.5,258.5 L483.7,289.0 L488.0,270.1 L492.3,255.0 L496.6,241.3 L505.3,195.3 L516.3,287.5 L520.7,321.9 L564.7,461.8 L577.7,446.7 L609.7,411.9 L614.0,381.0 L618.4,372.6 L623.0,335.1 L627.3,327.5 L633.5,259.1 L637.5,234.7 L641.8,200.9 L646.1,252.6 L654.7,226.2 L659.6,200.6 L668.3,170.1 L673.5,131.3 L677.8,119.3 L682.1,138.9 L690.8,190.1 L695.1,162.3 L698.8,149.3 L705.3,74.5 L726.5,134.5 L730.8,123.9 L844.2,100.9 L848.6,92.7 L871.1,130.6 L889.5,127.9 L893.9,135.4 L898.5,127.8 L902.8,100.6 L907.1,58.3 L952.1,112.6 L956.7,90.2 L961.0,95.8 L965.4,58.5 L1043.3,100.5 L1047.3,119.9 L1051.6,131.9 L1069.2,128.6 L1073.5,64.9 L1084.0,98.9"/>
<path class="gas" d="M96.0,461.1 L100.3,438.6 L104.6,426.7 L117.9,443.4 L122.2,467.0 L126.5,448.2 L130.8,426.2 L136.1,442.9 L145.6,404.7 L154.2,443.9 L158.6,425.1 L162.9,378.4 L167.2,367.6 L171.8,341.8 L175.8,349.3 L182.0,343.9 L190.6,353.1 L194.9,377.8 L199.5,356.3 L208.5,383.2 L212.8,368.1 L217.4,387.5 L221.7,414.4 L230.4,406.3 L234.7,387.5 L247.6,377.3 L251.9,354.7 L262.4,338.6 L266.7,310.1 L279.7,302.6 L284.3,283.2 L288.6,276.2 L292.9,294.5 L298.8,314.9 L307.4,296.7 L312.0,290.7 L316.3,263.3 L321.0,252.6 L325.3,224.6 L329.6,238.6 L334.8,244.5 L339.1,215.5 L343.5,228.9 L347.8,221.4 L352.1,226.8 L356.4,207.4 L360.7,191.8 L364.7,166.0 L370.6,148.3 L374.9,188.6 L379.2,243.4 L383.5,301.5 L387.8,314.9 L392.2,354.7 L397.4,343.4 L401.7,317.1 L406.9,311.7 L411.3,282.7 L419.9,274.1 L424.5,279.5 L428.8,258.5 L434.1,266.5 L438.4,261.2 L443.0,311.2 L447.3,324.1 L451.6,307.9 L460.3,316.5 L464.6,339.1 L468.9,326.8 L473.5,313.3 L483.7,329.4 L488.0,318.1 L492.3,310.6 L496.6,304.7 L505.3,279.5 L516.3,324.6 L520.7,369.2 L564.7,454.7 L577.7,445.5 L609.7,445.0 L614.0,428.3 L618.4,418.7 L623.0,398.8 L627.3,390.7 L633.5,361.1 L637.5,333.2 L641.8,307.9 L646.1,332.1 L654.7,321.4 L659.6,310.6 L668.3,291.8 L673.5,267.6 L677.8,260.1 L682.1,270.9 L690.8,297.7 L695.1,282.7 L698.8,273.0 L705.3,235.9 L726.5,274.1 L730.8,259.0 L844.2,173.0 L848.6,195.1 L871.1,219.2 L889.5,207.4 L893.9,213.3 L898.5,205.8 L902.8,189.2 L907.1,159.6 L952.1,205.3 L956.7,183.8 L961.0,189.2 L965.4,167.7 L1043.3,213.3 L1047.3,203.7 L1051.6,219.2 L1069.2,211.7 L1073.5,175.2 L1084.0,193.4"/>
<rect x="96" y="528" width="18" height="4" fill="#2f6fbb"/>
<text x="122" y="534">理论国内成本10工作日均值（USD/bbl）</text>
<rect x="486" y="528" width="18" height="4" fill="#c35a4a"/>
<text x="512" y="534">汽油价格真实值（CNY/ton）</text>
</svg>