<svg xmlns="http://www.w3.org/2000/svg" width="940" height="560" viewBox="0 0 940 560">
<style>
text{font-family:Arial,'Microsoft YaHei',sans-serif;font-size:12px;fill:#222}
.title{font-size:18px;font-weight:700}
.axis{stroke:#222;stroke-width:1}
.grid{stroke:#ddd;stroke-width:1}
.bar{fill:#2f6fbb}
.bar.neg{fill:#c35a4a}
.note{fill:#666;font-size:11px}
</style>
<text class="title" x="110" y="26">40-80美元/桶区间：汽油变化率 / 理论成本USD变化率</text>
<text class="note" x="110" y="45">0.1为分箱宽度，仅绘制数量大于0的区间。</text>
<line class="grid" x1="110.0" y1="50" x2="110.0" y2="522"/>
<text x="110.0" y="542" text-anchor="middle">0</text>
<line class="grid" x1="143.0" y1="50" x2="143.0" y2="522"/>
<text x="143.0" y="542" text-anchor="middle">1</text>
<line class="grid" x1="176.1" y1="50" x2="176.1" y2="522"/>
<text x="176.1" y="542" text-anchor="middle">2</text>
<line class="grid" x1="209.1" y1="50" x2="209.1" y2="522"/>
<text x="209.1" y="542" text-anchor="middle">3</text>
<line class="grid" x1="242.2" y1="50" x2="242.2" y2="522"/>
<text x="242.2" y="542" text-anchor="middle">4</text>
<line class="grid" x1="275.2" y1="50" x2="275.2" y2="522"/>
<text x="275.2" y="542" text-anchor="middle">5</text>
<line class="grid" x1="308.3" y1="50" x2="308.3" y2="522"/>
<text x="308.3" y="542" text-anchor="middle">6</text>
<line class="grid" x1="341.3" y1="50" x2="341.3" y2="522"/>
<text x="341.3" y="542" text-anchor="middle">7</text>
<line class="grid" x1="374.3" y1="50" x2="374.3" y2="522"/>
<text x="374.3" y="542" text-anchor="middle">8</text>
<line class="grid" x1="407.4" y1="50" x2="407.4" y2="522"/>
<text x="407.4" y="542" text-anchor="middle">9</text>
<line class="grid" x1="440.4" y1="50" x2="440.4" y2="522"/>
<text x="440.4" y="542" text-anchor="middle">10</text>
<line class="grid" x1="473.5" y1="50" x2="473.5" y2="522"/>
<text x="473.5" y="542" text-anchor="middle">11</text>
<line class="grid" x1="506.5" y1="50" x2="506.5" y2="522"/>
<text x="506.5" y="542" text-anchor="middle">12</text>
<line class="grid" x1="539.6" y1="50" x2="539.6" y2="522"/>
<text x="539.6" y="542" text-anchor="middle">13</text>
<line class="grid" x1="572.6" y1="50" x2="572.6" y2="522"/>
<text x="572.6" y="542" text-anchor="middle">14</text>
<line class="grid" x1="605.7" y1="50" x2="605.7" y2="522"/>
<text x="605.7" y="542" text-anchor="middle">15</text>
<line class="grid" x1="638.7" y1="50" x2="638.7" y2="522"/>
<text x="638.7" y="542" text-anchor="middle">16</text>
<line class="grid" x1="671.7" y1="50" x2="671.7" y2="522"/>
<text x="671.7" y="542" text-anchor="middle">17</text>
<line class="grid" x1="704.8" y1="50" x2="704.8" y2="522"/>
<text x="704.8" y="542" text-anchor="middle">18</text>
<line class="grid" x1="737.8" y1="50" x2="737.8" y2="522"/>
<text x="737.8" y="542" text-anchor="middle">19</text>
<line class="grid" x1="770.9" y1="50" x2="770.9" y2="522"/>
<text x="770.9" y="542" text-anchor="middle">20</text>
<line class="grid" x1="803.9" y1="50" x2="803.9" y2="522"/>
<text x="803.9" y="542" text-anchor="middle">21</text>
<line class="grid" x1="837.0" y1="50" x2="837.0" y2="522"/>
<text x="837.0" y="542" text-anchor="middle">22</text>
<line class="grid" x1="870.0" y1="50" x2="870.0" y2="522"/>
<text x="870.0" y="542" text-anchor="middle">23</text>
<line class="axis" x1="110" y1="522" x2="870" y2="522"/>
<text x="102" y="68" text-anchor="end">[-2.3, -2.2)</text>
<rect class="bar neg" x="110" y="56" width="33.0" height="14" rx="2"/>
<text x="149.0" y="68">1</text>
<text x="102" y="90" text-anchor="end">[-0.5, -0.4)</text>
<rect class="bar neg" x="110" y="78" width="33.0" height="14" rx="2"/>
<text x="149.0" y="90">1</text>
<text x="102" y="112" text-anchor="end">[-0.2, -0.1)</text>
<rect class="bar neg" x="110" y="100" width="33.0" height="14" rx="2"/>
<text x="149.0" y="112">1</text>
<text x="102" y="134" text-anchor="end">[0.1, 0.2)</text>
<rect class="bar" x="110" y="122" width="33.0" height="14" rx="2"/>
<text x="149.0" y="134">1</text>
<text x="102" y="156" text-anchor="end">[0.2, 0.3)</text>
<rect class="bar" x="110" y="144" width="330.4" height="14" rx="2"/>
<text x="446.4" y="156">10</text>
<text x="102" y="178" text-anchor="end">[0.3, 0.4)</text>
<rect class="bar" x="110" y="166" width="396.5" height="14" rx="2"/>
<text x="512.5" y="178">12</text>
<text x="102" y="200" text-anchor="end">[0.4, 0.5)</text>
<rect class="bar" x="110" y="188" width="760.0" height="14" rx="2"/>
<text x="876.0" y="200">23</text>
<text x="102" y="222" text-anchor="end">[0.5, 0.6)</text>
<rect class="bar" x="110" y="210" width="660.9" height="14" rx="2"/>
<text x="776.9" y="222">20</text>
<text x="102" y="244" text-anchor="end">[0.6, 0.7)</text>
<rect class="bar" x="110" y="232" width="594.8" height="14" rx="2"/>
<text x="710.8" y="244">18</text>
<text x="102" y="266" text-anchor="end">[0.7, 0.8)</text>
<rect class="bar" x="110" y="254" width="66.1" height="14" rx="2"/>
<text x="182.1" y="266">2</text>
<text x="102" y="288" text-anchor="end">[0.8, 0.9)</text>
<rect class="bar" x="110" y="276" width="363.5" height="14" rx="2"/>
<text x="479.5" y="288">11</text>
<text x="102" y="310" text-anchor="end">[0.9, 1.0)</text>
<rect class="bar" x="110" y="298" width="33.0" height="14" rx="2"/>
<text x="149.0" y="310">1</text>
<text x="102" y="332" text-anchor="end">[1.0, 1.1)</text>
<rect class="bar" x="110" y="320" width="99.1" height="14" rx="2"/>
<text x="215.1" y="332">3</text>
<text x="102" y="354" text-anchor="end">[1.1, 1.2)</text>
<rect class="bar" x="110" y="342" width="165.2" height="14" rx="2"/>
<text x="281.2" y="354">5</text>
<text x="102" y="376" text-anchor="end">[1.2, 1.3)</text>
<rect class="bar" x="110" y="364" width="33.0" height="14" rx="2"/>
<text x="149.0" y="376">1</text>
<text x="102" y="398" text-anchor="end">[1.5, 1.6)</text>
<rect class="bar" x="110" y="386" width="66.1" height="14" rx="2"/>
<text x="182.1" y="398">2</text>
<text x="102" y="420" text-anchor="end">[1.6, 1.7)</text>
<rect class="bar" x="110" y="408" width="33.0" height="14" rx="2"/>
<text x="149.0" y="420">1</text>
<text x="102" y="442" text-anchor="end">[1.7, 1.8)</text>
<rect class="bar" x="110" y="430" width="66.1" height="14" rx="2"/>
<text x="182.1" y="442">2</text>
<text x="102" y="464" text-anchor="end">[1.9, 2.0)</text>
<rect class="bar" x="110" y="452" width="33.0" height="14" rx="2"/>
<text x="149.0" y="464">1</text>
<text x="102" y="486" text-anchor="end">[2.3, 2.4)</text>
<rect class="bar" x="110" y="474" width="33.0" height="14" rx="2"/>
<text x="149.0" y="486">1</text>
<text x="102" y="508" text-anchor="end">[5.5, 5.6)</text>
<rect class="bar" x="110" y="496" width="33.0" height="14" rx="2"/>
<text x="149.0" y="508">1</text>
</svg>