<svg xmlns="http://www.w3.org/2000/svg" width="1280" height="520" viewBox="0 0 1280 520">
<style>
text{font-family:Arial,'Microsoft YaHei',sans-serif;font-size:12px;fill:#222}
.title{font-size:18px;font-weight:700}
.note{fill:#666;font-size:11px}
.axis{stroke:#222;stroke-width:1}
.grid{stroke:#ddd;stroke-width:1}
.fit{stroke-width:2;fill:none}
.point{opacity:.74}
</style>
<text class="title" x="84" y="30">布伦特：上升/下降区间线性回归</text>
<text class="note" x="84" y="50">筛选国际油价40-80 USD/bbl；方向按相邻样本国际原油均价变化划分；y=国内汽油，x=国际原油。</text>
<line class="grid" x1="84.0" y1="82" x2="84.0" y2="448"/>
<text x="84.0" y="468" text-anchor="middle">40</text>
<line class="grid" x1="217.8" y1="82" x2="217.8" y2="448"/>
<text x="217.8" y="468" text-anchor="middle">50</text>
<line class="grid" x1="351.5" y1="82" x2="351.5" y2="448"/>
<text x="351.5" y="468" text-anchor="middle">60</text>
<line class="grid" x1="485.2" y1="82" x2="485.2" y2="448"/>
<text x="485.2" y="468" text-anchor="middle">70</text>
<line class="grid" x1="619.0" y1="82" x2="619.0" y2="448"/>
<text x="619.0" y="468" text-anchor="middle">80</text>
<line class="grid" x1="84.0" y1="448.0" x2="619.0" y2="448.0"/>
<text x="76.0" y="452.0" text-anchor="end">120</text>
<line class="grid" x1="84.0" y1="356.5" x2="619.0" y2="356.5"/>
<text x="76.0" y="360.5" text-anchor="end">140</text>
<line class="grid" x1="84.0" y1="265.0" x2="619.0" y2="265.0"/>
<text x="76.0" y="269.0" text-anchor="end">160</text>
<line class="grid" x1="84.0" y1="173.5" x2="619.0" y2="173.5"/>
<text x="76.0" y="177.5" text-anchor="end">180</text>
<line class="grid" x1="84.0" y1="82.0" x2="619.0" y2="82.0"/>
<text x="76.0" y="86.0" text-anchor="end">200</text>
<line class="axis" x1="84.0" y1="82" x2="84.0" y2="448"/>
<line class="axis" x1="84.0" y1="448" x2="619.0" y2="448"/>
<text x="84.0" y="68">上升 n=81 y=75.73+1.237x R2=0.890</text>
<circle class="point" cx="195.4" cy="382.1" r="3" fill="#c35a4a"/>
<circle class="point" cx="209.9" cy="372.1" r="3" fill="#c35a4a"/>
<circle class="point" cx="165.8" cy="399.4" r="3" fill="#c35a4a"/>
<circle class="point" cx="190.8" cy="382.7" r="3" fill="#c35a4a"/>
<circle class="point" cx="198.9" cy="370.1" r="3" fill="#c35a4a"/>
<circle class="point" cx="175.5" cy="400.2" r="3" fill="#c35a4a"/>
<circle class="point" cx="252.2" cy="366.0" r="3" fill="#c35a4a"/>
<circle class="point" cx="273.2" cy="358.1" r="3" fill="#c35a4a"/>
<circle class="point" cx="278.7" cy="331.3" r="3" fill="#c35a4a"/>
<circle class="point" cx="283.2" cy="330.3" r="3" fill="#c35a4a"/>
<circle class="point" cx="266.6" cy="342.5" r="3" fill="#c35a4a"/>
<circle class="point" cx="246.7" cy="349.2" r="3" fill="#c35a4a"/>
<circle class="point" cx="182.4" cy="373.5" r="3" fill="#c35a4a"/>
<circle class="point" cx="231.1" cy="353.7" r="3" fill="#c35a4a"/>
<circle class="point" cx="254.0" cy="327.4" r="3" fill="#c35a4a"/>
<circle class="point" cx="323.3" cy="317.8" r="3" fill="#c35a4a"/>
<circle class="point" cx="323.9" cy="302.2" r="3" fill="#c35a4a"/>
<circle class="point" cx="390.4" cy="276.0" r="3" fill="#c35a4a"/>
<circle class="point" cx="404.3" cy="256.0" r="3" fill="#c35a4a"/>
<circle class="point" cx="468.3" cy="233.4" r="3" fill="#c35a4a"/>
<circle class="point" cx="481.4" cy="209.9" r="3" fill="#c35a4a"/>
<circle class="point" cx="433.2" cy="225.0" r="3" fill="#c35a4a"/>
<circle class="point" cx="476.8" cy="217.7" r="3" fill="#c35a4a"/>
<circle class="point" cx="541.3" cy="199.7" r="3" fill="#c35a4a"/>
<circle class="point" cx="557.8" cy="190.0" r="3" fill="#c35a4a"/>
<circle class="point" cx="601.2" cy="171.9" r="3" fill="#c35a4a"/>
<circle class="point" cx="573.9" cy="193.5" r="3" fill="#c35a4a"/>
<circle class="point" cx="531.7" cy="222.3" r="3" fill="#c35a4a"/>
<circle class="point" cx="561.2" cy="211.8" r="3" fill="#c35a4a"/>
<circle class="point" cx="586.8" cy="200.6" r="3" fill="#c35a4a"/>
<circle class="point" cx="351.3" cy="309.4" r="3" fill="#c35a4a"/>
<circle class="point" cx="316.1" cy="318.9" r="3" fill="#c35a4a"/>
<circle class="point" cx="363.7" cy="293.4" r="3" fill="#c35a4a"/>
<circle class="point" cx="383.9" cy="293.0" r="3" fill="#c35a4a"/>
<circle class="point" cx="426.0" cy="260.8" r="3" fill="#c35a4a"/>
<circle class="point" cx="435.2" cy="254.0" r="3" fill="#c35a4a"/>
<circle class="point" cx="491.1" cy="257.8" r="3" fill="#c35a4a"/>
<circle class="point" cx="512.2" cy="242.5" r="3" fill="#c35a4a"/>
<circle class="point" cx="509.6" cy="264.5" r="3" fill="#c35a4a"/>
<circle class="point" cx="417.2" cy="300.0" r="3" fill="#c35a4a"/>
<circle class="point" cx="344.5" cy="341.9" r="3" fill="#c35a4a"/>
<circle class="point" cx="400.4" cy="326.4" r="3" fill="#c35a4a"/>
<circle class="point" cx="365.8" cy="322.1" r="3" fill="#c35a4a"/>
<circle class="point" cx="384.6" cy="317.6" r="3" fill="#c35a4a"/>
<circle class="point" cx="409.6" cy="316.0" r="3" fill="#c35a4a"/>
<circle class="point" cx="453.9" cy="285.3" r="3" fill="#c35a4a"/>
<circle class="point" cx="137.2" cy="420.2" r="3" fill="#c35a4a"/>
<circle class="point" cx="116.6" cy="412.1" r="3" fill="#c35a4a"/>
<circle class="point" cx="179.3" cy="385.4" r="3" fill="#c35a4a"/>
<circle class="point" cx="220.2" cy="371.2" r="3" fill="#c35a4a"/>
<circle class="point" cx="227.3" cy="361.5" r="3" fill="#c35a4a"/>
<circle class="point" cx="275.9" cy="339.2" r="3" fill="#c35a4a"/>
<circle class="point" cx="287.4" cy="326.5" r="3" fill="#c35a4a"/>
<circle class="point" cx="366.0" cy="303.0" r="3" fill="#c35a4a"/>
<circle class="point" cx="424.4" cy="279.3" r="3" fill="#c35a4a"/>
<circle class="point" cx="454.9" cy="260.7" r="3" fill="#c35a4a"/>
<circle class="point" cx="414.3" cy="268.9" r="3" fill="#c35a4a"/>
<circle class="point" cx="468.3" cy="255.2" r="3" fill="#c35a4a"/>
<circle class="point" cx="479.9" cy="233.7" r="3" fill="#c35a4a"/>
<circle class="point" cx="544.0" cy="219.7" r="3" fill="#c35a4a"/>
<circle class="point" cx="573.6" cy="213.5" r="3" fill="#c35a4a"/>
<circle class="point" cx="516.2" cy="233.5" r="3" fill="#c35a4a"/>
<circle class="point" cx="530.0" cy="224.8" r="3" fill="#c35a4a"/>
<circle class="point" cx="600.2" cy="188.7" r="3" fill="#c35a4a"/>
<circle class="point" cx="558.9" cy="198.7" r="3" fill="#c35a4a"/>
<circle class="point" cx="611.8" cy="218.8" r="3" fill="#c35a4a"/>
<circle class="point" cx="587.6" cy="230.7" r="3" fill="#c35a4a"/>
<circle class="point" cx="612.3" cy="208.5" r="3" fill="#c35a4a"/>
<circle class="point" cx="598.7" cy="227.2" r="3" fill="#c35a4a"/>
<circle class="point" cx="605.8" cy="235.5" r="3" fill="#c35a4a"/>
<circle class="point" cx="614.5" cy="222.0" r="3" fill="#c35a4a"/>
<circle class="point" cx="571.2" cy="241.4" r="3" fill="#c35a4a"/>
<circle class="point" cx="579.5" cy="245.2" r="3" fill="#c35a4a"/>
<circle class="point" cx="551.1" cy="263.8" r="3" fill="#c35a4a"/>
<circle class="point" cx="426.2" cy="309.9" r="3" fill="#c35a4a"/>
<circle class="point" cx="515.4" cy="287.7" r="3" fill="#c35a4a"/>
<circle class="point" cx="410.3" cy="306.0" r="3" fill="#c35a4a"/>
<circle class="point" cx="403.5" cy="311.8" r="3" fill="#c35a4a"/>
<circle class="point" cx="413.4" cy="309.6" r="3" fill="#c35a4a"/>
<circle class="point" cx="478.1" cy="288.9" r="3" fill="#c35a4a"/>
<circle class="point" cx="499.4" cy="265.6" r="3" fill="#c35a4a"/>
<line class="fit" x1="84.0" y1="424.2" x2="619.0" y2="197.8" stroke="#c35a4a"/>
<line class="grid" x1="701.0" y1="82" x2="701.0" y2="448"/>
<text x="701.0" y="468" text-anchor="middle">40</text>
<line class="grid" x1="834.8" y1="82" x2="834.8" y2="448"/>
<text x="834.8" y="468" text-anchor="middle">50</text>
<line class="grid" x1="968.5" y1="82" x2="968.5" y2="448"/>
<text x="968.5" y="468" text-anchor="middle">60</text>
<line class="grid" x1="1102.2" y1="82" x2="1102.2" y2="448"/>
<text x="1102.2" y="468" text-anchor="middle">70</text>
<line class="grid" x1="1236.0" y1="82" x2="1236.0" y2="448"/>
<text x="1236.0" y="468" text-anchor="middle">80</text>
<line class="grid" x1="701.0" y1="448.0" x2="1236.0" y2="448.0"/>
<text x="693.0" y="452.0" text-anchor="end">100</text>
<line class="grid" x1="701.0" y1="356.5" x2="1236.0" y2="356.5"/>
<text x="693.0" y="360.5" text-anchor="end">120</text>
<line class="grid" x1="701.0" y1="265.0" x2="1236.0" y2="265.0"/>
<text x="693.0" y="269.0" text-anchor="end">140</text>
<line class="grid" x1="701.0" y1="173.5" x2="1236.0" y2="173.5"/>
<text x="693.0" y="177.5" text-anchor="end">160</text>
<line class="grid" x1="701.0" y1="82.0" x2="1236.0" y2="82.0"/>
<text x="693.0" y="86.0" text-anchor="end">180</text>
<line class="axis" x1="701.0" y1="82" x2="701.0" y2="448"/>
<line class="axis" x1="701.0" y1="448" x2="1236.0" y2="448"/>
<text x="701.0" y="68">下降 n=60 y=72.47+1.254x R2=0.901</text>
<circle class="point" cx="790.0" cy="306.1" r="3" fill="#2f6fbb"/>
<circle class="point" cx="723.9" cy="324.6" r="3" fill="#2f6fbb"/>
<circle class="point" cx="791.7" cy="304.6" r="3" fill="#2f6fbb"/>
<circle class="point" cx="774.1" cy="323.8" r="3" fill="#2f6fbb"/>
<circle class="point" cx="895.2" cy="244.3" r="3" fill="#2f6fbb"/>
<circle class="point" cx="882.8" cy="250.6" r="3" fill="#2f6fbb"/>
<circle class="point" cx="839.9" cy="269.1" r="3" fill="#2f6fbb"/>
<circle class="point" cx="829.2" cy="274.5" r="3" fill="#2f6fbb"/>
<circle class="point" cx="818.1" cy="268.8" r="3" fill="#2f6fbb"/>
<circle class="point" cx="773.3" cy="295.2" r="3" fill="#2f6fbb"/>
<circle class="point" cx="1058.8" cy="132.4" r="3" fill="#2f6fbb"/>
<circle class="point" cx="1032.6" cy="158.5" r="3" fill="#2f6fbb"/>
<circle class="point" cx="1163.6" cy="95.0" r="3" fill="#2f6fbb"/>
<circle class="point" cx="1156.1" cy="121.4" r="3" fill="#2f6fbb"/>
<circle class="point" cx="1135.6" cy="132.6" r="3" fill="#2f6fbb"/>
<circle class="point" cx="1107.8" cy="137.1" r="3" fill="#2f6fbb"/>
<circle class="point" cx="1184.6" cy="109.8" r="3" fill="#2f6fbb"/>
<circle class="point" cx="1079.2" cy="161.1" r="3" fill="#2f6fbb"/>
<circle class="point" cx="967.6" cy="211.9" r="3" fill="#2f6fbb"/>
<circle class="point" cx="883.1" cy="248.6" r="3" fill="#2f6fbb"/>
<circle class="point" cx="1123.5" cy="173.9" r="3" fill="#2f6fbb"/>
<circle class="point" cx="1032.0" cy="215.7" r="3" fill="#2f6fbb"/>
<circle class="point" cx="1028.5" cy="222.8" r="3" fill="#2f6fbb"/>
<circle class="point" cx="1003.5" cy="234.1" r="3" fill="#2f6fbb"/>
<circle class="point" cx="947.6" cy="252.9" r="3" fill="#2f6fbb"/>
<circle class="point" cx="974.4" cy="246.2" r="3" fill="#2f6fbb"/>
<circle class="point" cx="1002.5" cy="232.5" r="3" fill="#2f6fbb"/>
<circle class="point" cx="916.7" cy="271.8" r="3" fill="#2f6fbb"/>
<circle class="point" cx="760.9" cy="366.1" r="3" fill="#2f6fbb"/>
<circle class="point" cx="738.5" cy="343.0" r="3" fill="#2f6fbb"/>
<circle class="point" cx="728.9" cy="344.9" r="3" fill="#2f6fbb"/>
<circle class="point" cx="712.4" cy="330.5" r="3" fill="#2f6fbb"/>
<circle class="point" cx="1010.3" cy="197.2" r="3" fill="#2f6fbb"/>
<circle class="point" cx="1149.6" cy="136.7" r="3" fill="#2f6fbb"/>
<circle class="point" cx="1120.0" cy="156.1" r="3" fill="#2f6fbb"/>
<circle class="point" cx="1177.4" cy="110.7" r="3" fill="#2f6fbb"/>
<circle class="point" cx="1159.4" cy="123.3" r="3" fill="#2f6fbb"/>
<circle class="point" cx="1184.2" cy="133.2" r="3" fill="#2f6fbb"/>
<circle class="point" cx="1175.7" cy="146.6" r="3" fill="#2f6fbb"/>
<circle class="point" cx="1175.0" cy="149.9" r="3" fill="#2f6fbb"/>
<circle class="point" cx="1169.0" cy="160.1" r="3" fill="#2f6fbb"/>
<circle class="point" cx="1165.5" cy="163.2" r="3" fill="#2f6fbb"/>
<circle class="point" cx="1193.0" cy="150.7" r="3" fill="#2f6fbb"/>
<circle class="point" cx="1230.0" cy="132.2" r="3" fill="#2f6fbb"/>
<circle class="point" cx="1228.8" cy="132.4" r="3" fill="#2f6fbb"/>
<circle class="point" cx="1149.6" cy="160.6" r="3" fill="#2f6fbb"/>
<circle class="point" cx="1162.8" cy="147.7" r="3" fill="#2f6fbb"/>
<circle class="point" cx="1159.5" cy="162.6" r="3" fill="#2f6fbb"/>
<circle class="point" cx="1156.3" cy="174.8" r="3" fill="#2f6fbb"/>
<circle class="point" cx="1146.8" cy="164.5" r="3" fill="#2f6fbb"/>
<circle class="point" cx="1127.1" cy="188.6" r="3" fill="#2f6fbb"/>
<circle class="point" cx="1062.0" cy="215.1" r="3" fill="#2f6fbb"/>
<circle class="point" cx="1034.8" cy="227.3" r="3" fill="#2f6fbb"/>
<circle class="point" cx="1123.0" cy="173.4" r="3" fill="#2f6fbb"/>
<circle class="point" cx="1117.3" cy="186.1" r="3" fill="#2f6fbb"/>
<circle class="point" cx="1090.8" cy="199.3" r="3" fill="#2f6fbb"/>
<circle class="point" cx="1067.1" cy="204.3" r="3" fill="#2f6fbb"/>
<circle class="point" cx="1009.0" cy="223.7" r="3" fill="#2f6fbb"/>
<circle class="point" cx="1014.7" cy="217.5" r="3" fill="#2f6fbb"/>
<circle class="point" cx="991.4" cy="231.9" r="3" fill="#2f6fbb"/>
<line class="fit" x1="701.0" y1="344.5" x2="1236.0" y2="115.1" stroke="#2f6fbb"/>
<text x="84" y="494">横轴：国际原油区间均价 USD/bbl；纵轴：国内汽油 USD/bbl。</text>
</svg>