<svg xmlns="http://www.w3.org/2000/svg" width="1280" height="520" viewBox="0 0 1280 520">
<style>
text{font-family:Arial,'Microsoft YaHei',sans-serif;font-size:12px;fill:#222}
.title{font-size:18px;font-weight:700}
.note{fill:#666;font-size:11px}
.axis{stroke:#222;stroke-width:1}
.grid{stroke:#ddd;stroke-width:1}
.fit{stroke-width:2;fill:none}
.point{opacity:.74}
</style>
<text class="title" x="84" y="30">迪拜：上升/下降区间线性回归</text>
<text class="note" x="84" y="50">筛选国际油价40-80 USD/bbl；方向按相邻样本国际原油均价变化划分；y=国内汽油，x=国际原油。</text>
<line class="grid" x1="84.0" y1="82" x2="84.0" y2="448"/>
<text x="84.0" y="468" text-anchor="middle">40</text>
<line class="grid" x1="217.8" y1="82" x2="217.8" y2="448"/>
<text x="217.8" y="468" text-anchor="middle">50</text>
<line class="grid" x1="351.5" y1="82" x2="351.5" y2="448"/>
<text x="351.5" y="468" text-anchor="middle">60</text>
<line class="grid" x1="485.2" y1="82" x2="485.2" y2="448"/>
<text x="485.2" y="468" text-anchor="middle">70</text>
<line class="grid" x1="619.0" y1="82" x2="619.0" y2="448"/>
<text x="619.0" y="468" text-anchor="middle">80</text>
<line class="grid" x1="84.0" y1="448.0" x2="619.0" y2="448.0"/>
<text x="76.0" y="452.0" text-anchor="end">120</text>
<line class="grid" x1="84.0" y1="356.5" x2="619.0" y2="356.5"/>
<text x="76.0" y="360.5" text-anchor="end">140</text>
<line class="grid" x1="84.0" y1="265.0" x2="619.0" y2="265.0"/>
<text x="76.0" y="269.0" text-anchor="end">160</text>
<line class="grid" x1="84.0" y1="173.5" x2="619.0" y2="173.5"/>
<text x="76.0" y="177.5" text-anchor="end">180</text>
<line class="grid" x1="84.0" y1="82.0" x2="619.0" y2="82.0"/>
<text x="76.0" y="86.0" text-anchor="end">200</text>
<line class="axis" x1="84.0" y1="82" x2="84.0" y2="448"/>
<line class="axis" x1="84.0" y1="448" x2="619.0" y2="448"/>
<text x="84.0" y="68">上升 n=84 y=80.75+1.187x R2=0.868</text>
<circle class="point" cx="140.8" cy="382.1" r="3" fill="#c35a4a"/>
<circle class="point" cx="168.5" cy="372.1" r="3" fill="#c35a4a"/>
<circle class="point" cx="121.7" cy="399.4" r="3" fill="#c35a4a"/>
<circle class="point" cx="131.3" cy="382.7" r="3" fill="#c35a4a"/>
<circle class="point" cx="134.5" cy="396.1" r="3" fill="#c35a4a"/>
<circle class="point" cx="177.5" cy="370.1" r="3" fill="#c35a4a"/>
<circle class="point" cx="236.2" cy="366.0" r="3" fill="#c35a4a"/>
<circle class="point" cx="244.1" cy="358.1" r="3" fill="#c35a4a"/>
<circle class="point" cx="265.5" cy="331.3" r="3" fill="#c35a4a"/>
<circle class="point" cx="265.7" cy="335.8" r="3" fill="#c35a4a"/>
<circle class="point" cx="273.6" cy="330.3" r="3" fill="#c35a4a"/>
<circle class="point" cx="254.2" cy="342.5" r="3" fill="#c35a4a"/>
<circle class="point" cx="175.1" cy="373.5" r="3" fill="#c35a4a"/>
<circle class="point" cx="201.6" cy="353.7" r="3" fill="#c35a4a"/>
<circle class="point" cx="232.1" cy="327.4" r="3" fill="#c35a4a"/>
<circle class="point" cx="265.4" cy="317.8" r="3" fill="#c35a4a"/>
<circle class="point" cx="291.6" cy="302.2" r="3" fill="#c35a4a"/>
<circle class="point" cx="365.5" cy="276.0" r="3" fill="#c35a4a"/>
<circle class="point" cx="424.1" cy="233.4" r="3" fill="#c35a4a"/>
<circle class="point" cx="433.5" cy="209.9" r="3" fill="#c35a4a"/>
<circle class="point" cx="433.6" cy="217.7" r="3" fill="#c35a4a"/>
<circle class="point" cx="459.3" cy="199.7" r="3" fill="#c35a4a"/>
<circle class="point" cx="507.8" cy="190.0" r="3" fill="#c35a4a"/>
<circle class="point" cx="546.3" cy="171.9" r="3" fill="#c35a4a"/>
<circle class="point" cx="544.0" cy="193.5" r="3" fill="#c35a4a"/>
<circle class="point" cx="522.8" cy="211.8" r="3" fill="#c35a4a"/>
<circle class="point" cx="564.9" cy="200.6" r="3" fill="#c35a4a"/>
<circle class="point" cx="586.5" cy="179.7" r="3" fill="#c35a4a"/>
<circle class="point" cx="590.7" cy="201.3" r="3" fill="#c35a4a"/>
<circle class="point" cx="339.3" cy="293.4" r="3" fill="#c35a4a"/>
<circle class="point" cx="380.5" cy="293.0" r="3" fill="#c35a4a"/>
<circle class="point" cx="414.9" cy="260.8" r="3" fill="#c35a4a"/>
<circle class="point" cx="441.3" cy="254.0" r="3" fill="#c35a4a"/>
<circle class="point" cx="478.2" cy="257.8" r="3" fill="#c35a4a"/>
<circle class="point" cx="494.2" cy="242.5" r="3" fill="#c35a4a"/>
<circle class="point" cx="490.7" cy="264.5" r="3" fill="#c35a4a"/>
<circle class="point" cx="386.1" cy="300.0" r="3" fill="#c35a4a"/>
<circle class="point" cx="334.8" cy="341.9" r="3" fill="#c35a4a"/>
<circle class="point" cx="352.3" cy="326.4" r="3" fill="#c35a4a"/>
<circle class="point" cx="349.9" cy="322.1" r="3" fill="#c35a4a"/>
<circle class="point" cx="368.6" cy="317.6" r="3" fill="#c35a4a"/>
<circle class="point" cx="372.7" cy="316.0" r="3" fill="#c35a4a"/>
<circle class="point" cx="406.1" cy="285.3" r="3" fill="#c35a4a"/>
<circle class="point" cx="406.9" cy="324.0" r="3" fill="#c35a4a"/>
<circle class="point" cx="130.3" cy="420.2" r="3" fill="#c35a4a"/>
<circle class="point" cx="115.2" cy="412.1" r="3" fill="#c35a4a"/>
<circle class="point" cx="155.1" cy="385.4" r="3" fill="#c35a4a"/>
<circle class="point" cx="208.5" cy="371.2" r="3" fill="#c35a4a"/>
<circle class="point" cx="214.8" cy="361.5" r="3" fill="#c35a4a"/>
<circle class="point" cx="272.2" cy="339.2" r="3" fill="#c35a4a"/>
<circle class="point" cx="282.5" cy="326.5" r="3" fill="#c35a4a"/>
<circle class="point" cx="339.3" cy="303.0" r="3" fill="#c35a4a"/>
<circle class="point" cx="373.4" cy="279.3" r="3" fill="#c35a4a"/>
<circle class="point" cx="430.3" cy="260.7" r="3" fill="#c35a4a"/>
<circle class="point" cx="429.5" cy="255.2" r="3" fill="#c35a4a"/>
<circle class="point" cx="457.9" cy="233.7" r="3" fill="#c35a4a"/>
<circle class="point" cx="503.7" cy="219.7" r="3" fill="#c35a4a"/>
<circle class="point" cx="528.2" cy="213.5" r="3" fill="#c35a4a"/>
<circle class="point" cx="500.4" cy="224.8" r="3" fill="#c35a4a"/>
<circle class="point" cx="550.5" cy="188.7" r="3" fill="#c35a4a"/>
<circle class="point" cx="572.8" cy="202.2" r="3" fill="#c35a4a"/>
<circle class="point" cx="523.5" cy="198.7" r="3" fill="#c35a4a"/>
<circle class="point" cx="560.1" cy="218.8" r="3" fill="#c35a4a"/>
<circle class="point" cx="579.5" cy="187.9" r="3" fill="#c35a4a"/>
<circle class="point" cx="594.2" cy="190.1" r="3" fill="#c35a4a"/>
<circle class="point" cx="594.8" cy="224.7" r="3" fill="#c35a4a"/>
<circle class="point" cx="552.2" cy="254.7" r="3" fill="#c35a4a"/>
<circle class="point" cx="584.0" cy="230.7" r="3" fill="#c35a4a"/>
<circle class="point" cx="615.8" cy="209.2" r="3" fill="#c35a4a"/>
<circle class="point" cx="582.5" cy="227.2" r="3" fill="#c35a4a"/>
<circle class="point" cx="585.4" cy="235.5" r="3" fill="#c35a4a"/>
<circle class="point" cx="599.4" cy="216.4" r="3" fill="#c35a4a"/>
<circle class="point" cx="603.9" cy="223.7" r="3" fill="#c35a4a"/>
<circle class="point" cx="555.3" cy="241.4" r="3" fill="#c35a4a"/>
<circle class="point" cx="557.2" cy="239.2" r="3" fill="#c35a4a"/>
<circle class="point" cx="602.3" cy="237.8" r="3" fill="#c35a4a"/>
<circle class="point" cx="606.2" cy="245.2" r="3" fill="#c35a4a"/>
<circle class="point" cx="532.4" cy="263.8" r="3" fill="#c35a4a"/>
<circle class="point" cx="455.6" cy="287.7" r="3" fill="#c35a4a"/>
<circle class="point" cx="477.4" cy="264.9" r="3" fill="#c35a4a"/>
<circle class="point" cx="488.1" cy="277.6" r="3" fill="#c35a4a"/>
<circle class="point" cx="422.0" cy="306.0" r="3" fill="#c35a4a"/>
<circle class="point" cx="393.8" cy="288.9" r="3" fill="#c35a4a"/>
<circle class="point" cx="454.0" cy="265.6" r="3" fill="#c35a4a"/>
<line class="fit" x1="84.0" y1="410.3" x2="619.0" y2="193.0" stroke="#c35a4a"/>
<line class="grid" x1="701.0" y1="82" x2="701.0" y2="448"/>
<text x="701.0" y="468" text-anchor="middle">40</text>
<line class="grid" x1="834.8" y1="82" x2="834.8" y2="448"/>
<text x="834.8" y="468" text-anchor="middle">50</text>
<line class="grid" x1="968.5" y1="82" x2="968.5" y2="448"/>
<text x="968.5" y="468" text-anchor="middle">60</text>
<line class="grid" x1="1102.2" y1="82" x2="1102.2" y2="448"/>
<text x="1102.2" y="468" text-anchor="middle">70</text>
<line class="grid" x1="1236.0" y1="82" x2="1236.0" y2="448"/>
<text x="1236.0" y="468" text-anchor="middle">80</text>
<line class="grid" x1="701.0" y1="448.0" x2="1236.0" y2="448.0"/>
<text x="693.0" y="452.0" text-anchor="end">100</text>
<line class="grid" x1="701.0" y1="356.5" x2="1236.0" y2="356.5"/>
<text x="693.0" y="360.5" text-anchor="end">120</text>
<line class="grid" x1="701.0" y1="265.0" x2="1236.0" y2="265.0"/>
<text x="693.0" y="269.0" text-anchor="end">140</text>
<line class="grid" x1="701.0" y1="173.5" x2="1236.0" y2="173.5"/>
<text x="693.0" y="177.5" text-anchor="end">160</text>
<line class="grid" x1="701.0" y1="82.0" x2="1236.0" y2="82.0"/>
<text x="693.0" y="86.0" text-anchor="end">180</text>
<line class="axis" x1="701.0" y1="82" x2="701.0" y2="448"/>
<line class="axis" x1="701.0" y1="448" x2="1236.0" y2="448"/>
<text x="701.0" y="68">下降 n=62 y=72.73+1.268x R2=0.851</text>
<circle class="point" cx="767.2" cy="306.1" r="3" fill="#2f6fbb"/>
<circle class="point" cx="714.5" cy="324.6" r="3" fill="#2f6fbb"/>
<circle class="point" cx="768.5" cy="323.8" r="3" fill="#2f6fbb"/>
<circle class="point" cx="764.2" cy="308.7" r="3" fill="#2f6fbb"/>
<circle class="point" cx="880.9" cy="250.6" r="3" fill="#2f6fbb"/>
<circle class="point" cx="850.1" cy="269.1" r="3" fill="#2f6fbb"/>
<circle class="point" cx="845.6" cy="274.5" r="3" fill="#2f6fbb"/>
<circle class="point" cx="842.5" cy="257.7" r="3" fill="#2f6fbb"/>
<circle class="point" cx="817.0" cy="268.8" r="3" fill="#2f6fbb"/>
<circle class="point" cx="789.7" cy="295.2" r="3" fill="#2f6fbb"/>
<circle class="point" cx="979.9" cy="164.5" r="3" fill="#2f6fbb"/>
<circle class="point" cx="1031.8" cy="132.4" r="3" fill="#2f6fbb"/>
<circle class="point" cx="997.2" cy="158.5" r="3" fill="#2f6fbb"/>
<circle class="point" cx="994.4" cy="133.5" r="3" fill="#2f6fbb"/>
<circle class="point" cx="1156.7" cy="95.0" r="3" fill="#2f6fbb"/>
<circle class="point" cx="1148.8" cy="121.4" r="3" fill="#2f6fbb"/>
<circle class="point" cx="1138.4" cy="132.6" r="3" fill="#2f6fbb"/>
<circle class="point" cx="1136.7" cy="130.8" r="3" fill="#2f6fbb"/>
<circle class="point" cx="1118.4" cy="137.1" r="3" fill="#2f6fbb"/>
<circle class="point" cx="1092.7" cy="161.1" r="3" fill="#2f6fbb"/>
<circle class="point" cx="1047.9" cy="211.9" r="3" fill="#2f6fbb"/>
<circle class="point" cx="966.0" cy="217.9" r="3" fill="#2f6fbb"/>
<circle class="point" cx="937.6" cy="248.6" r="3" fill="#2f6fbb"/>
<circle class="point" cx="927.7" cy="227.4" r="3" fill="#2f6fbb"/>
<circle class="point" cx="1106.7" cy="173.9" r="3" fill="#2f6fbb"/>
<circle class="point" cx="1006.2" cy="215.7" r="3" fill="#2f6fbb"/>
<circle class="point" cx="982.4" cy="222.8" r="3" fill="#2f6fbb"/>
<circle class="point" cx="996.9" cy="234.1" r="3" fill="#2f6fbb"/>
<circle class="point" cx="950.7" cy="252.9" r="3" fill="#2f6fbb"/>
<circle class="point" cx="959.8" cy="246.2" r="3" fill="#2f6fbb"/>
<circle class="point" cx="895.1" cy="271.8" r="3" fill="#2f6fbb"/>
<circle class="point" cx="781.4" cy="366.1" r="3" fill="#2f6fbb"/>
<circle class="point" cx="737.3" cy="343.0" r="3" fill="#2f6fbb"/>
<circle class="point" cx="733.8" cy="344.9" r="3" fill="#2f6fbb"/>
<circle class="point" cx="717.4" cy="330.5" r="3" fill="#2f6fbb"/>
<circle class="point" cx="702.9" cy="339.1" r="3" fill="#2f6fbb"/>
<circle class="point" cx="1025.3" cy="197.2" r="3" fill="#2f6fbb"/>
<circle class="point" cx="1000.0" cy="177.4" r="3" fill="#2f6fbb"/>
<circle class="point" cx="1135.8" cy="136.7" r="3" fill="#2f6fbb"/>
<circle class="point" cx="1102.8" cy="156.1" r="3" fill="#2f6fbb"/>
<circle class="point" cx="1100.1" cy="142.0" r="3" fill="#2f6fbb"/>
<circle class="point" cx="1139.1" cy="123.3" r="3" fill="#2f6fbb"/>
<circle class="point" cx="1169.4" cy="146.6" r="3" fill="#2f6fbb"/>
<circle class="point" cx="1168.5" cy="149.9" r="3" fill="#2f6fbb"/>
<circle class="point" cx="1159.7" cy="160.1" r="3" fill="#2f6fbb"/>
<circle class="point" cx="1185.6" cy="150.7" r="3" fill="#2f6fbb"/>
<circle class="point" cx="1192.9" cy="132.4" r="3" fill="#2f6fbb"/>
<circle class="point" cx="1140.6" cy="160.6" r="3" fill="#2f6fbb"/>
<circle class="point" cx="1161.0" cy="162.6" r="3" fill="#2f6fbb"/>
<circle class="point" cx="1138.9" cy="174.8" r="3" fill="#2f6fbb"/>
<circle class="point" cx="1170.7" cy="164.5" r="3" fill="#2f6fbb"/>
<circle class="point" cx="1120.3" cy="188.6" r="3" fill="#2f6fbb"/>
<circle class="point" cx="1069.2" cy="215.1" r="3" fill="#2f6fbb"/>
<circle class="point" cx="1034.6" cy="227.3" r="3" fill="#2f6fbb"/>
<circle class="point" cx="1020.0" cy="218.4" r="3" fill="#2f6fbb"/>
<circle class="point" cx="1098.7" cy="199.3" r="3" fill="#2f6fbb"/>
<circle class="point" cx="1081.6" cy="204.3" r="3" fill="#2f6fbb"/>
<circle class="point" cx="1023.6" cy="223.7" r="3" fill="#2f6fbb"/>
<circle class="point" cx="1030.9" cy="217.5" r="3" fill="#2f6fbb"/>
<circle class="point" cx="1018.4" cy="220.3" r="3" fill="#2f6fbb"/>
<circle class="point" cx="992.8" cy="231.9" r="3" fill="#2f6fbb"/>
<circle class="point" cx="984.3" cy="218.1" r="3" fill="#2f6fbb"/>
<line class="fit" x1="701.0" y1="340.7" x2="1236.0" y2="108.7" stroke="#2f6fbb"/>
<text x="84" y="494">横轴：国际原油区间均价 USD/bbl；纵轴：国内汽油 USD/bbl。</text>
</svg>