<svg xmlns="http://www.w3.org/2000/svg" width="1280" height="520" viewBox="0 0 1280 520">
<style>
text{font-family:Arial,'Microsoft YaHei',sans-serif;font-size:12px;fill:#222}
.title{font-size:18px;font-weight:700}
.note{fill:#666;font-size:11px}
.axis{stroke:#222;stroke-width:1}
.grid{stroke:#ddd;stroke-width:1}
.fit{stroke-width:2;fill:none}
.point{opacity:.74}
</style>
<text class="title" x="84" y="30">三油算术均价：上升/下降区间线性回归</text>
<text class="note" x="84" y="50">筛选国际油价40-80 USD/bbl；方向按相邻样本国际原油均价变化划分；y=国内汽油，x=国际原油。</text>
<line class="grid" x1="84.0" y1="82" x2="84.0" y2="448"/>
<text x="84.0" y="468" text-anchor="middle">40</text>
<line class="grid" x1="217.8" y1="82" x2="217.8" y2="448"/>
<text x="217.8" y="468" text-anchor="middle">50</text>
<line class="grid" x1="351.5" y1="82" x2="351.5" y2="448"/>
<text x="351.5" y="468" text-anchor="middle">60</text>
<line class="grid" x1="485.2" y1="82" x2="485.2" y2="448"/>
<text x="485.2" y="468" text-anchor="middle">70</text>
<line class="grid" x1="619.0" y1="82" x2="619.0" y2="448"/>
<text x="619.0" y="468" text-anchor="middle">80</text>
<line class="grid" x1="84.0" y1="448.0" x2="619.0" y2="448.0"/>
<text x="76.0" y="452.0" text-anchor="end">120</text>
<line class="grid" x1="84.0" y1="356.5" x2="619.0" y2="356.5"/>
<text x="76.0" y="360.5" text-anchor="end">140</text>
<line class="grid" x1="84.0" y1="265.0" x2="619.0" y2="265.0"/>
<text x="76.0" y="269.0" text-anchor="end">160</text>
<line class="grid" x1="84.0" y1="173.5" x2="619.0" y2="173.5"/>
<text x="76.0" y="177.5" text-anchor="end">180</text>
<line class="grid" x1="84.0" y1="82.0" x2="619.0" y2="82.0"/>
<text x="76.0" y="86.0" text-anchor="end">200</text>
<line class="axis" x1="84.0" y1="82" x2="84.0" y2="448"/>
<line class="axis" x1="84.0" y1="448" x2="619.0" y2="448"/>
<text x="84.0" y="68">上升 n=85 y=76.40+1.270x R2=0.887</text>
<circle class="point" cx="175.9" cy="382.1" r="3" fill="#c35a4a"/>
<circle class="point" cx="197.3" cy="372.1" r="3" fill="#c35a4a"/>
<circle class="point" cx="146.7" cy="399.4" r="3" fill="#c35a4a"/>
<circle class="point" cx="162.4" cy="382.7" r="3" fill="#c35a4a"/>
<circle class="point" cx="191.0" cy="370.1" r="3" fill="#c35a4a"/>
<circle class="point" cx="168.3" cy="400.2" r="3" fill="#c35a4a"/>
<circle class="point" cx="241.7" cy="366.0" r="3" fill="#c35a4a"/>
<circle class="point" cx="256.1" cy="358.1" r="3" fill="#c35a4a"/>
<circle class="point" cx="266.2" cy="331.3" r="3" fill="#c35a4a"/>
<circle class="point" cx="272.0" cy="330.3" r="3" fill="#c35a4a"/>
<circle class="point" cx="254.3" cy="342.5" r="3" fill="#c35a4a"/>
<circle class="point" cx="228.8" cy="349.2" r="3" fill="#c35a4a"/>
<circle class="point" cx="171.3" cy="373.5" r="3" fill="#c35a4a"/>
<circle class="point" cx="211.9" cy="353.7" r="3" fill="#c35a4a"/>
<circle class="point" cx="226.1" cy="327.4" r="3" fill="#c35a4a"/>
<circle class="point" cx="273.1" cy="317.8" r="3" fill="#c35a4a"/>
<circle class="point" cx="286.5" cy="302.2" r="3" fill="#c35a4a"/>
<circle class="point" cx="353.2" cy="276.0" r="3" fill="#c35a4a"/>
<circle class="point" cx="363.1" cy="256.0" r="3" fill="#c35a4a"/>
<circle class="point" cx="425.4" cy="233.4" r="3" fill="#c35a4a"/>
<circle class="point" cx="442.3" cy="209.9" r="3" fill="#c35a4a"/>
<circle class="point" cx="399.9" cy="225.0" r="3" fill="#c35a4a"/>
<circle class="point" cx="440.9" cy="217.7" r="3" fill="#c35a4a"/>
<circle class="point" cx="485.1" cy="199.7" r="3" fill="#c35a4a"/>
<circle class="point" cx="514.6" cy="190.0" r="3" fill="#c35a4a"/>
<circle class="point" cx="549.3" cy="171.9" r="3" fill="#c35a4a"/>
<circle class="point" cx="506.7" cy="212.9" r="3" fill="#c35a4a"/>
<circle class="point" cx="553.2" cy="193.5" r="3" fill="#c35a4a"/>
<circle class="point" cx="510.8" cy="222.3" r="3" fill="#c35a4a"/>
<circle class="point" cx="520.5" cy="211.8" r="3" fill="#c35a4a"/>
<circle class="point" cx="540.2" cy="200.6" r="3" fill="#c35a4a"/>
<circle class="point" cx="580.3" cy="179.7" r="3" fill="#c35a4a"/>
<circle class="point" cx="605.6" cy="172.0" r="3" fill="#c35a4a"/>
<circle class="point" cx="280.2" cy="318.9" r="3" fill="#c35a4a"/>
<circle class="point" cx="318.7" cy="293.4" r="3" fill="#c35a4a"/>
<circle class="point" cx="344.7" cy="293.0" r="3" fill="#c35a4a"/>
<circle class="point" cx="381.4" cy="260.8" r="3" fill="#c35a4a"/>
<circle class="point" cx="401.6" cy="254.0" r="3" fill="#c35a4a"/>
<circle class="point" cx="454.6" cy="257.8" r="3" fill="#c35a4a"/>
<circle class="point" cx="473.2" cy="242.5" r="3" fill="#c35a4a"/>
<circle class="point" cx="376.3" cy="300.0" r="3" fill="#c35a4a"/>
<circle class="point" cx="321.6" cy="341.9" r="3" fill="#c35a4a"/>
<circle class="point" cx="356.9" cy="326.4" r="3" fill="#c35a4a"/>
<circle class="point" cx="336.9" cy="322.1" r="3" fill="#c35a4a"/>
<circle class="point" cx="353.1" cy="317.6" r="3" fill="#c35a4a"/>
<circle class="point" cx="366.6" cy="316.0" r="3" fill="#c35a4a"/>
<circle class="point" cx="404.8" cy="285.3" r="3" fill="#c35a4a"/>
<circle class="point" cx="123.8" cy="420.2" r="3" fill="#c35a4a"/>
<circle class="point" cx="110.1" cy="412.1" r="3" fill="#c35a4a"/>
<circle class="point" cx="161.8" cy="385.4" r="3" fill="#c35a4a"/>
<circle class="point" cx="202.1" cy="371.2" r="3" fill="#c35a4a"/>
<circle class="point" cx="210.4" cy="361.5" r="3" fill="#c35a4a"/>
<circle class="point" cx="261.6" cy="339.2" r="3" fill="#c35a4a"/>
<circle class="point" cx="274.4" cy="326.5" r="3" fill="#c35a4a"/>
<circle class="point" cx="342.8" cy="303.0" r="3" fill="#c35a4a"/>
<circle class="point" cx="391.5" cy="279.3" r="3" fill="#c35a4a"/>
<circle class="point" cx="432.7" cy="260.7" r="3" fill="#c35a4a"/>
<circle class="point" cx="390.2" cy="268.9" r="3" fill="#c35a4a"/>
<circle class="point" cx="438.5" cy="255.2" r="3" fill="#c35a4a"/>
<circle class="point" cx="462.2" cy="233.7" r="3" fill="#c35a4a"/>
<circle class="point" cx="522.6" cy="219.7" r="3" fill="#c35a4a"/>
<circle class="point" cx="547.4" cy="213.5" r="3" fill="#c35a4a"/>
<circle class="point" cx="489.4" cy="233.5" r="3" fill="#c35a4a"/>
<circle class="point" cx="508.5" cy="224.8" r="3" fill="#c35a4a"/>
<circle class="point" cx="569.3" cy="188.7" r="3" fill="#c35a4a"/>
<circle class="point" cx="540.7" cy="198.7" r="3" fill="#c35a4a"/>
<circle class="point" cx="570.6" cy="218.8" r="3" fill="#c35a4a"/>
<circle class="point" cx="598.8" cy="187.9" r="3" fill="#c35a4a"/>
<circle class="point" cx="600.3" cy="190.1" r="3" fill="#c35a4a"/>
<circle class="point" cx="616.5" cy="196.3" r="3" fill="#c35a4a"/>
<circle class="point" cx="528.8" cy="254.7" r="3" fill="#c35a4a"/>
<circle class="point" cx="566.3" cy="230.7" r="3" fill="#c35a4a"/>
<circle class="point" cx="609.8" cy="209.2" r="3" fill="#c35a4a"/>
<circle class="point" cx="568.8" cy="227.2" r="3" fill="#c35a4a"/>
<circle class="point" cx="570.7" cy="235.5" r="3" fill="#c35a4a"/>
<circle class="point" cx="606.8" cy="216.4" r="3" fill="#c35a4a"/>
<circle class="point" cx="548.8" cy="241.4" r="3" fill="#c35a4a"/>
<circle class="point" cx="604.1" cy="237.8" r="3" fill="#c35a4a"/>
<circle class="point" cx="523.2" cy="263.8" r="3" fill="#c35a4a"/>
<circle class="point" cx="483.9" cy="287.7" r="3" fill="#c35a4a"/>
<circle class="point" cx="484.7" cy="277.6" r="3" fill="#c35a4a"/>
<circle class="point" cx="399.4" cy="306.0" r="3" fill="#c35a4a"/>
<circle class="point" cx="371.1" cy="309.6" r="3" fill="#c35a4a"/>
<circle class="point" cx="418.1" cy="288.9" r="3" fill="#c35a4a"/>
<circle class="point" cx="455.6" cy="265.6" r="3" fill="#c35a4a"/>
<line class="fit" x1="84.0" y1="415.1" x2="619.0" y2="182.7" stroke="#c35a4a"/>
<line class="grid" x1="701.0" y1="82" x2="701.0" y2="448"/>
<text x="701.0" y="468" text-anchor="middle">40</text>
<line class="grid" x1="834.8" y1="82" x2="834.8" y2="448"/>
<text x="834.8" y="468" text-anchor="middle">50</text>
<line class="grid" x1="968.5" y1="82" x2="968.5" y2="448"/>
<text x="968.5" y="468" text-anchor="middle">60</text>
<line class="grid" x1="1102.2" y1="82" x2="1102.2" y2="448"/>
<text x="1102.2" y="468" text-anchor="middle">70</text>
<line class="grid" x1="1236.0" y1="82" x2="1236.0" y2="448"/>
<text x="1236.0" y="468" text-anchor="middle">80</text>
<line class="grid" x1="701.0" y1="448.0" x2="1236.0" y2="448.0"/>
<text x="693.0" y="452.0" text-anchor="end">100</text>
<line class="grid" x1="701.0" y1="356.5" x2="1236.0" y2="356.5"/>
<text x="693.0" y="360.5" text-anchor="end">120</text>
<line class="grid" x1="701.0" y1="265.0" x2="1236.0" y2="265.0"/>
<text x="693.0" y="269.0" text-anchor="end">140</text>
<line class="grid" x1="701.0" y1="173.5" x2="1236.0" y2="173.5"/>
<text x="693.0" y="177.5" text-anchor="end">160</text>
<line class="grid" x1="701.0" y1="82.0" x2="1236.0" y2="82.0"/>
<text x="693.0" y="86.0" text-anchor="end">180</text>
<line class="axis" x1="701.0" y1="82" x2="701.0" y2="448"/>
<line class="axis" x1="701.0" y1="448" x2="1236.0" y2="448"/>
<text x="701.0" y="68">下降 n=63 y=72.18+1.284x R2=0.900</text>
<circle class="point" cx="783.6" cy="306.1" r="3" fill="#2f6fbb"/>
<circle class="point" cx="719.1" cy="324.6" r="3" fill="#2f6fbb"/>
<circle class="point" cx="769.9" cy="304.6" r="3" fill="#2f6fbb"/>
<circle class="point" cx="776.4" cy="323.8" r="3" fill="#2f6fbb"/>
<circle class="point" cx="880.8" cy="244.3" r="3" fill="#2f6fbb"/>
<circle class="point" cx="874.8" cy="250.6" r="3" fill="#2f6fbb"/>
<circle class="point" cx="831.7" cy="269.1" r="3" fill="#2f6fbb"/>
<circle class="point" cx="830.3" cy="274.5" r="3" fill="#2f6fbb"/>
<circle class="point" cx="811.8" cy="268.8" r="3" fill="#2f6fbb"/>
<circle class="point" cx="773.4" cy="295.2" r="3" fill="#2f6fbb"/>
<circle class="point" cx="1036.0" cy="132.4" r="3" fill="#2f6fbb"/>
<circle class="point" cx="1006.9" cy="158.5" r="3" fill="#2f6fbb"/>
<circle class="point" cx="1123.3" cy="95.0" r="3" fill="#2f6fbb"/>
<circle class="point" cx="1123.3" cy="132.6" r="3" fill="#2f6fbb"/>
<circle class="point" cx="1094.3" cy="137.1" r="3" fill="#2f6fbb"/>
<circle class="point" cx="1148.1" cy="109.8" r="3" fill="#2f6fbb"/>
<circle class="point" cx="1043.4" cy="161.1" r="3" fill="#2f6fbb"/>
<circle class="point" cx="961.3" cy="211.9" r="3" fill="#2f6fbb"/>
<circle class="point" cx="932.3" cy="217.9" r="3" fill="#2f6fbb"/>
<circle class="point" cx="868.7" cy="248.6" r="3" fill="#2f6fbb"/>
<circle class="point" cx="1076.0" cy="173.9" r="3" fill="#2f6fbb"/>
<circle class="point" cx="1072.7" cy="173.0" r="3" fill="#2f6fbb"/>
<circle class="point" cx="974.5" cy="215.7" r="3" fill="#2f6fbb"/>
<circle class="point" cx="972.3" cy="222.8" r="3" fill="#2f6fbb"/>
<circle class="point" cx="973.1" cy="234.1" r="3" fill="#2f6fbb"/>
<circle class="point" cx="934.0" cy="252.9" r="3" fill="#2f6fbb"/>
<circle class="point" cx="942.2" cy="246.2" r="3" fill="#2f6fbb"/>
<circle class="point" cx="983.1" cy="232.5" r="3" fill="#2f6fbb"/>
<circle class="point" cx="887.6" cy="271.8" r="3" fill="#2f6fbb"/>
<circle class="point" cx="751.1" cy="366.1" r="3" fill="#2f6fbb"/>
<circle class="point" cx="726.7" cy="343.0" r="3" fill="#2f6fbb"/>
<circle class="point" cx="723.8" cy="344.9" r="3" fill="#2f6fbb"/>
<circle class="point" cx="710.0" cy="330.5" r="3" fill="#2f6fbb"/>
<circle class="point" cx="1003.1" cy="197.2" r="3" fill="#2f6fbb"/>
<circle class="point" cx="1133.1" cy="136.7" r="3" fill="#2f6fbb"/>
<circle class="point" cx="1101.1" cy="156.1" r="3" fill="#2f6fbb"/>
<circle class="point" cx="1160.8" cy="110.7" r="3" fill="#2f6fbb"/>
<circle class="point" cx="1139.2" cy="123.3" r="3" fill="#2f6fbb"/>
<circle class="point" cx="1173.0" cy="133.2" r="3" fill="#2f6fbb"/>
<circle class="point" cx="1156.2" cy="146.6" r="3" fill="#2f6fbb"/>
<circle class="point" cx="1155.5" cy="149.9" r="3" fill="#2f6fbb"/>
<circle class="point" cx="1145.6" cy="160.1" r="3" fill="#2f6fbb"/>
<circle class="point" cx="1210.8" cy="117.0" r="3" fill="#2f6fbb"/>
<circle class="point" cx="1164.6" cy="150.7" r="3" fill="#2f6fbb"/>
<circle class="point" cx="1214.3" cy="132.2" r="3" fill="#2f6fbb"/>
<circle class="point" cx="1198.8" cy="132.4" r="3" fill="#2f6fbb"/>
<circle class="point" cx="1133.0" cy="160.6" r="3" fill="#2f6fbb"/>
<circle class="point" cx="1151.5" cy="147.7" r="3" fill="#2f6fbb"/>
<circle class="point" cx="1142.8" cy="162.6" r="3" fill="#2f6fbb"/>
<circle class="point" cx="1132.6" cy="174.8" r="3" fill="#2f6fbb"/>
<circle class="point" cx="1187.8" cy="153.7" r="3" fill="#2f6fbb"/>
<circle class="point" cx="1135.8" cy="164.5" r="3" fill="#2f6fbb"/>
<circle class="point" cx="1104.7" cy="188.6" r="3" fill="#2f6fbb"/>
<circle class="point" cx="1042.3" cy="215.1" r="3" fill="#2f6fbb"/>
<circle class="point" cx="1023.3" cy="227.3" r="3" fill="#2f6fbb"/>
<circle class="point" cx="1022.4" cy="218.4" r="3" fill="#2f6fbb"/>
<circle class="point" cx="1097.2" cy="173.4" r="3" fill="#2f6fbb"/>
<circle class="point" cx="1080.2" cy="199.3" r="3" fill="#2f6fbb"/>
<circle class="point" cx="1054.1" cy="204.3" r="3" fill="#2f6fbb"/>
<circle class="point" cx="1000.3" cy="223.7" r="3" fill="#2f6fbb"/>
<circle class="point" cx="1004.0" cy="217.5" r="3" fill="#2f6fbb"/>
<circle class="point" cx="998.6" cy="220.3" r="3" fill="#2f6fbb"/>
<circle class="point" cx="971.9" cy="231.9" r="3" fill="#2f6fbb"/>
<line class="fit" x1="701.0" y1="340.2" x2="1236.0" y2="105.2" stroke="#2f6fbb"/>
<text x="84" y="494">横轴：国际原油区间均价 USD/bbl；纵轴：国内汽油 USD/bbl。</text>
</svg>