<svg xmlns="http://www.w3.org/2000/svg" width="1120" height="560" viewBox="0 0 1120 560">
<style>
text{font-family:Arial,'Microsoft YaHei',sans-serif;font-size:12px;fill:#222}
.title{font-size:18px;font-weight:700}
.note{fill:#666;font-size:11px}
.axis{stroke:#222;stroke-width:1}
.grid{stroke:#ddd;stroke-width:1}
.bar{fill:#2f6fbb}
</style>
<text class="title" x="82" y="30">成品油调价周期自然日间隔直方图</text>
<text class="note" x="82" y="50">样本数：319；周期范围：7-291 天；周期 = 当前调价日期 - 上次调价日期。</text>
<line class="grid" x1="82" y1="482.0" x2="1084" y2="482.0"/>
<text x="74" y="486.0" text-anchor="end">0</text>
<line class="grid" x1="82" y1="343.3" x2="1084" y2="343.3"/>
<text x="74" y="347.3" text-anchor="end">50</text>
<line class="grid" x1="82" y1="204.7" x2="1084" y2="204.7"/>
<text x="74" y="208.7" text-anchor="end">100</text>
<line class="grid" x1="82" y1="66.0" x2="1084" y2="66.0"/>
<text x="74" y="70.0" text-anchor="end">150</text>
<rect class="bar" x="82.0" y="479.2" width="14.7" height="2.8"/>
<text x="89.4" y="475.2" text-anchor="middle">1</text>
<text x="89.4" y="514" text-anchor="middle">7</text>
<rect class="bar" x="98.7" y="476.5" width="14.7" height="5.5"/>
<text x="106.1" y="472.5" text-anchor="middle">2</text>
<rect class="bar" x="115.5" y="473.7" width="14.7" height="8.3"/>
<text x="122.8" y="469.7" text-anchor="middle">3</text>
<rect class="bar" x="132.2" y="454.3" width="14.7" height="27.7"/>
<text x="139.6" y="450.3" text-anchor="middle">10</text>
<rect class="bar" x="148.9" y="127.0" width="14.7" height="355.0"/>
<text x="156.3" y="123.0" text-anchor="middle">128</text>
<text x="156.3" y="514" text-anchor="middle">14</text>
<rect class="bar" x="165.7" y="404.3" width="14.7" height="77.7"/>
<text x="173.0" y="400.3" text-anchor="middle">28</text>
<rect class="bar" x="182.4" y="473.7" width="14.7" height="8.3"/>
<text x="189.8" y="469.7" text-anchor="middle">3</text>
<rect class="bar" x="199.1" y="448.7" width="14.7" height="33.3"/>
<text x="206.5" y="444.7" text-anchor="middle">12</text>
<rect class="bar" x="215.9" y="470.9" width="14.7" height="11.1"/>
<text x="223.2" y="466.9" text-anchor="middle">4</text>
<text x="223.2" y="514" text-anchor="middle">18</text>
<rect class="bar" x="232.6" y="473.7" width="14.7" height="8.3"/>
<text x="240.0" y="469.7" text-anchor="middle">3</text>
<rect class="bar" x="249.3" y="470.9" width="14.7" height="11.1"/>
<text x="256.7" y="466.9" text-anchor="middle">4</text>
<rect class="bar" x="266.1" y="476.5" width="14.7" height="5.5"/>
<text x="273.4" y="472.5" text-anchor="middle">2</text>
<rect class="bar" x="282.8" y="479.2" width="14.7" height="2.8"/>
<text x="290.2" y="475.2" text-anchor="middle">1</text>
<text x="290.2" y="514" text-anchor="middle">22</text>
<rect class="bar" x="299.5" y="479.2" width="14.7" height="2.8"/>
<text x="306.9" y="475.2" text-anchor="middle">1</text>
<rect class="bar" x="316.3" y="479.2" width="14.7" height="2.8"/>
<text x="323.6" y="475.2" text-anchor="middle">1</text>
<rect class="bar" x="333.0" y="479.2" width="14.7" height="2.8"/>
<text x="340.4" y="475.2" text-anchor="middle">1</text>
<rect class="bar" x="349.7" y="479.2" width="14.7" height="2.8"/>
<text x="357.1" y="475.2" text-anchor="middle">1</text>
<text x="357.1" y="514" text-anchor="middle">27</text>
<rect class="bar" x="366.5" y="412.7" width="14.7" height="69.3"/>
<text x="373.8" y="408.7" text-anchor="middle">25</text>
<rect class="bar" x="383.2" y="451.5" width="14.7" height="30.5"/>
<text x="390.6" y="447.5" text-anchor="middle">11</text>
<rect class="bar" x="399.9" y="465.4" width="14.7" height="16.6"/>
<text x="407.3" y="461.4" text-anchor="middle">6</text>
<rect class="bar" x="416.7" y="470.9" width="14.7" height="11.1"/>
<text x="424.0" y="466.9" text-anchor="middle">4</text>
<text x="424.0" y="514" text-anchor="middle">31</text>
<rect class="bar" x="433.4" y="468.1" width="14.7" height="13.9"/>
<text x="440.8" y="464.1" text-anchor="middle">5</text>
<rect class="bar" x="450.1" y="465.4" width="14.7" height="16.6"/>
<text x="457.5" y="461.4" text-anchor="middle">6</text>
<rect class="bar" x="466.9" y="465.4" width="14.7" height="16.6"/>
<text x="474.2" y="461.4" text-anchor="middle">6</text>
<rect class="bar" x="483.6" y="476.5" width="14.7" height="5.5"/>
<text x="491.0" y="472.5" text-anchor="middle">2</text>
<text x="491.0" y="514" text-anchor="middle">35</text>
<rect class="bar" x="500.3" y="476.5" width="14.7" height="5.5"/>
<text x="507.7" y="472.5" text-anchor="middle">2</text>
<rect class="bar" x="517.1" y="473.7" width="14.7" height="8.3"/>
<text x="524.4" y="469.7" text-anchor="middle">3</text>
<rect class="bar" x="533.8" y="479.2" width="14.7" height="2.8"/>
<text x="541.2" y="475.2" text-anchor="middle">1</text>
<rect class="bar" x="550.5" y="479.2" width="14.7" height="2.8"/>
<text x="557.9" y="475.2" text-anchor="middle">1</text>
<text x="557.9" y="514" text-anchor="middle">41</text>
<rect class="bar" x="567.3" y="465.4" width="14.7" height="16.6"/>
<text x="574.6" y="461.4" text-anchor="middle">6</text>
<rect class="bar" x="584.0" y="476.5" width="14.7" height="5.5"/>
<text x="591.4" y="472.5" text-anchor="middle">2</text>
<rect class="bar" x="600.7" y="479.2" width="14.7" height="2.8"/>
<text x="608.1" y="475.2" text-anchor="middle">1</text>
<rect class="bar" x="617.5" y="468.1" width="14.7" height="13.9"/>
<text x="624.8" y="464.1" text-anchor="middle">5</text>
<text x="624.8" y="514" text-anchor="middle">48</text>
<rect class="bar" x="634.2" y="479.2" width="14.7" height="2.8"/>
<text x="641.6" y="475.2" text-anchor="middle">1</text>
<rect class="bar" x="650.9" y="479.2" width="14.7" height="2.8"/>
<text x="658.3" y="475.2" text-anchor="middle">1</text>
<rect class="bar" x="667.7" y="476.5" width="14.7" height="5.5"/>
<text x="675.0" y="472.5" text-anchor="middle">2</text>
<rect class="bar" x="684.4" y="479.2" width="14.7" height="2.8"/>
<text x="691.8" y="475.2" text-anchor="middle">1</text>
<text x="691.8" y="514" text-anchor="middle">59</text>
<rect class="bar" x="701.1" y="479.2" width="14.7" height="2.8"/>
<text x="708.5" y="475.2" text-anchor="middle">1</text>
<rect class="bar" x="717.9" y="479.2" width="14.7" height="2.8"/>
<text x="725.2" y="475.2" text-anchor="middle">1</text>
<rect class="bar" x="734.6" y="479.2" width="14.7" height="2.8"/>
<text x="742.0" y="475.2" text-anchor="middle">1</text>
<rect class="bar" x="751.3" y="479.2" width="14.7" height="2.8"/>
<text x="758.7" y="475.2" text-anchor="middle">1</text>
<text x="758.7" y="514" text-anchor="middle">70</text>
<rect class="bar" x="768.1" y="479.2" width="14.7" height="2.8"/>
<text x="775.4" y="475.2" text-anchor="middle">1</text>
<rect class="bar" x="784.8" y="479.2" width="14.7" height="2.8"/>
<text x="792.2" y="475.2" text-anchor="middle">1</text>
<rect class="bar" x="801.5" y="479.2" width="14.7" height="2.8"/>
<text x="808.9" y="475.2" text-anchor="middle">1</text>
<rect class="bar" x="818.3" y="479.2" width="14.7" height="2.8"/>
<text x="825.6" y="475.2" text-anchor="middle">1</text>
<text x="825.6" y="514" text-anchor="middle">103</text>
<rect class="bar" x="835.0" y="479.2" width="14.7" height="2.8"/>
<text x="842.4" y="475.2" text-anchor="middle">1</text>
<rect class="bar" x="851.7" y="479.2" width="14.7" height="2.8"/>
<text x="859.1" y="475.2" text-anchor="middle">1</text>
<rect class="bar" x="868.5" y="479.2" width="14.7" height="2.8"/>
<text x="875.8" y="475.2" text-anchor="middle">1</text>
<rect class="bar" x="885.2" y="479.2" width="14.7" height="2.8"/>
<text x="892.6" y="475.2" text-anchor="middle">1</text>
<text x="892.6" y="514" text-anchor="middle">122</text>
<rect class="bar" x="901.9" y="479.2" width="14.7" height="2.8"/>
<text x="909.3" y="475.2" text-anchor="middle">1</text>
<rect class="bar" x="918.7" y="479.2" width="14.7" height="2.8"/>
<text x="926.0" y="475.2" text-anchor="middle">1</text>
<rect class="bar" x="935.4" y="479.2" width="14.7" height="2.8"/>
<text x="942.8" y="475.2" text-anchor="middle">1</text>
<rect class="bar" x="952.1" y="479.2" width="14.7" height="2.8"/>
<text x="959.5" y="475.2" text-anchor="middle">1</text>
<text x="959.5" y="514" text-anchor="middle">160</text>
<rect class="bar" x="968.9" y="479.2" width="14.7" height="2.8"/>
<text x="976.2" y="475.2" text-anchor="middle">1</text>
<rect class="bar" x="985.6" y="479.2" width="14.7" height="2.8"/>
<text x="993.0" y="475.2" text-anchor="middle">1</text>
<rect class="bar" x="1002.3" y="479.2" width="14.7" height="2.8"/>
<text x="1009.7" y="475.2" text-anchor="middle">1</text>
<rect class="bar" x="1019.1" y="479.2" width="14.7" height="2.8"/>
<text x="1026.4" y="475.2" text-anchor="middle">1</text>
<text x="1026.4" y="514" text-anchor="middle">232</text>
<rect class="bar" x="1035.8" y="479.2" width="14.7" height="2.8"/>
<text x="1043.2" y="475.2" text-anchor="middle">1</text>
<rect class="bar" x="1052.5" y="479.2" width="14.7" height="2.8"/>
<text x="1059.9" y="475.2" text-anchor="middle">1</text>
<rect class="bar" x="1069.3" y="479.2" width="14.7" height="2.8"/>
<text x="1076.6" y="475.2" text-anchor="middle">1</text>
<text x="1076.6" y="514" text-anchor="middle">291</text>
<line class="axis" x1="82" y1="66" x2="82" y2="482"/>
<line class="axis" x1="82" y1="482" x2="1084" y2="482"/>
<text x="82" y="542">横轴：相邻调价日期自然日间隔（天）；纵轴：出现次数。</text>
</svg>