<svg xmlns="http://www.w3.org/2000/svg" width="1120" height="560" viewBox="0 0 1120 560">
<style>
text{font-family:Arial,'Microsoft YaHei',sans-serif;font-size:12px;fill:#222}
.title{font-size:18px;font-weight:700}
.note{fill:#666;font-size:11px}
.axis{stroke:#222;stroke-width:1}
.grid{stroke:#ddd;stroke-width:1}
.bar{fill:#2f6fbb}
</style>
<text class="title" x="82" y="30">2016年以来成品油调价周期自然日间隔直方图</text>
<text class="note" x="82" y="50">样本数：201；周期范围：11-104 天；周期 = 当前调价日期 - 上次调价日期。</text>
<line class="grid" x1="82" y1="482.0" x2="1084" y2="482.0"/>
<text x="74" y="486.0" text-anchor="end">0</text>
<line class="grid" x1="82" y1="343.3" x2="1084" y2="343.3"/>
<text x="74" y="347.3" text-anchor="end">50</text>
<line class="grid" x1="82" y1="204.7" x2="1084" y2="204.7"/>
<text x="74" y="208.7" text-anchor="end">100</text>
<line class="grid" x1="82" y1="66.0" x2="1084" y2="66.0"/>
<text x="74" y="70.0" text-anchor="end">150</text>
<rect class="bar" x="82.0" y="479.2" width="39.8" height="2.8"/>
<text x="101.9" y="475.2" text-anchor="middle">1</text>
<text x="101.9" y="514" text-anchor="middle">11</text>
<rect class="bar" x="123.8" y="473.7" width="39.8" height="8.3"/>
<text x="143.8" y="469.7" text-anchor="middle">3</text>
<rect class="bar" x="165.7" y="459.8" width="39.8" height="22.2"/>
<text x="185.6" y="455.8" text-anchor="middle">8</text>
<text x="185.6" y="514" text-anchor="middle">13</text>
<rect class="bar" x="207.5" y="190.8" width="39.8" height="291.2"/>
<text x="227.4" y="186.8" text-anchor="middle">105</text>
<rect class="bar" x="249.3" y="421.0" width="39.8" height="61.0"/>
<text x="269.2" y="417.0" text-anchor="middle">22</text>
<text x="269.2" y="514" text-anchor="middle">15</text>
<rect class="bar" x="291.2" y="476.5" width="39.8" height="5.5"/>
<text x="311.1" y="472.5" text-anchor="middle">2</text>
<rect class="bar" x="333.0" y="454.3" width="39.8" height="27.7"/>
<text x="352.9" y="450.3" text-anchor="middle">10</text>
<text x="352.9" y="514" text-anchor="middle">17</text>
<rect class="bar" x="374.8" y="476.5" width="39.8" height="5.5"/>
<text x="394.8" y="472.5" text-anchor="middle">2</text>
<rect class="bar" x="416.7" y="473.7" width="39.8" height="8.3"/>
<text x="436.6" y="469.7" text-anchor="middle">3</text>
<text x="436.6" y="514" text-anchor="middle">19</text>
<rect class="bar" x="458.5" y="470.9" width="39.8" height="11.1"/>
<text x="478.4" y="466.9" text-anchor="middle">4</text>
<rect class="bar" x="500.3" y="476.5" width="39.8" height="5.5"/>
<text x="520.2" y="472.5" text-anchor="middle">2</text>
<text x="520.2" y="514" text-anchor="middle">21</text>
<rect class="bar" x="542.2" y="437.6" width="39.8" height="44.4"/>
<text x="562.1" y="433.6" text-anchor="middle">16</text>
<rect class="bar" x="584.0" y="473.7" width="39.8" height="8.3"/>
<text x="603.9" y="469.7" text-anchor="middle">3</text>
<text x="603.9" y="514" text-anchor="middle">29</text>
<rect class="bar" x="625.8" y="479.2" width="39.8" height="2.8"/>
<text x="645.8" y="475.2" text-anchor="middle">1</text>
<rect class="bar" x="667.7" y="479.2" width="39.8" height="2.8"/>
<text x="687.6" y="475.2" text-anchor="middle">1</text>
<text x="687.6" y="514" text-anchor="middle">32</text>
<rect class="bar" x="709.5" y="473.7" width="39.8" height="8.3"/>
<text x="729.4" y="469.7" text-anchor="middle">3</text>
<rect class="bar" x="751.3" y="473.7" width="39.8" height="8.3"/>
<text x="771.2" y="469.7" text-anchor="middle">3</text>
<text x="771.2" y="514" text-anchor="middle">34</text>
<rect class="bar" x="793.2" y="479.2" width="39.8" height="2.8"/>
<text x="813.1" y="475.2" text-anchor="middle">1</text>
<rect class="bar" x="835.0" y="468.1" width="39.8" height="13.9"/>
<text x="854.9" y="464.1" text-anchor="middle">5</text>
<text x="854.9" y="514" text-anchor="middle">42</text>
<rect class="bar" x="876.8" y="476.5" width="39.8" height="5.5"/>
<text x="896.8" y="472.5" text-anchor="middle">2</text>
<rect class="bar" x="918.7" y="479.2" width="39.8" height="2.8"/>
<text x="938.6" y="475.2" text-anchor="middle">1</text>
<text x="938.6" y="514" text-anchor="middle">48</text>
<rect class="bar" x="960.5" y="479.2" width="39.8" height="2.8"/>
<text x="980.4" y="475.2" text-anchor="middle">1</text>
<rect class="bar" x="1002.3" y="479.2" width="39.8" height="2.8"/>
<text x="1022.2" y="475.2" text-anchor="middle">1</text>
<text x="1022.2" y="514" text-anchor="middle">103</text>
<rect class="bar" x="1044.2" y="479.2" width="39.8" height="2.8"/>
<text x="1064.1" y="475.2" text-anchor="middle">1</text>
<text x="1064.1" y="514" text-anchor="middle">104</text>
<line class="axis" x1="82" y1="66" x2="82" y2="482"/>
<line class="axis" x1="82" y1="482" x2="1084" y2="482"/>
<text x="82" y="542">横轴：相邻调价日期自然日间隔（天）；纵轴：出现次数。</text>
</svg>