<svg xmlns="http://www.w3.org/2000/svg" width="1280" height="760" viewBox="0 0 1280 760">
<style>
text{font-family:Arial,'Microsoft YaHei',sans-serif;font-size:12px;fill:#222}
.title{font-size:18px;font-weight:700}
.note{fill:#666;font-size:11px}
.axis{stroke:#222;stroke-width:1}
.grid{stroke:#ddd;stroke-width:1}
.fit{stroke-width:2;fill:none}
.point{opacity:.72}
</style>
<text class="title" x="80" y="30">40-80美元/桶区间：国内汽油缩放拟合国际原油</text>
<text class="note" x="80" y="50">模型为 y = scale * x；x 为国内汽油价格(USD/bbl)，y 为对应国际原油区间均价。</text>
<line class="grid" x1="80.0" y1="78.0" x2="80.0" y2="337.0"/>
<text x="80.0" y="357.0" text-anchor="middle">100</text>
<line class="grid" x1="188.4" y1="78.0" x2="188.4" y2="337.0"/>
<text x="188.4" y="357.0" text-anchor="middle">120</text>
<line class="grid" x1="296.8" y1="78.0" x2="296.8" y2="337.0"/>
<text x="296.8" y="357.0" text-anchor="middle">140</text>
<line class="grid" x1="405.2" y1="78.0" x2="405.2" y2="337.0"/>
<text x="405.2" y="357.0" text-anchor="middle">160</text>
<line class="grid" x1="513.6" y1="78.0" x2="513.6" y2="337.0"/>
<text x="513.6" y="357.0" text-anchor="middle">180</text>
<line class="grid" x1="622.0" y1="78.0" x2="622.0" y2="337.0"/>
<text x="622.0" y="357.0" text-anchor="middle">200</text>
<line class="grid" x1="80.0" y1="337.0" x2="622.0" y2="337.0"/>
<text x="72.0" y="341.0" text-anchor="end">40</text>
<line class="grid" x1="80.0" y1="272.2" x2="622.0" y2="272.2"/>
<text x="72.0" y="276.2" text-anchor="end">50</text>
<line class="grid" x1="80.0" y1="207.5" x2="622.0" y2="207.5"/>
<text x="72.0" y="211.5" text-anchor="end">60</text>
<line class="grid" x1="80.0" y1="142.8" x2="622.0" y2="142.8"/>
<text x="72.0" y="146.8" text-anchor="end">70</text>
<line class="grid" x1="80.0" y1="78.0" x2="622.0" y2="78.0"/>
<text x="72.0" y="82.0" text-anchor="end">80</text>
<line class="axis" x1="80.0" y1="78.0" x2="80.0" y2="337.0"/>
<line class="axis" x1="80.0" y1="337.0" x2="622.0" y2="337.0"/>
<text x="80.0" y="64.0">布伦特 n=142 scale=0.4184</text>
<circle class="point" cx="247.2" cy="306.9" r="3" fill="#2f6fbb"/>
<circle class="point" cx="266.5" cy="283.1" r="3" fill="#2f6fbb"/>
<circle class="point" cx="278.3" cy="276.0" r="3" fill="#2f6fbb"/>
<circle class="point" cx="248.1" cy="293.9" r="3" fill="#2f6fbb"/>
<circle class="point" cx="226.2" cy="325.9" r="3" fill="#2f6fbb"/>
<circle class="point" cx="246.0" cy="297.4" r="3" fill="#2f6fbb"/>
<circle class="point" cx="265.7" cy="285.3" r="3" fill="#2f6fbb"/>
<circle class="point" cx="249.9" cy="293.1" r="3" fill="#2f6fbb"/>
<circle class="point" cx="280.7" cy="281.4" r="3" fill="#2f6fbb"/>
<circle class="point" cx="227.1" cy="301.6" r="3" fill="#2f6fbb"/>
<circle class="point" cx="245.1" cy="292.7" r="3" fill="#2f6fbb"/>
<circle class="point" cx="285.5" cy="255.6" r="3" fill="#2f6fbb"/>
<circle class="point" cx="294.9" cy="245.4" r="3" fill="#2f6fbb"/>
<circle class="point" cx="326.7" cy="242.8" r="3" fill="#2f6fbb"/>
<circle class="point" cx="321.3" cy="243.0" r="3" fill="#2f6fbb"/>
<circle class="point" cx="327.9" cy="240.5" r="3" fill="#2f6fbb"/>
<circle class="point" cx="313.8" cy="249.0" r="3" fill="#2f6fbb"/>
<circle class="point" cx="291.9" cy="269.8" r="3" fill="#2f6fbb"/>
<circle class="point" cx="313.4" cy="248.6" r="3" fill="#2f6fbb"/>
<circle class="point" cx="285.5" cy="274.9" r="3" fill="#2f6fbb"/>
<circle class="point" cx="305.4" cy="258.2" r="3" fill="#2f6fbb"/>
<circle class="point" cx="292.3" cy="280.3" r="3" fill="#2f6fbb"/>
<circle class="point" cx="261.0" cy="302.0" r="3" fill="#2f6fbb"/>
<circle class="point" cx="276.7" cy="289.4" r="3" fill="#2f6fbb"/>
<circle class="point" cx="300.1" cy="265.8" r="3" fill="#2f6fbb"/>
<circle class="point" cx="331.3" cy="254.7" r="3" fill="#2f6fbb"/>
<circle class="point" cx="342.6" cy="221.1" r="3" fill="#2f6fbb"/>
<circle class="point" cx="361.1" cy="220.9" r="3" fill="#2f6fbb"/>
<circle class="point" cx="392.2" cy="188.7" r="3" fill="#2f6fbb"/>
<circle class="point" cx="415.9" cy="181.9" r="3" fill="#2f6fbb"/>
<circle class="point" cx="442.7" cy="151.0" r="3" fill="#2f6fbb"/>
<circle class="point" cx="470.4" cy="144.6" r="3" fill="#2f6fbb"/>
<circle class="point" cx="453.9" cy="163.8" r="3" fill="#2f6fbb"/>
<circle class="point" cx="423.0" cy="176.5" r="3" fill="#2f6fbb"/>
<circle class="point" cx="452.6" cy="168.0" r="3" fill="#2f6fbb"/>
<circle class="point" cx="461.3" cy="146.8" r="3" fill="#2f6fbb"/>
<circle class="point" cx="482.5" cy="115.6" r="3" fill="#2f6fbb"/>
<circle class="point" cx="494.1" cy="107.6" r="3" fill="#2f6fbb"/>
<circle class="point" cx="515.5" cy="86.6" r="3" fill="#2f6fbb"/>
<circle class="point" cx="498.2" cy="113.1" r="3" fill="#2f6fbb"/>
<circle class="point" cx="466.9" cy="116.7" r="3" fill="#2f6fbb"/>
<circle class="point" cx="489.9" cy="99.8" r="3" fill="#2f6fbb"/>
<circle class="point" cx="453.6" cy="126.6" r="3" fill="#2f6fbb"/>
<circle class="point" cx="455.8" cy="120.3" r="3" fill="#2f6fbb"/>
<circle class="point" cx="448.4" cy="140.1" r="3" fill="#2f6fbb"/>
<circle class="point" cx="468.2" cy="106.0" r="3" fill="#2f6fbb"/>
<circle class="point" cx="481.5" cy="93.6" r="3" fill="#2f6fbb"/>
<circle class="point" cx="480.7" cy="102.9" r="3" fill="#2f6fbb"/>
<circle class="point" cx="419.9" cy="153.9" r="3" fill="#2f6fbb"/>
<circle class="point" cx="359.7" cy="207.9" r="3" fill="#2f6fbb"/>
<circle class="point" cx="352.6" cy="207.6" r="3" fill="#2f6fbb"/>
<circle class="point" cx="316.3" cy="248.9" r="3" fill="#2f6fbb"/>
<circle class="point" cx="341.3" cy="224.6" r="3" fill="#2f6fbb"/>
<circle class="point" cx="371.6" cy="201.6" r="3" fill="#2f6fbb"/>
<circle class="point" cx="372.1" cy="191.8" r="3" fill="#2f6fbb"/>
<circle class="point" cx="410.1" cy="171.4" r="3" fill="#2f6fbb"/>
<circle class="point" cx="418.2" cy="167.0" r="3" fill="#2f6fbb"/>
<circle class="point" cx="413.7" cy="139.9" r="3" fill="#2f6fbb"/>
<circle class="point" cx="431.8" cy="129.7" r="3" fill="#2f6fbb"/>
<circle class="point" cx="404.8" cy="132.5" r="3" fill="#2f6fbb"/>
<circle class="point" cx="405.8" cy="131.0" r="3" fill="#2f6fbb"/>
<circle class="point" cx="355.2" cy="176.8" r="3" fill="#2f6fbb"/>
<circle class="point" cx="346.7" cy="178.5" r="3" fill="#2f6fbb"/>
<circle class="point" cx="363.7" cy="175.7" r="3" fill="#2f6fbb"/>
<circle class="point" cx="333.4" cy="190.6" r="3" fill="#2f6fbb"/>
<circle class="point" cx="311.1" cy="217.6" r="3" fill="#2f6fbb"/>
<circle class="point" cx="314.1" cy="210.9" r="3" fill="#2f6fbb"/>
<circle class="point" cx="332.5" cy="183.8" r="3" fill="#2f6fbb"/>
<circle class="point" cx="319.0" cy="204.6" r="3" fill="#2f6fbb"/>
<circle class="point" cx="337.6" cy="200.6" r="3" fill="#2f6fbb"/>
<circle class="point" cx="342.9" cy="191.5" r="3" fill="#2f6fbb"/>
<circle class="point" cx="344.8" cy="179.4" r="3" fill="#2f6fbb"/>
<circle class="point" cx="381.2" cy="157.9" r="3" fill="#2f6fbb"/>
<circle class="point" cx="335.3" cy="191.1" r="3" fill="#2f6fbb"/>
<circle class="point" cx="288.7" cy="232.6" r="3" fill="#2f6fbb"/>
<circle class="point" cx="177.0" cy="308.0" r="3" fill="#2f6fbb"/>
<circle class="point" cx="204.4" cy="318.8" r="3" fill="#2f6fbb"/>
<circle class="point" cx="221.4" cy="311.2" r="3" fill="#2f6fbb"/>
<circle class="point" cx="202.1" cy="323.5" r="3" fill="#2f6fbb"/>
<circle class="point" cx="219.2" cy="331.5" r="3" fill="#2f6fbb"/>
<circle class="point" cx="230.9" cy="321.2" r="3" fill="#2f6fbb"/>
<circle class="point" cx="262.5" cy="290.9" r="3" fill="#2f6fbb"/>
<circle class="point" cx="279.4" cy="271.0" r="3" fill="#2f6fbb"/>
<circle class="point" cx="290.8" cy="267.6" r="3" fill="#2f6fbb"/>
<circle class="point" cx="317.3" cy="244.1" r="3" fill="#2f6fbb"/>
<circle class="point" cx="332.3" cy="238.6" r="3" fill="#2f6fbb"/>
<circle class="point" cx="360.1" cy="200.5" r="3" fill="#2f6fbb"/>
<circle class="point" cx="388.3" cy="172.2" r="3" fill="#2f6fbb"/>
<circle class="point" cx="410.2" cy="157.5" r="3" fill="#2f6fbb"/>
<circle class="point" cx="377.1" cy="187.3" r="3" fill="#2f6fbb"/>
<circle class="point" cx="400.6" cy="177.1" r="3" fill="#2f6fbb"/>
<circle class="point" cx="416.8" cy="150.9" r="3" fill="#2f6fbb"/>
<circle class="point" cx="442.2" cy="145.3" r="3" fill="#2f6fbb"/>
<circle class="point" cx="458.9" cy="114.3" r="3" fill="#2f6fbb"/>
<circle class="point" cx="466.2" cy="100.0" r="3" fill="#2f6fbb"/>
<circle class="point" cx="448.8" cy="119.8" r="3" fill="#2f6fbb"/>
<circle class="point" cx="425.8" cy="134.2" r="3" fill="#2f6fbb"/>
<circle class="point" cx="442.5" cy="127.8" r="3" fill="#2f6fbb"/>
<circle class="point" cx="452.8" cy="121.1" r="3" fill="#2f6fbb"/>
<circle class="point" cx="495.6" cy="87.1" r="3" fill="#2f6fbb"/>
<circle class="point" cx="479.6" cy="106.4" r="3" fill="#2f6fbb"/>
<circle class="point" cx="464.6" cy="115.1" r="3" fill="#2f6fbb"/>
<circle class="point" cx="483.8" cy="107.1" r="3" fill="#2f6fbb"/>
<circle class="point" cx="459.9" cy="81.5" r="3" fill="#2f6fbb"/>
<circle class="point" cx="453.0" cy="103.1" r="3" fill="#2f6fbb"/>
<circle class="point" cx="437.1" cy="107.2" r="3" fill="#2f6fbb"/>
<circle class="point" cx="433.2" cy="107.5" r="3" fill="#2f6fbb"/>
<circle class="point" cx="421.0" cy="110.4" r="3" fill="#2f6fbb"/>
<circle class="point" cx="417.4" cy="112.1" r="3" fill="#2f6fbb"/>
<circle class="point" cx="445.9" cy="93.2" r="3" fill="#2f6fbb"/>
<circle class="point" cx="472.1" cy="81.2" r="3" fill="#2f6fbb"/>
<circle class="point" cx="432.2" cy="98.8" r="3" fill="#2f6fbb"/>
<circle class="point" cx="450.0" cy="87.8" r="3" fill="#2f6fbb"/>
<circle class="point" cx="440.2" cy="84.4" r="3" fill="#2f6fbb"/>
<circle class="point" cx="456.2" cy="80.2" r="3" fill="#2f6fbb"/>
<circle class="point" cx="454.1" cy="80.9" r="3" fill="#2f6fbb"/>
<circle class="point" cx="453.8" cy="81.5" r="3" fill="#2f6fbb"/>
<circle class="point" cx="420.4" cy="119.8" r="3" fill="#2f6fbb"/>
<circle class="point" cx="433.1" cy="101.1" r="3" fill="#2f6fbb"/>
<circle class="point" cx="435.8" cy="113.4" r="3" fill="#2f6fbb"/>
<circle class="point" cx="418.1" cy="115.0" r="3" fill="#2f6fbb"/>
<circle class="point" cx="403.6" cy="116.6" r="3" fill="#2f6fbb"/>
<circle class="point" cx="428.6" cy="97.1" r="3" fill="#2f6fbb"/>
<circle class="point" cx="415.9" cy="121.2" r="3" fill="#2f6fbb"/>
<circle class="point" cx="387.3" cy="130.7" r="3" fill="#2f6fbb"/>
<circle class="point" cx="406.7" cy="110.9" r="3" fill="#2f6fbb"/>
<circle class="point" cx="355.9" cy="162.3" r="3" fill="#2f6fbb"/>
<circle class="point" cx="341.5" cy="175.4" r="3" fill="#2f6fbb"/>
<circle class="point" cx="352.0" cy="171.4" r="3" fill="#2f6fbb"/>
<circle class="point" cx="378.3" cy="128.1" r="3" fill="#2f6fbb"/>
<circle class="point" cx="405.3" cy="132.7" r="3" fill="#2f6fbb"/>
<circle class="point" cx="390.2" cy="135.5" r="3" fill="#2f6fbb"/>
<circle class="point" cx="374.7" cy="148.3" r="3" fill="#2f6fbb"/>
<circle class="point" cx="368.7" cy="159.7" r="3" fill="#2f6fbb"/>
<circle class="point" cx="345.7" cy="187.9" r="3" fill="#2f6fbb"/>
<circle class="point" cx="356.7" cy="179.1" r="3" fill="#2f6fbb"/>
<circle class="point" cx="353.1" cy="185.2" r="3" fill="#2f6fbb"/>
<circle class="point" cx="349.8" cy="182.3" r="3" fill="#2f6fbb"/>
<circle class="point" cx="336.0" cy="196.4" r="3" fill="#2f6fbb"/>
<circle class="point" cx="352.4" cy="177.5" r="3" fill="#2f6fbb"/>
<circle class="point" cx="376.8" cy="146.2" r="3" fill="#2f6fbb"/>
<circle class="point" cx="404.5" cy="135.9" r="3" fill="#2f6fbb"/>
<line class="fit" x1="80.0" y1="325.1" x2="574.3" y2="78.0" stroke="#2f6fbb"/>
<line class="grid" x1="696.0" y1="78.0" x2="696.0" y2="337.0"/>
<text x="696.0" y="357.0" text-anchor="middle">100</text>
<line class="grid" x1="804.4" y1="78.0" x2="804.4" y2="337.0"/>
<text x="804.4" y="357.0" text-anchor="middle">120</text>
<line class="grid" x1="912.8" y1="78.0" x2="912.8" y2="337.0"/>
<text x="912.8" y="357.0" text-anchor="middle">140</text>
<line class="grid" x1="1021.2" y1="78.0" x2="1021.2" y2="337.0"/>
<text x="1021.2" y="357.0" text-anchor="middle">160</text>
<line class="grid" x1="1129.6" y1="78.0" x2="1129.6" y2="337.0"/>
<text x="1129.6" y="357.0" text-anchor="middle">180</text>
<line class="grid" x1="1238.0" y1="78.0" x2="1238.0" y2="337.0"/>
<text x="1238.0" y="357.0" text-anchor="middle">200</text>
<line class="grid" x1="696.0" y1="337.0" x2="1238.0" y2="337.0"/>
<text x="688.0" y="341.0" text-anchor="end">40</text>
<line class="grid" x1="696.0" y1="272.2" x2="1238.0" y2="272.2"/>
<text x="688.0" y="276.2" text-anchor="end">50</text>
<line class="grid" x1="696.0" y1="207.5" x2="1238.0" y2="207.5"/>
<text x="688.0" y="211.5" text-anchor="end">60</text>
<line class="grid" x1="696.0" y1="142.8" x2="1238.0" y2="142.8"/>
<text x="688.0" y="146.8" text-anchor="end">70</text>
<line class="grid" x1="696.0" y1="78.0" x2="1238.0" y2="78.0"/>
<text x="688.0" y="82.0" text-anchor="end">80</text>
<line class="axis" x1="696.0" y1="78.0" x2="696.0" y2="337.0"/>
<line class="axis" x1="696.0" y1="337.0" x2="1238.0" y2="337.0"/>
<text x="696.0" y="64.0">迪拜 n=147 scale=0.4113</text>
<circle class="point" cx="863.2" cy="325.6" r="3" fill="#7a5dbb"/>
<circle class="point" cx="882.5" cy="309.5" r="3" fill="#7a5dbb"/>
<circle class="point" cx="894.3" cy="296.1" r="3" fill="#7a5dbb"/>
<circle class="point" cx="864.1" cy="305.0" r="3" fill="#7a5dbb"/>
<circle class="point" cx="842.2" cy="330.4" r="3" fill="#7a5dbb"/>
<circle class="point" cx="862.0" cy="318.7" r="3" fill="#7a5dbb"/>
<circle class="point" cx="881.7" cy="314.1" r="3" fill="#7a5dbb"/>
<circle class="point" cx="865.9" cy="312.6" r="3" fill="#7a5dbb"/>
<circle class="point" cx="896.7" cy="291.7" r="3" fill="#7a5dbb"/>
<circle class="point" cx="843.1" cy="304.3" r="3" fill="#7a5dbb"/>
<circle class="point" cx="861.1" cy="306.4" r="3" fill="#7a5dbb"/>
<circle class="point" cx="901.5" cy="263.3" r="3" fill="#7a5dbb"/>
<circle class="point" cx="910.9" cy="259.5" r="3" fill="#7a5dbb"/>
<circle class="point" cx="942.7" cy="249.1" r="3" fill="#7a5dbb"/>
<circle class="point" cx="937.3" cy="249.1" r="3" fill="#7a5dbb"/>
<circle class="point" cx="943.9" cy="245.2" r="3" fill="#7a5dbb"/>
<circle class="point" cx="929.8" cy="249.9" r="3" fill="#7a5dbb"/>
<circle class="point" cx="907.9" cy="264.8" r="3" fill="#7a5dbb"/>
<circle class="point" cx="929.4" cy="254.6" r="3" fill="#7a5dbb"/>
<circle class="point" cx="901.5" cy="267.0" r="3" fill="#7a5dbb"/>
<circle class="point" cx="921.4" cy="268.5" r="3" fill="#7a5dbb"/>
<circle class="point" cx="908.3" cy="280.9" r="3" fill="#7a5dbb"/>
<circle class="point" cx="877.0" cy="294.1" r="3" fill="#7a5dbb"/>
<circle class="point" cx="892.7" cy="292.9" r="3" fill="#7a5dbb"/>
<circle class="point" cx="916.1" cy="280.1" r="3" fill="#7a5dbb"/>
<circle class="point" cx="947.3" cy="265.3" r="3" fill="#7a5dbb"/>
<circle class="point" cx="958.6" cy="249.2" r="3" fill="#7a5dbb"/>
<circle class="point" cx="977.1" cy="236.5" r="3" fill="#7a5dbb"/>
<circle class="point" cx="1008.2" cy="200.7" r="3" fill="#7a5dbb"/>
<circle class="point" cx="1031.9" cy="202.0" r="3" fill="#7a5dbb"/>
<circle class="point" cx="1058.7" cy="172.4" r="3" fill="#7a5dbb"/>
<circle class="point" cx="1086.4" cy="167.8" r="3" fill="#7a5dbb"/>
<circle class="point" cx="1069.9" cy="176.8" r="3" fill="#7a5dbb"/>
<circle class="point" cx="1039.0" cy="193.6" r="3" fill="#7a5dbb"/>
<circle class="point" cx="1068.6" cy="195.0" r="3" fill="#7a5dbb"/>
<circle class="point" cx="1077.3" cy="167.7" r="3" fill="#7a5dbb"/>
<circle class="point" cx="1098.5" cy="155.3" r="3" fill="#7a5dbb"/>
<circle class="point" cx="1110.1" cy="131.8" r="3" fill="#7a5dbb"/>
<circle class="point" cx="1131.5" cy="113.2" r="3" fill="#7a5dbb"/>
<circle class="point" cx="1114.2" cy="116.4" r="3" fill="#7a5dbb"/>
<circle class="point" cx="1082.9" cy="120.2" r="3" fill="#7a5dbb"/>
<circle class="point" cx="1105.9" cy="114.3" r="3" fill="#7a5dbb"/>
<circle class="point" cx="1069.6" cy="125.3" r="3" fill="#7a5dbb"/>
<circle class="point" cx="1071.8" cy="126.1" r="3" fill="#7a5dbb"/>
<circle class="point" cx="1064.4" cy="134.9" r="3" fill="#7a5dbb"/>
<circle class="point" cx="1084.2" cy="124.6" r="3" fill="#7a5dbb"/>
<circle class="point" cx="1097.5" cy="104.2" r="3" fill="#7a5dbb"/>
<circle class="point" cx="1122.3" cy="93.7" r="3" fill="#7a5dbb"/>
<circle class="point" cx="1096.7" cy="91.7" r="3" fill="#7a5dbb"/>
<circle class="point" cx="1035.9" cy="147.4" r="3" fill="#7a5dbb"/>
<circle class="point" cx="975.7" cy="169.0" r="3" fill="#7a5dbb"/>
<circle class="point" cx="968.6" cy="208.7" r="3" fill="#7a5dbb"/>
<circle class="point" cx="932.3" cy="222.4" r="3" fill="#7a5dbb"/>
<circle class="point" cx="957.3" cy="227.2" r="3" fill="#7a5dbb"/>
<circle class="point" cx="987.6" cy="213.4" r="3" fill="#7a5dbb"/>
<circle class="point" cx="988.1" cy="193.4" r="3" fill="#7a5dbb"/>
<circle class="point" cx="1026.1" cy="176.8" r="3" fill="#7a5dbb"/>
<circle class="point" cx="1034.2" cy="164.0" r="3" fill="#7a5dbb"/>
<circle class="point" cx="1029.7" cy="146.2" r="3" fill="#7a5dbb"/>
<circle class="point" cx="1047.8" cy="138.4" r="3" fill="#7a5dbb"/>
<circle class="point" cx="1020.8" cy="140.6" r="3" fill="#7a5dbb"/>
<circle class="point" cx="1021.8" cy="140.1" r="3" fill="#7a5dbb"/>
<circle class="point" cx="971.2" cy="189.2" r="3" fill="#7a5dbb"/>
<circle class="point" cx="962.7" cy="200.8" r="3" fill="#7a5dbb"/>
<circle class="point" cx="979.7" cy="190.7" r="3" fill="#7a5dbb"/>
<circle class="point" cx="949.4" cy="193.8" r="3" fill="#7a5dbb"/>
<circle class="point" cx="927.1" cy="216.1" r="3" fill="#7a5dbb"/>
<circle class="point" cx="930.1" cy="215.6" r="3" fill="#7a5dbb"/>
<circle class="point" cx="948.5" cy="207.1" r="3" fill="#7a5dbb"/>
<circle class="point" cx="935.0" cy="211.7" r="3" fill="#7a5dbb"/>
<circle class="point" cx="953.6" cy="208.3" r="3" fill="#7a5dbb"/>
<circle class="point" cx="958.9" cy="199.2" r="3" fill="#7a5dbb"/>
<circle class="point" cx="960.8" cy="197.2" r="3" fill="#7a5dbb"/>
<circle class="point" cx="997.2" cy="181.1" r="3" fill="#7a5dbb"/>
<circle class="point" cx="951.3" cy="180.7" r="3" fill="#7a5dbb"/>
<circle class="point" cx="904.7" cy="243.0" r="3" fill="#7a5dbb"/>
<circle class="point" cx="793.0" cy="298.1" r="3" fill="#7a5dbb"/>
<circle class="point" cx="820.4" cy="319.4" r="3" fill="#7a5dbb"/>
<circle class="point" cx="837.4" cy="314.6" r="3" fill="#7a5dbb"/>
<circle class="point" cx="818.1" cy="321.1" r="3" fill="#7a5dbb"/>
<circle class="point" cx="835.2" cy="329.0" r="3" fill="#7a5dbb"/>
<circle class="point" cx="825.0" cy="336.1" r="3" fill="#7a5dbb"/>
<circle class="point" cx="846.9" cy="321.9" r="3" fill="#7a5dbb"/>
<circle class="point" cx="878.5" cy="302.6" r="3" fill="#7a5dbb"/>
<circle class="point" cx="895.4" cy="276.7" r="3" fill="#7a5dbb"/>
<circle class="point" cx="906.8" cy="273.7" r="3" fill="#7a5dbb"/>
<circle class="point" cx="933.3" cy="245.9" r="3" fill="#7a5dbb"/>
<circle class="point" cx="948.3" cy="240.9" r="3" fill="#7a5dbb"/>
<circle class="point" cx="976.1" cy="213.4" r="3" fill="#7a5dbb"/>
<circle class="point" cx="1004.3" cy="196.9" r="3" fill="#7a5dbb"/>
<circle class="point" cx="1026.2" cy="169.4" r="3" fill="#7a5dbb"/>
<circle class="point" cx="993.1" cy="180.0" r="3" fill="#7a5dbb"/>
<circle class="point" cx="1016.6" cy="192.2" r="3" fill="#7a5dbb"/>
<circle class="point" cx="1032.8" cy="169.8" r="3" fill="#7a5dbb"/>
<circle class="point" cx="1058.2" cy="156.0" r="3" fill="#7a5dbb"/>
<circle class="point" cx="1074.9" cy="133.8" r="3" fill="#7a5dbb"/>
<circle class="point" cx="1082.2" cy="122.0" r="3" fill="#7a5dbb"/>
<circle class="point" cx="1064.8" cy="126.5" r="3" fill="#7a5dbb"/>
<circle class="point" cx="1041.8" cy="142.5" r="3" fill="#7a5dbb"/>
<circle class="point" cx="1058.5" cy="143.8" r="3" fill="#7a5dbb"/>
<circle class="point" cx="1068.8" cy="135.4" r="3" fill="#7a5dbb"/>
<circle class="point" cx="1111.6" cy="111.2" r="3" fill="#7a5dbb"/>
<circle class="point" cx="1095.6" cy="100.4" r="3" fill="#7a5dbb"/>
<circle class="point" cx="1080.6" cy="124.9" r="3" fill="#7a5dbb"/>
<circle class="point" cx="1099.8" cy="124.2" r="3" fill="#7a5dbb"/>
<circle class="point" cx="1075.9" cy="106.5" r="3" fill="#7a5dbb"/>
<circle class="point" cx="1112.5" cy="97.1" r="3" fill="#7a5dbb"/>
<circle class="point" cx="1110.0" cy="90.0" r="3" fill="#7a5dbb"/>
<circle class="point" cx="1069.0" cy="89.7" r="3" fill="#7a5dbb"/>
<circle class="point" cx="1053.1" cy="110.3" r="3" fill="#7a5dbb"/>
<circle class="point" cx="1049.2" cy="110.7" r="3" fill="#7a5dbb"/>
<circle class="point" cx="1037.0" cy="115.0" r="3" fill="#7a5dbb"/>
<circle class="point" cx="1033.4" cy="110.3" r="3" fill="#7a5dbb"/>
<circle class="point" cx="1061.9" cy="94.9" r="3" fill="#7a5dbb"/>
<circle class="point" cx="1087.3" cy="79.6" r="3" fill="#7a5dbb"/>
<circle class="point" cx="1048.2" cy="102.4" r="3" fill="#7a5dbb"/>
<circle class="point" cx="1066.0" cy="95.6" r="3" fill="#7a5dbb"/>
<circle class="point" cx="1056.2" cy="94.3" r="3" fill="#7a5dbb"/>
<circle class="point" cx="1078.8" cy="87.5" r="3" fill="#7a5dbb"/>
<circle class="point" cx="1070.1" cy="85.3" r="3" fill="#7a5dbb"/>
<circle class="point" cx="1069.8" cy="98.9" r="3" fill="#7a5dbb"/>
<circle class="point" cx="1036.4" cy="124.2" r="3" fill="#7a5dbb"/>
<circle class="point" cx="1049.1" cy="108.9" r="3" fill="#7a5dbb"/>
<circle class="point" cx="1051.8" cy="107.9" r="3" fill="#7a5dbb"/>
<circle class="point" cx="1034.1" cy="114.3" r="3" fill="#7a5dbb"/>
<circle class="point" cx="1019.6" cy="125.0" r="3" fill="#7a5dbb"/>
<circle class="point" cx="1053.4" cy="86.1" r="3" fill="#7a5dbb"/>
<circle class="point" cx="1044.6" cy="84.2" r="3" fill="#7a5dbb"/>
<circle class="point" cx="1031.9" cy="109.6" r="3" fill="#7a5dbb"/>
<circle class="point" cx="1003.3" cy="134.0" r="3" fill="#7a5dbb"/>
<circle class="point" cx="1022.7" cy="119.9" r="3" fill="#7a5dbb"/>
<circle class="point" cx="971.9" cy="158.7" r="3" fill="#7a5dbb"/>
<circle class="point" cx="957.5" cy="175.5" r="3" fill="#7a5dbb"/>
<circle class="point" cx="968.0" cy="182.6" r="3" fill="#7a5dbb"/>
<circle class="point" cx="994.3" cy="157.1" r="3" fill="#7a5dbb"/>
<circle class="point" cx="1021.3" cy="146.6" r="3" fill="#7a5dbb"/>
<circle class="point" cx="1006.2" cy="141.4" r="3" fill="#7a5dbb"/>
<circle class="point" cx="990.7" cy="144.5" r="3" fill="#7a5dbb"/>
<circle class="point" cx="984.7" cy="152.8" r="3" fill="#7a5dbb"/>
<circle class="point" cx="961.7" cy="180.8" r="3" fill="#7a5dbb"/>
<circle class="point" cx="972.7" cy="173.4" r="3" fill="#7a5dbb"/>
<circle class="point" cx="969.1" cy="177.3" r="3" fill="#7a5dbb"/>
<circle class="point" cx="965.8" cy="183.3" r="3" fill="#7a5dbb"/>
<circle class="point" cx="952.0" cy="195.7" r="3" fill="#7a5dbb"/>
<circle class="point" cx="968.4" cy="199.9" r="3" fill="#7a5dbb"/>
<circle class="point" cx="992.8" cy="187.0" r="3" fill="#7a5dbb"/>
<circle class="point" cx="1020.5" cy="157.9" r="3" fill="#7a5dbb"/>
<line class="fit" x1="696.0" y1="329.7" x2="1208.3" y2="78.0" stroke="#7a5dbb"/>
<line class="grid" x1="80.0" y1="423.0" x2="80.0" y2="682.0"/>
<text x="80.0" y="702.0" text-anchor="middle">100</text>
<line class="grid" x1="188.4" y1="423.0" x2="188.4" y2="682.0"/>
<text x="188.4" y="702.0" text-anchor="middle">120</text>
<line class="grid" x1="296.8" y1="423.0" x2="296.8" y2="682.0"/>
<text x="296.8" y="702.0" text-anchor="middle">140</text>
<line class="grid" x1="405.2" y1="423.0" x2="405.2" y2="682.0"/>
<text x="405.2" y="702.0" text-anchor="middle">160</text>
<line class="grid" x1="513.6" y1="423.0" x2="513.6" y2="682.0"/>
<text x="513.6" y="702.0" text-anchor="middle">180</text>
<line class="grid" x1="622.0" y1="423.0" x2="622.0" y2="682.0"/>
<text x="622.0" y="702.0" text-anchor="middle">200</text>
<line class="grid" x1="80.0" y1="682.0" x2="622.0" y2="682.0"/>
<text x="72.0" y="686.0" text-anchor="end">40</text>
<line class="grid" x1="80.0" y1="617.2" x2="622.0" y2="617.2"/>
<text x="72.0" y="621.2" text-anchor="end">50</text>
<line class="grid" x1="80.0" y1="552.5" x2="622.0" y2="552.5"/>
<text x="72.0" y="556.5" text-anchor="end">60</text>
<line class="grid" x1="80.0" y1="487.8" x2="622.0" y2="487.8"/>
<text x="72.0" y="491.8" text-anchor="end">70</text>
<line class="grid" x1="80.0" y1="423.0" x2="622.0" y2="423.0"/>
<text x="72.0" y="427.0" text-anchor="end">80</text>
<line class="axis" x1="80.0" y1="423.0" x2="80.0" y2="682.0"/>
<line class="axis" x1="80.0" y1="682.0" x2="622.0" y2="682.0"/>
<text x="80.0" y="409.0">WTI n=155 scale=0.3964</text>
<circle class="point" cx="247.2" cy="650.2" r="3" fill="#348f6c"/>
<circle class="point" cx="266.5" cy="629.9" r="3" fill="#348f6c"/>
<circle class="point" cx="278.3" cy="619.3" r="3" fill="#348f6c"/>
<circle class="point" cx="248.1" cy="637.1" r="3" fill="#348f6c"/>
<circle class="point" cx="226.2" cy="673.4" r="3" fill="#348f6c"/>
<circle class="point" cx="246.0" cy="648.8" r="3" fill="#348f6c"/>
<circle class="point" cx="265.7" cy="642.7" r="3" fill="#348f6c"/>
<circle class="point" cx="249.9" cy="650.4" r="3" fill="#348f6c"/>
<circle class="point" cx="280.7" cy="627.5" r="3" fill="#348f6c"/>
<circle class="point" cx="227.1" cy="640.5" r="3" fill="#348f6c"/>
<circle class="point" cx="245.1" cy="634.4" r="3" fill="#348f6c"/>
<circle class="point" cx="285.5" cy="608.0" r="3" fill="#348f6c"/>
<circle class="point" cx="294.9" cy="601.2" r="3" fill="#348f6c"/>
<circle class="point" cx="326.7" cy="599.5" r="3" fill="#348f6c"/>
<circle class="point" cx="321.3" cy="602.8" r="3" fill="#348f6c"/>
<circle class="point" cx="327.9" cy="597.1" r="3" fill="#348f6c"/>
<circle class="point" cx="313.8" cy="604.7" r="3" fill="#348f6c"/>
<circle class="point" cx="291.9" cy="631.6" r="3" fill="#348f6c"/>
<circle class="point" cx="313.4" cy="605.5" r="3" fill="#348f6c"/>
<circle class="point" cx="285.5" cy="626.2" r="3" fill="#348f6c"/>
<circle class="point" cx="305.4" cy="619.0" r="3" fill="#348f6c"/>
<circle class="point" cx="292.3" cy="634.0" r="3" fill="#348f6c"/>
<circle class="point" cx="261.0" cy="654.8" r="3" fill="#348f6c"/>
<circle class="point" cx="276.7" cy="646.9" r="3" fill="#348f6c"/>
<circle class="point" cx="300.1" cy="624.4" r="3" fill="#348f6c"/>
<circle class="point" cx="331.3" cy="629.7" r="3" fill="#348f6c"/>
<circle class="point" cx="342.6" cy="611.1" r="3" fill="#348f6c"/>
<circle class="point" cx="361.1" cy="604.5" r="3" fill="#348f6c"/>
<circle class="point" cx="392.2" cy="575.6" r="3" fill="#348f6c"/>
<circle class="point" cx="415.9" cy="566.8" r="3" fill="#348f6c"/>
<circle class="point" cx="442.7" cy="536.9" r="3" fill="#348f6c"/>
<circle class="point" cx="470.4" cy="523.2" r="3" fill="#348f6c"/>
<circle class="point" cx="453.9" cy="528.8" r="3" fill="#348f6c"/>
<circle class="point" cx="423.0" cy="541.6" r="3" fill="#348f6c"/>
<circle class="point" cx="452.6" cy="534.3" r="3" fill="#348f6c"/>
<circle class="point" cx="461.3" cy="523.1" r="3" fill="#348f6c"/>
<circle class="point" cx="482.5" cy="502.5" r="3" fill="#348f6c"/>
<circle class="point" cx="494.1" cy="491.2" r="3" fill="#348f6c"/>
<circle class="point" cx="515.5" cy="480.4" r="3" fill="#348f6c"/>
<circle class="point" cx="498.2" cy="513.2" r="3" fill="#348f6c"/>
<circle class="point" cx="466.9" cy="505.1" r="3" fill="#348f6c"/>
<circle class="point" cx="489.9" cy="460.5" r="3" fill="#348f6c"/>
<circle class="point" cx="453.6" cy="490.9" r="3" fill="#348f6c"/>
<circle class="point" cx="455.8" cy="489.8" r="3" fill="#348f6c"/>
<circle class="point" cx="448.4" cy="509.8" r="3" fill="#348f6c"/>
<circle class="point" cx="468.2" cy="491.5" r="3" fill="#348f6c"/>
<circle class="point" cx="481.5" cy="495.7" r="3" fill="#348f6c"/>
<circle class="point" cx="506.3" cy="471.8" r="3" fill="#348f6c"/>
<circle class="point" cx="515.4" cy="471.0" r="3" fill="#348f6c"/>
<circle class="point" cx="480.7" cy="512.1" r="3" fill="#348f6c"/>
<circle class="point" cx="419.9" cy="557.4" r="3" fill="#348f6c"/>
<circle class="point" cx="359.7" cy="601.0" r="3" fill="#348f6c"/>
<circle class="point" cx="352.6" cy="603.8" r="3" fill="#348f6c"/>
<circle class="point" cx="316.3" cy="641.1" r="3" fill="#348f6c"/>
<circle class="point" cx="341.3" cy="619.2" r="3" fill="#348f6c"/>
<circle class="point" cx="371.6" cy="600.1" r="3" fill="#348f6c"/>
<circle class="point" cx="372.1" cy="592.2" r="3" fill="#348f6c"/>
<circle class="point" cx="410.1" cy="575.8" r="3" fill="#348f6c"/>
<circle class="point" cx="418.2" cy="563.7" r="3" fill="#348f6c"/>
<circle class="point" cx="413.7" cy="531.6" r="3" fill="#348f6c"/>
<circle class="point" cx="431.8" cy="522.6" r="3" fill="#348f6c"/>
<circle class="point" cx="404.8" cy="538.3" r="3" fill="#348f6c"/>
<circle class="point" cx="405.8" cy="545.1" r="3" fill="#348f6c"/>
<circle class="point" cx="355.2" cy="592.9" r="3" fill="#348f6c"/>
<circle class="point" cx="346.7" cy="582.8" r="3" fill="#348f6c"/>
<circle class="point" cx="363.7" cy="565.0" r="3" fill="#348f6c"/>
<circle class="point" cx="333.4" cy="576.4" r="3" fill="#348f6c"/>
<circle class="point" cx="311.1" cy="583.8" r="3" fill="#348f6c"/>
<circle class="point" cx="314.1" cy="584.5" r="3" fill="#348f6c"/>
<circle class="point" cx="332.5" cy="568.8" r="3" fill="#348f6c"/>
<circle class="point" cx="319.0" cy="589.3" r="3" fill="#348f6c"/>
<circle class="point" cx="337.6" cy="579.9" r="3" fill="#348f6c"/>
<circle class="point" cx="342.9" cy="574.5" r="3" fill="#348f6c"/>
<circle class="point" cx="344.8" cy="568.9" r="3" fill="#348f6c"/>
<circle class="point" cx="381.2" cy="551.1" r="3" fill="#348f6c"/>
<circle class="point" cx="335.3" cy="574.5" r="3" fill="#348f6c"/>
<circle class="point" cx="288.7" cy="609.4" r="3" fill="#348f6c"/>
<circle class="point" cx="177.0" cy="677.1" r="3" fill="#348f6c"/>
<circle class="point" cx="204.4" cy="680.4" r="3" fill="#348f6c"/>
<circle class="point" cx="221.4" cy="672.3" r="3" fill="#348f6c"/>
<circle class="point" cx="202.1" cy="678.2" r="3" fill="#348f6c"/>
<circle class="point" cx="230.9" cy="675.0" r="3" fill="#348f6c"/>
<circle class="point" cx="262.5" cy="649.6" r="3" fill="#348f6c"/>
<circle class="point" cx="279.4" cy="636.7" r="3" fill="#348f6c"/>
<circle class="point" cx="290.8" cy="631.1" r="3" fill="#348f6c"/>
<circle class="point" cx="317.3" cy="608.0" r="3" fill="#348f6c"/>
<circle class="point" cx="332.3" cy="600.0" r="3" fill="#348f6c"/>
<circle class="point" cx="360.1" cy="566.2" r="3" fill="#348f6c"/>
<circle class="point" cx="388.3" cy="540.3" r="3" fill="#348f6c"/>
<circle class="point" cx="410.2" cy="522.8" r="3" fill="#348f6c"/>
<circle class="point" cx="377.1" cy="550.0" r="3" fill="#348f6c"/>
<circle class="point" cx="400.6" cy="541.9" r="3" fill="#348f6c"/>
<circle class="point" cx="416.8" cy="520.5" r="3" fill="#348f6c"/>
<circle class="point" cx="442.2" cy="505.4" r="3" fill="#348f6c"/>
<circle class="point" cx="458.9" cy="470.9" r="3" fill="#348f6c"/>
<circle class="point" cx="466.2" cy="461.1" r="3" fill="#348f6c"/>
<circle class="point" cx="448.8" cy="482.1" r="3" fill="#348f6c"/>
<circle class="point" cx="425.8" cy="498.3" r="3" fill="#348f6c"/>
<circle class="point" cx="442.5" cy="495.6" r="3" fill="#348f6c"/>
<circle class="point" cx="452.8" cy="483.0" r="3" fill="#348f6c"/>
<circle class="point" cx="495.6" cy="452.9" r="3" fill="#348f6c"/>
<circle class="point" cx="479.6" cy="481.4" r="3" fill="#348f6c"/>
<circle class="point" cx="464.6" cy="479.7" r="3" fill="#348f6c"/>
<circle class="point" cx="483.8" cy="461.3" r="3" fill="#348f6c"/>
<circle class="point" cx="506.1" cy="436.0" r="3" fill="#348f6c"/>
<circle class="point" cx="459.9" cy="461.3" r="3" fill="#348f6c"/>
<circle class="point" cx="496.5" cy="435.9" r="3" fill="#348f6c"/>
<circle class="point" cx="494.0" cy="442.7" r="3" fill="#348f6c"/>
<circle class="point" cx="513.2" cy="430.7" r="3" fill="#348f6c"/>
<circle class="point" cx="486.6" cy="448.9" r="3" fill="#348f6c"/>
<circle class="point" cx="453.0" cy="477.6" r="3" fill="#348f6c"/>
<circle class="point" cx="489.0" cy="442.5" r="3" fill="#348f6c"/>
<circle class="point" cx="437.1" cy="477.4" r="3" fill="#348f6c"/>
<circle class="point" cx="433.2" cy="477.7" r="3" fill="#348f6c"/>
<circle class="point" cx="421.0" cy="484.9" r="3" fill="#348f6c"/>
<circle class="point" cx="417.4" cy="487.6" r="3" fill="#348f6c"/>
<circle class="point" cx="445.9" cy="467.3" r="3" fill="#348f6c"/>
<circle class="point" cx="471.3" cy="441.6" r="3" fill="#348f6c"/>
<circle class="point" cx="478.2" cy="441.4" r="3" fill="#348f6c"/>
<circle class="point" cx="472.1" cy="461.9" r="3" fill="#348f6c"/>
<circle class="point" cx="432.2" cy="481.5" r="3" fill="#348f6c"/>
<circle class="point" cx="450.0" cy="468.4" r="3" fill="#348f6c"/>
<circle class="point" cx="440.2" cy="470.6" r="3" fill="#348f6c"/>
<circle class="point" cx="462.8" cy="447.8" r="3" fill="#348f6c"/>
<circle class="point" cx="473.5" cy="437.6" r="3" fill="#348f6c"/>
<circle class="point" cx="456.2" cy="432.5" r="3" fill="#348f6c"/>
<circle class="point" cx="454.1" cy="444.2" r="3" fill="#348f6c"/>
<circle class="point" cx="453.8" cy="452.8" r="3" fill="#348f6c"/>
<circle class="point" cx="420.4" cy="484.6" r="3" fill="#348f6c"/>
<circle class="point" cx="433.1" cy="471.0" r="3" fill="#348f6c"/>
<circle class="point" cx="435.8" cy="480.3" r="3" fill="#348f6c"/>
<circle class="point" cx="418.1" cy="485.0" r="3" fill="#348f6c"/>
<circle class="point" cx="403.6" cy="487.5" r="3" fill="#348f6c"/>
<circle class="point" cx="437.4" cy="439.6" r="3" fill="#348f6c"/>
<circle class="point" cx="428.6" cy="467.7" r="3" fill="#348f6c"/>
<circle class="point" cx="415.9" cy="493.8" r="3" fill="#348f6c"/>
<circle class="point" cx="387.3" cy="505.0" r="3" fill="#348f6c"/>
<circle class="point" cx="406.7" cy="487.4" r="3" fill="#348f6c"/>
<circle class="point" cx="355.9" cy="539.4" r="3" fill="#348f6c"/>
<circle class="point" cx="341.5" cy="537.0" r="3" fill="#348f6c"/>
<circle class="point" cx="352.0" cy="535.3" r="3" fill="#348f6c"/>
<circle class="point" cx="378.3" cy="490.0" r="3" fill="#348f6c"/>
<circle class="point" cx="405.3" cy="501.3" r="3" fill="#348f6c"/>
<circle class="point" cx="390.2" cy="497.1" r="3" fill="#348f6c"/>
<circle class="point" cx="374.7" cy="512.5" r="3" fill="#348f6c"/>
<circle class="point" cx="368.7" cy="530.6" r="3" fill="#348f6c"/>
<circle class="point" cx="345.7" cy="552.6" r="3" fill="#348f6c"/>
<circle class="point" cx="356.7" cy="545.6" r="3" fill="#348f6c"/>
<circle class="point" cx="353.1" cy="553.5" r="3" fill="#348f6c"/>
<circle class="point" cx="349.8" cy="558.1" r="3" fill="#348f6c"/>
<circle class="point" cx="336.0" cy="570.5" r="3" fill="#348f6c"/>
<circle class="point" cx="352.4" cy="561.7" r="3" fill="#348f6c"/>
<circle class="point" cx="376.8" cy="537.5" r="3" fill="#348f6c"/>
<circle class="point" cx="404.5" cy="522.5" r="3" fill="#348f6c"/>
<circle class="point" cx="478.3" cy="435.8" r="3" fill="#348f6c"/>
<line class="fit" x1="84.9" y1="682.0" x2="622.0" y2="427.7" stroke="#348f6c"/>
<line class="grid" x1="696.0" y1="423.0" x2="696.0" y2="682.0"/>
<text x="696.0" y="702.0" text-anchor="middle">100</text>
<line class="grid" x1="804.4" y1="423.0" x2="804.4" y2="682.0"/>
<text x="804.4" y="702.0" text-anchor="middle">120</text>
<line class="grid" x1="912.8" y1="423.0" x2="912.8" y2="682.0"/>
<text x="912.8" y="702.0" text-anchor="middle">140</text>
<line class="grid" x1="1021.2" y1="423.0" x2="1021.2" y2="682.0"/>
<text x="1021.2" y="702.0" text-anchor="middle">160</text>
<line class="grid" x1="1129.6" y1="423.0" x2="1129.6" y2="682.0"/>
<text x="1129.6" y="702.0" text-anchor="middle">180</text>
<line class="grid" x1="1238.0" y1="423.0" x2="1238.0" y2="682.0"/>
<text x="1238.0" y="702.0" text-anchor="middle">200</text>
<line class="grid" x1="696.0" y1="682.0" x2="1238.0" y2="682.0"/>
<text x="688.0" y="686.0" text-anchor="end">40</text>
<line class="grid" x1="696.0" y1="617.2" x2="1238.0" y2="617.2"/>
<text x="688.0" y="621.2" text-anchor="end">50</text>
<line class="grid" x1="696.0" y1="552.5" x2="1238.0" y2="552.5"/>
<text x="688.0" y="556.5" text-anchor="end">60</text>
<line class="grid" x1="696.0" y1="487.8" x2="1238.0" y2="487.8"/>
<text x="688.0" y="491.8" text-anchor="end">70</text>
<line class="grid" x1="696.0" y1="423.0" x2="1238.0" y2="423.0"/>
<text x="688.0" y="427.0" text-anchor="end">80</text>
<line class="axis" x1="696.0" y1="423.0" x2="696.0" y2="682.0"/>
<line class="axis" x1="696.0" y1="682.0" x2="1238.0" y2="682.0"/>
<text x="696.0" y="409.0">三油算术均价 n=149 scale=0.4091</text>
<circle class="point" cx="863.2" cy="657.6" r="3" fill="#222222"/>
<circle class="point" cx="882.5" cy="637.5" r="3" fill="#222222"/>
<circle class="point" cx="894.3" cy="627.1" r="3" fill="#222222"/>
<circle class="point" cx="864.1" cy="642.0" r="3" fill="#222222"/>
<circle class="point" cx="842.2" cy="673.3" r="3" fill="#222222"/>
<circle class="point" cx="862.0" cy="651.6" r="3" fill="#222222"/>
<circle class="point" cx="881.7" cy="644.0" r="3" fill="#222222"/>
<circle class="point" cx="865.9" cy="648.7" r="3" fill="#222222"/>
<circle class="point" cx="896.7" cy="630.2" r="3" fill="#222222"/>
<circle class="point" cx="843.1" cy="645.5" r="3" fill="#222222"/>
<circle class="point" cx="861.1" cy="641.2" r="3" fill="#222222"/>
<circle class="point" cx="901.5" cy="605.6" r="3" fill="#222222"/>
<circle class="point" cx="910.9" cy="598.7" r="3" fill="#222222"/>
<circle class="point" cx="942.7" cy="593.8" r="3" fill="#222222"/>
<circle class="point" cx="937.3" cy="594.9" r="3" fill="#222222"/>
<circle class="point" cx="943.9" cy="591.0" r="3" fill="#222222"/>
<circle class="point" cx="929.8" cy="597.9" r="3" fill="#222222"/>
<circle class="point" cx="907.9" cy="618.7" r="3" fill="#222222"/>
<circle class="point" cx="929.4" cy="599.6" r="3" fill="#222222"/>
<circle class="point" cx="901.5" cy="619.4" r="3" fill="#222222"/>
<circle class="point" cx="921.4" cy="611.9" r="3" fill="#222222"/>
<circle class="point" cx="908.3" cy="628.4" r="3" fill="#222222"/>
<circle class="point" cx="877.0" cy="647.0" r="3" fill="#222222"/>
<circle class="point" cx="892.7" cy="639.7" r="3" fill="#222222"/>
<circle class="point" cx="916.1" cy="620.1" r="3" fill="#222222"/>
<circle class="point" cx="947.3" cy="613.2" r="3" fill="#222222"/>
<circle class="point" cx="958.6" cy="590.5" r="3" fill="#222222"/>
<circle class="point" cx="977.1" cy="584.0" r="3" fill="#222222"/>
<circle class="point" cx="1008.2" cy="551.7" r="3" fill="#222222"/>
<circle class="point" cx="1031.9" cy="546.9" r="3" fill="#222222"/>
<circle class="point" cx="1058.7" cy="516.7" r="3" fill="#222222"/>
<circle class="point" cx="1086.4" cy="508.5" r="3" fill="#222222"/>
<circle class="point" cx="1069.9" cy="519.8" r="3" fill="#222222"/>
<circle class="point" cx="1039.0" cy="533.9" r="3" fill="#222222"/>
<circle class="point" cx="1068.6" cy="529.1" r="3" fill="#222222"/>
<circle class="point" cx="1077.3" cy="509.2" r="3" fill="#222222"/>
<circle class="point" cx="1098.5" cy="487.8" r="3" fill="#222222"/>
<circle class="point" cx="1110.1" cy="473.6" r="3" fill="#222222"/>
<circle class="point" cx="1131.5" cy="456.7" r="3" fill="#222222"/>
<circle class="point" cx="1114.2" cy="477.6" r="3" fill="#222222"/>
<circle class="point" cx="1082.9" cy="477.4" r="3" fill="#222222"/>
<circle class="point" cx="1105.9" cy="454.9" r="3" fill="#222222"/>
<circle class="point" cx="1069.6" cy="477.6" r="3" fill="#222222"/>
<circle class="point" cx="1071.8" cy="475.4" r="3" fill="#222222"/>
<circle class="point" cx="1064.4" cy="491.6" r="3" fill="#222222"/>
<circle class="point" cx="1084.2" cy="470.7" r="3" fill="#222222"/>
<circle class="point" cx="1097.5" cy="461.2" r="3" fill="#222222"/>
<circle class="point" cx="1122.3" cy="441.7" r="3" fill="#222222"/>
<circle class="point" cx="1131.4" cy="429.5" r="3" fill="#222222"/>
<circle class="point" cx="1096.7" cy="465.5" r="3" fill="#222222"/>
<circle class="point" cx="1035.9" cy="516.2" r="3" fill="#222222"/>
<circle class="point" cx="975.7" cy="556.0" r="3" fill="#222222"/>
<circle class="point" cx="968.6" cy="570.0" r="3" fill="#222222"/>
<circle class="point" cx="932.3" cy="600.8" r="3" fill="#222222"/>
<circle class="point" cx="957.3" cy="587.0" r="3" fill="#222222"/>
<circle class="point" cx="987.6" cy="568.4" r="3" fill="#222222"/>
<circle class="point" cx="988.1" cy="555.8" r="3" fill="#222222"/>
<circle class="point" cx="1026.1" cy="538.0" r="3" fill="#222222"/>
<circle class="point" cx="1034.2" cy="528.2" r="3" fill="#222222"/>
<circle class="point" cx="1029.7" cy="502.6" r="3" fill="#222222"/>
<circle class="point" cx="1047.8" cy="493.6" r="3" fill="#222222"/>
<circle class="point" cx="1020.8" cy="500.4" r="3" fill="#222222"/>
<circle class="point" cx="1021.8" cy="502.1" r="3" fill="#222222"/>
<circle class="point" cx="971.2" cy="549.6" r="3" fill="#222222"/>
<circle class="point" cx="962.7" cy="550.7" r="3" fill="#222222"/>
<circle class="point" cx="979.7" cy="540.5" r="3" fill="#222222"/>
<circle class="point" cx="949.4" cy="550.3" r="3" fill="#222222"/>
<circle class="point" cx="927.1" cy="569.2" r="3" fill="#222222"/>
<circle class="point" cx="930.1" cy="567.0" r="3" fill="#222222"/>
<circle class="point" cx="948.5" cy="549.9" r="3" fill="#222222"/>
<circle class="point" cx="935.0" cy="565.2" r="3" fill="#222222"/>
<circle class="point" cx="953.6" cy="559.6" r="3" fill="#222222"/>
<circle class="point" cx="958.9" cy="551.7" r="3" fill="#222222"/>
<circle class="point" cx="960.8" cy="545.2" r="3" fill="#222222"/>
<circle class="point" cx="997.2" cy="526.7" r="3" fill="#222222"/>
<circle class="point" cx="951.3" cy="545.4" r="3" fill="#222222"/>
<circle class="point" cx="904.7" cy="591.7" r="3" fill="#222222"/>
<circle class="point" cx="793.0" cy="657.7" r="3" fill="#222222"/>
<circle class="point" cx="820.4" cy="669.6" r="3" fill="#222222"/>
<circle class="point" cx="837.4" cy="662.7" r="3" fill="#222222"/>
<circle class="point" cx="818.1" cy="670.9" r="3" fill="#222222"/>
<circle class="point" cx="835.2" cy="677.6" r="3" fill="#222222"/>
<circle class="point" cx="846.9" cy="669.4" r="3" fill="#222222"/>
<circle class="point" cx="878.5" cy="644.3" r="3" fill="#222222"/>
<circle class="point" cx="895.4" cy="624.8" r="3" fill="#222222"/>
<circle class="point" cx="906.8" cy="620.8" r="3" fill="#222222"/>
<circle class="point" cx="933.3" cy="596.0" r="3" fill="#222222"/>
<circle class="point" cx="948.3" cy="589.8" r="3" fill="#222222"/>
<circle class="point" cx="976.1" cy="556.7" r="3" fill="#222222"/>
<circle class="point" cx="1004.3" cy="533.2" r="3" fill="#222222"/>
<circle class="point" cx="1026.2" cy="513.2" r="3" fill="#222222"/>
<circle class="point" cx="993.1" cy="535.8" r="3" fill="#222222"/>
<circle class="point" cx="1016.6" cy="533.7" r="3" fill="#222222"/>
<circle class="point" cx="1032.8" cy="510.4" r="3" fill="#222222"/>
<circle class="point" cx="1058.2" cy="498.9" r="3" fill="#222222"/>
<circle class="point" cx="1074.9" cy="469.7" r="3" fill="#222222"/>
<circle class="point" cx="1082.2" cy="457.7" r="3" fill="#222222"/>
<circle class="point" cx="1064.8" cy="472.8" r="3" fill="#222222"/>
<circle class="point" cx="1041.8" cy="488.3" r="3" fill="#222222"/>
<circle class="point" cx="1058.5" cy="485.7" r="3" fill="#222222"/>
<circle class="point" cx="1068.8" cy="476.5" r="3" fill="#222222"/>
<circle class="point" cx="1111.6" cy="447.1" r="3" fill="#222222"/>
<circle class="point" cx="1095.6" cy="459.4" r="3" fill="#222222"/>
<circle class="point" cx="1080.6" cy="469.9" r="3" fill="#222222"/>
<circle class="point" cx="1099.8" cy="460.9" r="3" fill="#222222"/>
<circle class="point" cx="1075.9" cy="446.4" r="3" fill="#222222"/>
<circle class="point" cx="1112.5" cy="432.8" r="3" fill="#222222"/>
<circle class="point" cx="1110.0" cy="432.1" r="3" fill="#222222"/>
<circle class="point" cx="1102.6" cy="424.2" r="3" fill="#222222"/>
<circle class="point" cx="1069.0" cy="453.5" r="3" fill="#222222"/>
<circle class="point" cx="1053.1" cy="461.6" r="3" fill="#222222"/>
<circle class="point" cx="1049.2" cy="462.0" r="3" fill="#222222"/>
<circle class="point" cx="1037.0" cy="466.8" r="3" fill="#222222"/>
<circle class="point" cx="1033.4" cy="466.7" r="3" fill="#222222"/>
<circle class="point" cx="1061.9" cy="448.5" r="3" fill="#222222"/>
<circle class="point" cx="1087.3" cy="427.4" r="3" fill="#222222"/>
<circle class="point" cx="1088.1" cy="435.2" r="3" fill="#222222"/>
<circle class="point" cx="1048.2" cy="457.6" r="3" fill="#222222"/>
<circle class="point" cx="1066.0" cy="447.3" r="3" fill="#222222"/>
<circle class="point" cx="1056.2" cy="446.4" r="3" fill="#222222"/>
<circle class="point" cx="1078.8" cy="428.9" r="3" fill="#222222"/>
<circle class="point" cx="1070.1" cy="433.5" r="3" fill="#222222"/>
<circle class="point" cx="1069.8" cy="441.0" r="3" fill="#222222"/>
<circle class="point" cx="1036.4" cy="472.9" r="3" fill="#222222"/>
<circle class="point" cx="1049.1" cy="457.0" r="3" fill="#222222"/>
<circle class="point" cx="1051.8" cy="463.9" r="3" fill="#222222"/>
<circle class="point" cx="1034.1" cy="468.1" r="3" fill="#222222"/>
<circle class="point" cx="1019.6" cy="473.0" r="3" fill="#222222"/>
<circle class="point" cx="1053.4" cy="430.2" r="3" fill="#222222"/>
<circle class="point" cx="1044.6" cy="446.3" r="3" fill="#222222"/>
<circle class="point" cx="1031.9" cy="471.5" r="3" fill="#222222"/>
<circle class="point" cx="1003.3" cy="486.6" r="3" fill="#222222"/>
<circle class="point" cx="1022.7" cy="469.4" r="3" fill="#222222"/>
<circle class="point" cx="971.9" cy="516.8" r="3" fill="#222222"/>
<circle class="point" cx="957.5" cy="526.0" r="3" fill="#222222"/>
<circle class="point" cx="968.0" cy="526.4" r="3" fill="#222222"/>
<circle class="point" cx="994.3" cy="488.4" r="3" fill="#222222"/>
<circle class="point" cx="1021.3" cy="490.2" r="3" fill="#222222"/>
<circle class="point" cx="1006.2" cy="488.0" r="3" fill="#222222"/>
<circle class="point" cx="990.7" cy="498.4" r="3" fill="#222222"/>
<circle class="point" cx="984.7" cy="511.0" r="3" fill="#222222"/>
<circle class="point" cx="961.7" cy="537.1" r="3" fill="#222222"/>
<circle class="point" cx="972.7" cy="529.3" r="3" fill="#222222"/>
<circle class="point" cx="969.1" cy="535.3" r="3" fill="#222222"/>
<circle class="point" cx="965.8" cy="537.9" r="3" fill="#222222"/>
<circle class="point" cx="952.0" cy="550.9" r="3" fill="#222222"/>
<circle class="point" cx="968.4" cy="543.0" r="3" fill="#222222"/>
<circle class="point" cx="992.8" cy="520.2" r="3" fill="#222222"/>
<circle class="point" cx="1020.5" cy="502.1" r="3" fill="#222222"/>
<line class="fit" x1="696.0" y1="676.1" x2="1213.9" y2="423.0" stroke="#222222"/>
<text x="80" y="732">横轴：国内汽油 USD/bbl；纵轴：国际原油区间均价 USD/bbl。</text>
</svg>