<svg xmlns="http://www.w3.org/2000/svg" width="1280" height="760" viewBox="0 0 1280 760">
<style>
text{font-family:Arial,'Microsoft YaHei',sans-serif;font-size:12px;fill:#222}
.title{font-size:18px;font-weight:700}
.note{fill:#666;font-size:11px}
.axis{stroke:#222;stroke-width:1}
.grid{stroke:#ddd;stroke-width:1}
.fit{stroke-width:2;fill:none}
.point{opacity:.72}
</style>
<text class="title" x="80" y="30">40-80美元/桶区间：国际原油线性拟合国内汽油</text>
<text class="note" x="80" y="50">模型为 y = intercept + slope * x；x 为国际原油区间均价，y 为国内汽油价格，单位均为 USD/bbl。</text>
<line class="grid" x1="80.0" y1="78.0" x2="80.0" y2="337.0"/>
<text x="80.0" y="357.0" text-anchor="middle">40</text>
<line class="grid" x1="215.5" y1="78.0" x2="215.5" y2="337.0"/>
<text x="215.5" y="357.0" text-anchor="middle">50</text>
<line class="grid" x1="351.0" y1="78.0" x2="351.0" y2="337.0"/>
<text x="351.0" y="357.0" text-anchor="middle">60</text>
<line class="grid" x1="486.5" y1="78.0" x2="486.5" y2="337.0"/>
<text x="486.5" y="357.0" text-anchor="middle">70</text>
<line class="grid" x1="622.0" y1="78.0" x2="622.0" y2="337.0"/>
<text x="622.0" y="357.0" text-anchor="middle">80</text>
<line class="grid" x1="80.0" y1="337.0" x2="622.0" y2="337.0"/>
<text x="72.0" y="341.0" text-anchor="end">100</text>
<line class="grid" x1="80.0" y1="285.2" x2="622.0" y2="285.2"/>
<text x="72.0" y="289.2" text-anchor="end">120</text>
<line class="grid" x1="80.0" y1="233.4" x2="622.0" y2="233.4"/>
<text x="72.0" y="237.4" text-anchor="end">140</text>
<line class="grid" x1="80.0" y1="181.6" x2="622.0" y2="181.6"/>
<text x="72.0" y="185.6" text-anchor="end">160</text>
<line class="grid" x1="80.0" y1="129.8" x2="622.0" y2="129.8"/>
<text x="72.0" y="133.8" text-anchor="end">180</text>
<line class="grid" x1="80.0" y1="78.0" x2="622.0" y2="78.0"/>
<text x="72.0" y="82.0" text-anchor="end">200</text>
<line class="axis" x1="80.0" y1="78.0" x2="80.0" y2="337.0"/>
<line class="axis" x1="80.0" y1="337.0" x2="622.0" y2="337.0"/>
<text x="80.0" y="64.0">布伦特 n=142 y=74.33+1.244x</text>
<circle class="point" cx="143.0" cy="257.1" r="3" fill="#2f6fbb"/>
<circle class="point" cx="192.9" cy="247.9" r="3" fill="#2f6fbb"/>
<circle class="point" cx="207.6" cy="242.2" r="3" fill="#2f6fbb"/>
<circle class="point" cx="170.2" cy="256.6" r="3" fill="#2f6fbb"/>
<circle class="point" cx="103.2" cy="267.2" r="3" fill="#2f6fbb"/>
<circle class="point" cx="162.9" cy="257.7" r="3" fill="#2f6fbb"/>
<circle class="point" cx="188.2" cy="248.2" r="3" fill="#2f6fbb"/>
<circle class="point" cx="171.9" cy="255.8" r="3" fill="#2f6fbb"/>
<circle class="point" cx="196.4" cy="241.1" r="3" fill="#2f6fbb"/>
<circle class="point" cx="154.0" cy="266.7" r="3" fill="#2f6fbb"/>
<circle class="point" cx="172.7" cy="258.1" r="3" fill="#2f6fbb"/>
<circle class="point" cx="250.4" cy="238.8" r="3" fill="#2f6fbb"/>
<circle class="point" cx="271.6" cy="234.3" r="3" fill="#2f6fbb"/>
<circle class="point" cx="277.2" cy="219.1" r="3" fill="#2f6fbb"/>
<circle class="point" cx="276.8" cy="221.7" r="3" fill="#2f6fbb"/>
<circle class="point" cx="281.9" cy="218.5" r="3" fill="#2f6fbb"/>
<circle class="point" cx="264.2" cy="225.3" r="3" fill="#2f6fbb"/>
<circle class="point" cx="220.7" cy="235.7" r="3" fill="#2f6fbb"/>
<circle class="point" cx="265.0" cy="225.5" r="3" fill="#2f6fbb"/>
<circle class="point" cx="209.9" cy="238.8" r="3" fill="#2f6fbb"/>
<circle class="point" cx="244.9" cy="229.3" r="3" fill="#2f6fbb"/>
<circle class="point" cx="198.6" cy="235.5" r="3" fill="#2f6fbb"/>
<circle class="point" cx="153.2" cy="250.5" r="3" fill="#2f6fbb"/>
<circle class="point" cx="179.7" cy="243.0" r="3" fill="#2f6fbb"/>
<circle class="point" cx="229.0" cy="231.8" r="3" fill="#2f6fbb"/>
<circle class="point" cx="252.2" cy="216.9" r="3" fill="#2f6fbb"/>
<circle class="point" cx="322.4" cy="211.5" r="3" fill="#2f6fbb"/>
<circle class="point" cx="323.0" cy="202.7" r="3" fill="#2f6fbb"/>
<circle class="point" cx="390.4" cy="187.8" r="3" fill="#2f6fbb"/>
<circle class="point" cx="404.5" cy="176.5" r="3" fill="#2f6fbb"/>
<circle class="point" cx="469.3" cy="163.7" r="3" fill="#2f6fbb"/>
<circle class="point" cx="482.6" cy="150.4" r="3" fill="#2f6fbb"/>
<circle class="point" cx="442.5" cy="158.3" r="3" fill="#2f6fbb"/>
<circle class="point" cx="415.9" cy="173.1" r="3" fill="#2f6fbb"/>
<circle class="point" cx="433.7" cy="158.9" r="3" fill="#2f6fbb"/>
<circle class="point" cx="478.0" cy="154.8" r="3" fill="#2f6fbb"/>
<circle class="point" cx="543.2" cy="144.6" r="3" fill="#2f6fbb"/>
<circle class="point" cx="560.0" cy="139.1" r="3" fill="#2f6fbb"/>
<circle class="point" cx="604.0" cy="128.9" r="3" fill="#2f6fbb"/>
<circle class="point" cx="548.6" cy="137.1" r="3" fill="#2f6fbb"/>
<circle class="point" cx="541.0" cy="152.1" r="3" fill="#2f6fbb"/>
<circle class="point" cx="576.4" cy="141.1" r="3" fill="#2f6fbb"/>
<circle class="point" cx="520.2" cy="158.5" r="3" fill="#2f6fbb"/>
<circle class="point" cx="533.5" cy="157.4" r="3" fill="#2f6fbb"/>
<circle class="point" cx="492.1" cy="161.0" r="3" fill="#2f6fbb"/>
<circle class="point" cx="563.5" cy="151.5" r="3" fill="#2f6fbb"/>
<circle class="point" cx="589.4" cy="145.2" r="3" fill="#2f6fbb"/>
<circle class="point" cx="570.0" cy="145.5" r="3" fill="#2f6fbb"/>
<circle class="point" cx="463.1" cy="174.6" r="3" fill="#2f6fbb"/>
<circle class="point" cx="350.1" cy="203.3" r="3" fill="#2f6fbb"/>
<circle class="point" cx="350.8" cy="206.7" r="3" fill="#2f6fbb"/>
<circle class="point" cx="264.4" cy="224.1" r="3" fill="#2f6fbb"/>
<circle class="point" cx="315.2" cy="212.1" r="3" fill="#2f6fbb"/>
<circle class="point" cx="363.3" cy="197.7" r="3" fill="#2f6fbb"/>
<circle class="point" cx="383.9" cy="197.4" r="3" fill="#2f6fbb"/>
<circle class="point" cx="426.5" cy="179.2" r="3" fill="#2f6fbb"/>
<circle class="point" cx="435.8" cy="175.4" r="3" fill="#2f6fbb"/>
<circle class="point" cx="492.4" cy="177.5" r="3" fill="#2f6fbb"/>
<circle class="point" cx="513.8" cy="168.9" r="3" fill="#2f6fbb"/>
<circle class="point" cx="508.0" cy="181.8" r="3" fill="#2f6fbb"/>
<circle class="point" cx="511.1" cy="181.3" r="3" fill="#2f6fbb"/>
<circle class="point" cx="415.3" cy="205.5" r="3" fill="#2f6fbb"/>
<circle class="point" cx="411.8" cy="209.5" r="3" fill="#2f6fbb"/>
<circle class="point" cx="417.5" cy="201.4" r="3" fill="#2f6fbb"/>
<circle class="point" cx="386.5" cy="215.9" r="3" fill="#2f6fbb"/>
<circle class="point" cx="329.8" cy="226.6" r="3" fill="#2f6fbb"/>
<circle class="point" cx="343.9" cy="225.2" r="3" fill="#2f6fbb"/>
<circle class="point" cx="400.5" cy="216.3" r="3" fill="#2f6fbb"/>
<circle class="point" cx="357.0" cy="222.8" r="3" fill="#2f6fbb"/>
<circle class="point" cx="365.4" cy="213.9" r="3" fill="#2f6fbb"/>
<circle class="point" cx="384.5" cy="211.4" r="3" fill="#2f6fbb"/>
<circle class="point" cx="409.9" cy="210.4" r="3" fill="#2f6fbb"/>
<circle class="point" cx="454.7" cy="193.1" r="3" fill="#2f6fbb"/>
<circle class="point" cx="385.4" cy="215.0" r="3" fill="#2f6fbb"/>
<circle class="point" cx="298.5" cy="237.3" r="3" fill="#2f6fbb"/>
<circle class="point" cx="140.6" cy="290.7" r="3" fill="#2f6fbb"/>
<circle class="point" cx="118.0" cy="277.6" r="3" fill="#2f6fbb"/>
<circle class="point" cx="133.9" cy="269.4" r="3" fill="#2f6fbb"/>
<circle class="point" cx="108.3" cy="278.6" r="3" fill="#2f6fbb"/>
<circle class="point" cx="91.6" cy="270.5" r="3" fill="#2f6fbb"/>
<circle class="point" cx="113.0" cy="264.9" r="3" fill="#2f6fbb"/>
<circle class="point" cx="176.6" cy="249.8" r="3" fill="#2f6fbb"/>
<circle class="point" cx="218.0" cy="241.7" r="3" fill="#2f6fbb"/>
<circle class="point" cx="225.2" cy="236.3" r="3" fill="#2f6fbb"/>
<circle class="point" cx="274.4" cy="223.6" r="3" fill="#2f6fbb"/>
<circle class="point" cx="286.0" cy="216.4" r="3" fill="#2f6fbb"/>
<circle class="point" cx="365.7" cy="203.1" r="3" fill="#2f6fbb"/>
<circle class="point" cx="424.8" cy="189.7" r="3" fill="#2f6fbb"/>
<circle class="point" cx="455.7" cy="179.2" r="3" fill="#2f6fbb"/>
<circle class="point" cx="393.3" cy="195.0" r="3" fill="#2f6fbb"/>
<circle class="point" cx="414.6" cy="183.8" r="3" fill="#2f6fbb"/>
<circle class="point" cx="469.4" cy="176.1" r="3" fill="#2f6fbb"/>
<circle class="point" cx="481.1" cy="163.9" r="3" fill="#2f6fbb"/>
<circle class="point" cx="546.1" cy="155.9" r="3" fill="#2f6fbb"/>
<circle class="point" cx="576.0" cy="152.5" r="3" fill="#2f6fbb"/>
<circle class="point" cx="534.5" cy="160.8" r="3" fill="#2f6fbb"/>
<circle class="point" cx="504.5" cy="171.8" r="3" fill="#2f6fbb"/>
<circle class="point" cx="517.8" cy="163.8" r="3" fill="#2f6fbb"/>
<circle class="point" cx="531.8" cy="158.8" r="3" fill="#2f6fbb"/>
<circle class="point" cx="602.9" cy="138.4" r="3" fill="#2f6fbb"/>
<circle class="point" cx="562.6" cy="146.0" r="3" fill="#2f6fbb"/>
<circle class="point" cx="544.4" cy="153.2" r="3" fill="#2f6fbb"/>
<circle class="point" cx="561.1" cy="144.0" r="3" fill="#2f6fbb"/>
<circle class="point" cx="614.7" cy="155.5" r="3" fill="#2f6fbb"/>
<circle class="point" cx="569.5" cy="158.8" r="3" fill="#2f6fbb"/>
<circle class="point" cx="560.9" cy="166.4" r="3" fill="#2f6fbb"/>
<circle class="point" cx="560.2" cy="168.2" r="3" fill="#2f6fbb"/>
<circle class="point" cx="554.1" cy="174.0" r="3" fill="#2f6fbb"/>
<circle class="point" cx="550.6" cy="175.8" r="3" fill="#2f6fbb"/>
<circle class="point" cx="590.2" cy="162.2" r="3" fill="#2f6fbb"/>
<circle class="point" cx="615.2" cy="149.6" r="3" fill="#2f6fbb"/>
<circle class="point" cx="578.4" cy="168.7" r="3" fill="#2f6fbb"/>
<circle class="point" cx="601.5" cy="160.2" r="3" fill="#2f6fbb"/>
<circle class="point" cx="608.6" cy="164.9" r="3" fill="#2f6fbb"/>
<circle class="point" cx="617.4" cy="157.2" r="3" fill="#2f6fbb"/>
<circle class="point" cx="615.9" cy="158.2" r="3" fill="#2f6fbb"/>
<circle class="point" cx="614.7" cy="158.4" r="3" fill="#2f6fbb"/>
<circle class="point" cx="534.5" cy="174.3" r="3" fill="#2f6fbb"/>
<circle class="point" cx="573.6" cy="168.2" r="3" fill="#2f6fbb"/>
<circle class="point" cx="547.9" cy="167.0" r="3" fill="#2f6fbb"/>
<circle class="point" cx="544.5" cy="175.4" r="3" fill="#2f6fbb"/>
<circle class="point" cx="541.3" cy="182.4" r="3" fill="#2f6fbb"/>
<circle class="point" cx="581.9" cy="170.4" r="3" fill="#2f6fbb"/>
<circle class="point" cx="531.6" cy="176.5" r="3" fill="#2f6fbb"/>
<circle class="point" cx="511.7" cy="190.2" r="3" fill="#2f6fbb"/>
<circle class="point" cx="553.2" cy="180.9" r="3" fill="#2f6fbb"/>
<circle class="point" cx="445.7" cy="205.2" r="3" fill="#2f6fbb"/>
<circle class="point" cx="418.2" cy="212.0" r="3" fill="#2f6fbb"/>
<circle class="point" cx="426.6" cy="207.0" r="3" fill="#2f6fbb"/>
<circle class="point" cx="517.1" cy="194.5" r="3" fill="#2f6fbb"/>
<circle class="point" cx="507.5" cy="181.6" r="3" fill="#2f6fbb"/>
<circle class="point" cx="501.7" cy="188.7" r="3" fill="#2f6fbb"/>
<circle class="point" cx="474.9" cy="196.2" r="3" fill="#2f6fbb"/>
<circle class="point" cx="450.9" cy="199.1" r="3" fill="#2f6fbb"/>
<circle class="point" cx="392.1" cy="210.0" r="3" fill="#2f6fbb"/>
<circle class="point" cx="410.5" cy="204.8" r="3" fill="#2f6fbb"/>
<circle class="point" cx="397.8" cy="206.5" r="3" fill="#2f6fbb"/>
<circle class="point" cx="403.7" cy="208.1" r="3" fill="#2f6fbb"/>
<circle class="point" cx="374.2" cy="214.7" r="3" fill="#2f6fbb"/>
<circle class="point" cx="413.7" cy="206.8" r="3" fill="#2f6fbb"/>
<circle class="point" cx="479.2" cy="195.2" r="3" fill="#2f6fbb"/>
<circle class="point" cx="500.8" cy="181.9" r="3" fill="#2f6fbb"/>
<line class="fit" x1="80.0" y1="274.6" x2="622.0" y2="145.6" stroke="#2f6fbb"/>
<line class="grid" x1="696.0" y1="78.0" x2="696.0" y2="337.0"/>
<text x="696.0" y="357.0" text-anchor="middle">40</text>
<line class="grid" x1="831.5" y1="78.0" x2="831.5" y2="337.0"/>
<text x="831.5" y="357.0" text-anchor="middle">50</text>
<line class="grid" x1="967.0" y1="78.0" x2="967.0" y2="337.0"/>
<text x="967.0" y="357.0" text-anchor="middle">60</text>
<line class="grid" x1="1102.5" y1="78.0" x2="1102.5" y2="337.0"/>
<text x="1102.5" y="357.0" text-anchor="middle">70</text>
<line class="grid" x1="1238.0" y1="78.0" x2="1238.0" y2="337.0"/>
<text x="1238.0" y="357.0" text-anchor="middle">80</text>
<line class="grid" x1="696.0" y1="337.0" x2="1238.0" y2="337.0"/>
<text x="688.0" y="341.0" text-anchor="end">100</text>
<line class="grid" x1="696.0" y1="285.2" x2="1238.0" y2="285.2"/>
<text x="688.0" y="289.2" text-anchor="end">120</text>
<line class="grid" x1="696.0" y1="233.4" x2="1238.0" y2="233.4"/>
<text x="688.0" y="237.4" text-anchor="end">140</text>
<line class="grid" x1="696.0" y1="181.6" x2="1238.0" y2="181.6"/>
<text x="688.0" y="185.6" text-anchor="end">160</text>
<line class="grid" x1="696.0" y1="129.8" x2="1238.0" y2="129.8"/>
<text x="688.0" y="133.8" text-anchor="end">180</text>
<line class="grid" x1="696.0" y1="78.0" x2="1238.0" y2="78.0"/>
<text x="688.0" y="82.0" text-anchor="end">200</text>
<line class="axis" x1="696.0" y1="78.0" x2="696.0" y2="337.0"/>
<line class="axis" x1="696.0" y1="337.0" x2="1238.0" y2="337.0"/>
<text x="696.0" y="64.0">迪拜 n=147 y=76.85+1.229x</text>
<circle class="point" cx="719.8" cy="257.1" r="3" fill="#7a5dbb"/>
<circle class="point" cx="753.6" cy="247.9" r="3" fill="#7a5dbb"/>
<circle class="point" cx="781.6" cy="242.2" r="3" fill="#7a5dbb"/>
<circle class="point" cx="763.1" cy="256.6" r="3" fill="#7a5dbb"/>
<circle class="point" cx="709.7" cy="267.2" r="3" fill="#7a5dbb"/>
<circle class="point" cx="734.2" cy="257.7" r="3" fill="#7a5dbb"/>
<circle class="point" cx="743.9" cy="248.2" r="3" fill="#7a5dbb"/>
<circle class="point" cx="747.1" cy="255.8" r="3" fill="#7a5dbb"/>
<circle class="point" cx="790.8" cy="241.1" r="3" fill="#7a5dbb"/>
<circle class="point" cx="764.3" cy="266.7" r="3" fill="#7a5dbb"/>
<circle class="point" cx="760.1" cy="258.1" r="3" fill="#7a5dbb"/>
<circle class="point" cx="850.2" cy="238.8" r="3" fill="#7a5dbb"/>
<circle class="point" cx="858.2" cy="234.3" r="3" fill="#7a5dbb"/>
<circle class="point" cx="879.8" cy="219.1" r="3" fill="#7a5dbb"/>
<circle class="point" cx="880.0" cy="221.7" r="3" fill="#7a5dbb"/>
<circle class="point" cx="888.1" cy="218.5" r="3" fill="#7a5dbb"/>
<circle class="point" cx="878.3" cy="225.3" r="3" fill="#7a5dbb"/>
<circle class="point" cx="847.1" cy="235.7" r="3" fill="#7a5dbb"/>
<circle class="point" cx="868.4" cy="225.5" r="3" fill="#7a5dbb"/>
<circle class="point" cx="842.4" cy="238.8" r="3" fill="#7a5dbb"/>
<circle class="point" cx="839.4" cy="229.3" r="3" fill="#7a5dbb"/>
<circle class="point" cx="813.5" cy="235.5" r="3" fill="#7a5dbb"/>
<circle class="point" cx="785.9" cy="250.5" r="3" fill="#7a5dbb"/>
<circle class="point" cx="788.3" cy="243.0" r="3" fill="#7a5dbb"/>
<circle class="point" cx="815.1" cy="231.8" r="3" fill="#7a5dbb"/>
<circle class="point" cx="846.0" cy="216.9" r="3" fill="#7a5dbb"/>
<circle class="point" cx="879.8" cy="211.5" r="3" fill="#7a5dbb"/>
<circle class="point" cx="906.3" cy="202.7" r="3" fill="#7a5dbb"/>
<circle class="point" cx="981.1" cy="187.8" r="3" fill="#7a5dbb"/>
<circle class="point" cx="978.5" cy="176.5" r="3" fill="#7a5dbb"/>
<circle class="point" cx="1040.5" cy="163.7" r="3" fill="#7a5dbb"/>
<circle class="point" cx="1050.0" cy="150.4" r="3" fill="#7a5dbb"/>
<circle class="point" cx="1031.2" cy="158.3" r="3" fill="#7a5dbb"/>
<circle class="point" cx="996.1" cy="173.1" r="3" fill="#7a5dbb"/>
<circle class="point" cx="993.3" cy="158.9" r="3" fill="#7a5dbb"/>
<circle class="point" cx="1050.2" cy="154.8" r="3" fill="#7a5dbb"/>
<circle class="point" cx="1076.2" cy="144.6" r="3" fill="#7a5dbb"/>
<circle class="point" cx="1125.3" cy="139.1" r="3" fill="#7a5dbb"/>
<circle class="point" cx="1164.4" cy="128.9" r="3" fill="#7a5dbb"/>
<circle class="point" cx="1157.7" cy="137.1" r="3" fill="#7a5dbb"/>
<circle class="point" cx="1149.6" cy="152.1" r="3" fill="#7a5dbb"/>
<circle class="point" cx="1162.0" cy="141.1" r="3" fill="#7a5dbb"/>
<circle class="point" cx="1139.1" cy="158.5" r="3" fill="#7a5dbb"/>
<circle class="point" cx="1137.4" cy="157.4" r="3" fill="#7a5dbb"/>
<circle class="point" cx="1118.9" cy="161.0" r="3" fill="#7a5dbb"/>
<circle class="point" cx="1140.5" cy="151.5" r="3" fill="#7a5dbb"/>
<circle class="point" cx="1183.2" cy="145.2" r="3" fill="#7a5dbb"/>
<circle class="point" cx="1205.1" cy="133.3" r="3" fill="#7a5dbb"/>
<circle class="point" cx="1209.4" cy="145.5" r="3" fill="#7a5dbb"/>
<circle class="point" cx="1092.8" cy="174.6" r="3" fill="#7a5dbb"/>
<circle class="point" cx="1047.5" cy="203.3" r="3" fill="#7a5dbb"/>
<circle class="point" cx="964.4" cy="206.7" r="3" fill="#7a5dbb"/>
<circle class="point" cx="935.7" cy="224.1" r="3" fill="#7a5dbb"/>
<circle class="point" cx="925.7" cy="212.1" r="3" fill="#7a5dbb"/>
<circle class="point" cx="954.6" cy="197.7" r="3" fill="#7a5dbb"/>
<circle class="point" cx="996.4" cy="197.4" r="3" fill="#7a5dbb"/>
<circle class="point" cx="1031.2" cy="179.2" r="3" fill="#7a5dbb"/>
<circle class="point" cx="1058.0" cy="175.4" r="3" fill="#7a5dbb"/>
<circle class="point" cx="1095.3" cy="177.5" r="3" fill="#7a5dbb"/>
<circle class="point" cx="1111.5" cy="168.9" r="3" fill="#7a5dbb"/>
<circle class="point" cx="1107.0" cy="181.8" r="3" fill="#7a5dbb"/>
<circle class="point" cx="1108.0" cy="181.3" r="3" fill="#7a5dbb"/>
<circle class="point" cx="1005.2" cy="205.5" r="3" fill="#7a5dbb"/>
<circle class="point" cx="981.1" cy="209.5" r="3" fill="#7a5dbb"/>
<circle class="point" cx="1002.1" cy="201.4" r="3" fill="#7a5dbb"/>
<circle class="point" cx="995.7" cy="215.9" r="3" fill="#7a5dbb"/>
<circle class="point" cx="948.9" cy="226.6" r="3" fill="#7a5dbb"/>
<circle class="point" cx="950.1" cy="225.2" r="3" fill="#7a5dbb"/>
<circle class="point" cx="967.8" cy="216.3" r="3" fill="#7a5dbb"/>
<circle class="point" cx="958.2" cy="222.8" r="3" fill="#7a5dbb"/>
<circle class="point" cx="965.4" cy="213.9" r="3" fill="#7a5dbb"/>
<circle class="point" cx="984.3" cy="211.4" r="3" fill="#7a5dbb"/>
<circle class="point" cx="988.5" cy="210.4" r="3" fill="#7a5dbb"/>
<circle class="point" cx="1022.3" cy="193.1" r="3" fill="#7a5dbb"/>
<circle class="point" cx="1023.1" cy="215.0" r="3" fill="#7a5dbb"/>
<circle class="point" cx="892.7" cy="237.3" r="3" fill="#7a5dbb"/>
<circle class="point" cx="777.5" cy="290.7" r="3" fill="#7a5dbb"/>
<circle class="point" cx="732.8" cy="277.6" r="3" fill="#7a5dbb"/>
<circle class="point" cx="742.9" cy="269.4" r="3" fill="#7a5dbb"/>
<circle class="point" cx="729.2" cy="278.6" r="3" fill="#7a5dbb"/>
<circle class="point" cx="712.6" cy="270.5" r="3" fill="#7a5dbb"/>
<circle class="point" cx="698.0" cy="275.3" r="3" fill="#7a5dbb"/>
<circle class="point" cx="727.6" cy="264.9" r="3" fill="#7a5dbb"/>
<circle class="point" cx="768.0" cy="249.8" r="3" fill="#7a5dbb"/>
<circle class="point" cx="822.1" cy="241.7" r="3" fill="#7a5dbb"/>
<circle class="point" cx="828.6" cy="236.3" r="3" fill="#7a5dbb"/>
<circle class="point" cx="886.7" cy="223.6" r="3" fill="#7a5dbb"/>
<circle class="point" cx="897.1" cy="216.4" r="3" fill="#7a5dbb"/>
<circle class="point" cx="954.6" cy="203.1" r="3" fill="#7a5dbb"/>
<circle class="point" cx="989.1" cy="189.7" r="3" fill="#7a5dbb"/>
<circle class="point" cx="1046.8" cy="179.2" r="3" fill="#7a5dbb"/>
<circle class="point" cx="1024.6" cy="195.0" r="3" fill="#7a5dbb"/>
<circle class="point" cx="998.9" cy="183.8" r="3" fill="#7a5dbb"/>
<circle class="point" cx="1046.0" cy="176.1" r="3" fill="#7a5dbb"/>
<circle class="point" cx="1074.8" cy="163.9" r="3" fill="#7a5dbb"/>
<circle class="point" cx="1121.1" cy="155.9" r="3" fill="#7a5dbb"/>
<circle class="point" cx="1146.0" cy="152.5" r="3" fill="#7a5dbb"/>
<circle class="point" cx="1136.5" cy="160.8" r="3" fill="#7a5dbb"/>
<circle class="point" cx="1103.1" cy="171.8" r="3" fill="#7a5dbb"/>
<circle class="point" cx="1100.3" cy="163.8" r="3" fill="#7a5dbb"/>
<circle class="point" cx="1117.9" cy="158.8" r="3" fill="#7a5dbb"/>
<circle class="point" cx="1168.6" cy="138.4" r="3" fill="#7a5dbb"/>
<circle class="point" cx="1191.2" cy="146.0" r="3" fill="#7a5dbb"/>
<circle class="point" cx="1139.8" cy="153.2" r="3" fill="#7a5dbb"/>
<circle class="point" cx="1141.2" cy="144.0" r="3" fill="#7a5dbb"/>
<circle class="point" cx="1178.3" cy="155.5" r="3" fill="#7a5dbb"/>
<circle class="point" cx="1198.0" cy="138.0" r="3" fill="#7a5dbb"/>
<circle class="point" cx="1212.8" cy="139.2" r="3" fill="#7a5dbb"/>
<circle class="point" cx="1213.5" cy="158.8" r="3" fill="#7a5dbb"/>
<circle class="point" cx="1170.5" cy="166.4" r="3" fill="#7a5dbb"/>
<circle class="point" cx="1169.6" cy="168.2" r="3" fill="#7a5dbb"/>
<circle class="point" cx="1160.7" cy="174.0" r="3" fill="#7a5dbb"/>
<circle class="point" cx="1170.4" cy="175.8" r="3" fill="#7a5dbb"/>
<circle class="point" cx="1202.6" cy="162.2" r="3" fill="#7a5dbb"/>
<circle class="point" cx="1234.7" cy="150.0" r="3" fill="#7a5dbb"/>
<circle class="point" cx="1186.9" cy="168.7" r="3" fill="#7a5dbb"/>
<circle class="point" cx="1201.1" cy="160.2" r="3" fill="#7a5dbb"/>
<circle class="point" cx="1204.0" cy="164.9" r="3" fill="#7a5dbb"/>
<circle class="point" cx="1218.1" cy="154.1" r="3" fill="#7a5dbb"/>
<circle class="point" cx="1222.7" cy="158.2" r="3" fill="#7a5dbb"/>
<circle class="point" cx="1194.4" cy="158.4" r="3" fill="#7a5dbb"/>
<circle class="point" cx="1141.4" cy="174.3" r="3" fill="#7a5dbb"/>
<circle class="point" cx="1173.4" cy="168.2" r="3" fill="#7a5dbb"/>
<circle class="point" cx="1175.4" cy="167.0" r="3" fill="#7a5dbb"/>
<circle class="point" cx="1162.0" cy="175.4" r="3" fill="#7a5dbb"/>
<circle class="point" cx="1139.6" cy="182.4" r="3" fill="#7a5dbb"/>
<circle class="point" cx="1221.1" cy="166.2" r="3" fill="#7a5dbb"/>
<circle class="point" cx="1225.0" cy="170.4" r="3" fill="#7a5dbb"/>
<circle class="point" cx="1171.9" cy="176.5" r="3" fill="#7a5dbb"/>
<circle class="point" cx="1120.8" cy="190.2" r="3" fill="#7a5dbb"/>
<circle class="point" cx="1150.3" cy="180.9" r="3" fill="#7a5dbb"/>
<circle class="point" cx="1069.0" cy="205.2" r="3" fill="#7a5dbb"/>
<circle class="point" cx="1034.0" cy="212.0" r="3" fill="#7a5dbb"/>
<circle class="point" cx="1019.2" cy="207.0" r="3" fill="#7a5dbb"/>
<circle class="point" cx="1072.4" cy="194.5" r="3" fill="#7a5dbb"/>
<circle class="point" cx="1094.5" cy="181.6" r="3" fill="#7a5dbb"/>
<circle class="point" cx="1105.3" cy="188.7" r="3" fill="#7a5dbb"/>
<circle class="point" cx="1098.9" cy="196.2" r="3" fill="#7a5dbb"/>
<circle class="point" cx="1081.6" cy="199.1" r="3" fill="#7a5dbb"/>
<circle class="point" cx="1022.9" cy="210.0" r="3" fill="#7a5dbb"/>
<circle class="point" cx="1038.4" cy="204.8" r="3" fill="#7a5dbb"/>
<circle class="point" cx="1030.2" cy="206.5" r="3" fill="#7a5dbb"/>
<circle class="point" cx="1017.6" cy="208.1" r="3" fill="#7a5dbb"/>
<circle class="point" cx="991.6" cy="214.7" r="3" fill="#7a5dbb"/>
<circle class="point" cx="983.0" cy="206.8" r="3" fill="#7a5dbb"/>
<circle class="point" cx="1009.8" cy="195.2" r="3" fill="#7a5dbb"/>
<circle class="point" cx="1070.9" cy="181.9" r="3" fill="#7a5dbb"/>
<line class="fit" x1="696.0" y1="269.6" x2="1238.0" y2="142.3" stroke="#7a5dbb"/>
<line class="grid" x1="80.0" y1="423.0" x2="80.0" y2="682.0"/>
<text x="80.0" y="702.0" text-anchor="middle">40</text>
<line class="grid" x1="215.5" y1="423.0" x2="215.5" y2="682.0"/>
<text x="215.5" y="702.0" text-anchor="middle">50</text>
<line class="grid" x1="351.0" y1="423.0" x2="351.0" y2="682.0"/>
<text x="351.0" y="702.0" text-anchor="middle">60</text>
<line class="grid" x1="486.5" y1="423.0" x2="486.5" y2="682.0"/>
<text x="486.5" y="702.0" text-anchor="middle">70</text>
<line class="grid" x1="622.0" y1="423.0" x2="622.0" y2="682.0"/>
<text x="622.0" y="702.0" text-anchor="middle">80</text>
<line class="grid" x1="80.0" y1="682.0" x2="622.0" y2="682.0"/>
<text x="72.0" y="686.0" text-anchor="end">100</text>
<line class="grid" x1="80.0" y1="630.2" x2="622.0" y2="630.2"/>
<text x="72.0" y="634.2" text-anchor="end">120</text>
<line class="grid" x1="80.0" y1="578.4" x2="622.0" y2="578.4"/>
<text x="72.0" y="582.4" text-anchor="end">140</text>
<line class="grid" x1="80.0" y1="526.6" x2="622.0" y2="526.6"/>
<text x="72.0" y="530.6" text-anchor="end">160</text>
<line class="grid" x1="80.0" y1="474.8" x2="622.0" y2="474.8"/>
<text x="72.0" y="478.8" text-anchor="end">180</text>
<line class="grid" x1="80.0" y1="423.0" x2="622.0" y2="423.0"/>
<text x="72.0" y="427.0" text-anchor="end">200</text>
<line class="axis" x1="80.0" y1="423.0" x2="80.0" y2="682.0"/>
<line class="axis" x1="80.0" y1="682.0" x2="622.0" y2="682.0"/>
<text x="80.0" y="409.0">WTI n=155 y=76.49+1.294x</text>
<circle class="point" cx="146.6" cy="602.1" r="3" fill="#348f6c"/>
<circle class="point" cx="189.0" cy="592.9" r="3" fill="#348f6c"/>
<circle class="point" cx="211.3" cy="587.2" r="3" fill="#348f6c"/>
<circle class="point" cx="173.9" cy="601.6" r="3" fill="#348f6c"/>
<circle class="point" cx="97.9" cy="612.2" r="3" fill="#348f6c"/>
<circle class="point" cx="149.6" cy="602.7" r="3" fill="#348f6c"/>
<circle class="point" cx="162.3" cy="593.2" r="3" fill="#348f6c"/>
<circle class="point" cx="146.2" cy="600.8" r="3" fill="#348f6c"/>
<circle class="point" cx="194.0" cy="586.1" r="3" fill="#348f6c"/>
<circle class="point" cx="166.8" cy="611.7" r="3" fill="#348f6c"/>
<circle class="point" cx="179.5" cy="603.1" r="3" fill="#348f6c"/>
<circle class="point" cx="234.8" cy="583.8" r="3" fill="#348f6c"/>
<circle class="point" cx="249.1" cy="579.3" r="3" fill="#348f6c"/>
<circle class="point" cx="252.7" cy="564.1" r="3" fill="#348f6c"/>
<circle class="point" cx="245.7" cy="566.7" r="3" fill="#348f6c"/>
<circle class="point" cx="257.6" cy="563.5" r="3" fill="#348f6c"/>
<circle class="point" cx="241.7" cy="570.3" r="3" fill="#348f6c"/>
<circle class="point" cx="185.5" cy="580.7" r="3" fill="#348f6c"/>
<circle class="point" cx="240.0" cy="570.5" r="3" fill="#348f6c"/>
<circle class="point" cx="196.8" cy="583.8" r="3" fill="#348f6c"/>
<circle class="point" cx="211.8" cy="574.3" r="3" fill="#348f6c"/>
<circle class="point" cx="180.5" cy="580.5" r="3" fill="#348f6c"/>
<circle class="point" cx="136.8" cy="595.5" r="3" fill="#348f6c"/>
<circle class="point" cx="153.4" cy="588.0" r="3" fill="#348f6c"/>
<circle class="point" cx="200.5" cy="576.8" r="3" fill="#348f6c"/>
<circle class="point" cx="189.5" cy="561.9" r="3" fill="#348f6c"/>
<circle class="point" cx="228.4" cy="556.5" r="3" fill="#348f6c"/>
<circle class="point" cx="242.2" cy="547.7" r="3" fill="#348f6c"/>
<circle class="point" cx="302.7" cy="532.8" r="3" fill="#348f6c"/>
<circle class="point" cx="321.1" cy="521.5" r="3" fill="#348f6c"/>
<circle class="point" cx="383.7" cy="508.7" r="3" fill="#348f6c"/>
<circle class="point" cx="412.4" cy="495.4" r="3" fill="#348f6c"/>
<circle class="point" cx="400.7" cy="503.3" r="3" fill="#348f6c"/>
<circle class="point" cx="373.8" cy="518.1" r="3" fill="#348f6c"/>
<circle class="point" cx="389.1" cy="503.9" r="3" fill="#348f6c"/>
<circle class="point" cx="412.6" cy="499.8" r="3" fill="#348f6c"/>
<circle class="point" cx="455.7" cy="489.6" r="3" fill="#348f6c"/>
<circle class="point" cx="479.3" cy="484.1" r="3" fill="#348f6c"/>
<circle class="point" cx="501.9" cy="473.9" r="3" fill="#348f6c"/>
<circle class="point" cx="433.2" cy="482.1" r="3" fill="#348f6c"/>
<circle class="point" cx="450.1" cy="497.1" r="3" fill="#348f6c"/>
<circle class="point" cx="543.6" cy="486.1" r="3" fill="#348f6c"/>
<circle class="point" cx="480.0" cy="503.5" r="3" fill="#348f6c"/>
<circle class="point" cx="482.3" cy="502.4" r="3" fill="#348f6c"/>
<circle class="point" cx="440.3" cy="506.0" r="3" fill="#348f6c"/>
<circle class="point" cx="478.7" cy="496.5" r="3" fill="#348f6c"/>
<circle class="point" cx="469.9" cy="490.2" r="3" fill="#348f6c"/>
<circle class="point" cx="519.9" cy="478.3" r="3" fill="#348f6c"/>
<circle class="point" cx="521.6" cy="473.9" r="3" fill="#348f6c"/>
<circle class="point" cx="435.6" cy="490.5" r="3" fill="#348f6c"/>
<circle class="point" cx="340.8" cy="519.6" r="3" fill="#348f6c"/>
<circle class="point" cx="249.4" cy="548.3" r="3" fill="#348f6c"/>
<circle class="point" cx="243.7" cy="551.7" r="3" fill="#348f6c"/>
<circle class="point" cx="165.7" cy="569.1" r="3" fill="#348f6c"/>
<circle class="point" cx="211.4" cy="557.1" r="3" fill="#348f6c"/>
<circle class="point" cx="251.4" cy="542.7" r="3" fill="#348f6c"/>
<circle class="point" cx="268.0" cy="542.4" r="3" fill="#348f6c"/>
<circle class="point" cx="302.2" cy="524.2" r="3" fill="#348f6c"/>
<circle class="point" cx="327.6" cy="520.4" r="3" fill="#348f6c"/>
<circle class="point" cx="394.8" cy="522.5" r="3" fill="#348f6c"/>
<circle class="point" cx="413.6" cy="513.9" r="3" fill="#348f6c"/>
<circle class="point" cx="380.8" cy="526.8" r="3" fill="#348f6c"/>
<circle class="point" cx="366.4" cy="526.3" r="3" fill="#348f6c"/>
<circle class="point" cx="266.5" cy="550.5" r="3" fill="#348f6c"/>
<circle class="point" cx="287.5" cy="554.5" r="3" fill="#348f6c"/>
<circle class="point" cx="324.8" cy="546.4" r="3" fill="#348f6c"/>
<circle class="point" cx="300.9" cy="560.9" r="3" fill="#348f6c"/>
<circle class="point" cx="285.4" cy="571.6" r="3" fill="#348f6c"/>
<circle class="point" cx="284.1" cy="570.2" r="3" fill="#348f6c"/>
<circle class="point" cx="316.9" cy="561.3" r="3" fill="#348f6c"/>
<circle class="point" cx="274.0" cy="567.8" r="3" fill="#348f6c"/>
<circle class="point" cx="293.8" cy="558.9" r="3" fill="#348f6c"/>
<circle class="point" cx="305.1" cy="556.4" r="3" fill="#348f6c"/>
<circle class="point" cx="316.6" cy="555.4" r="3" fill="#348f6c"/>
<circle class="point" cx="353.9" cy="538.1" r="3" fill="#348f6c"/>
<circle class="point" cx="304.9" cy="560.0" r="3" fill="#348f6c"/>
<circle class="point" cx="231.8" cy="582.3" r="3" fill="#348f6c"/>
<circle class="point" cx="90.3" cy="635.7" r="3" fill="#348f6c"/>
<circle class="point" cx="83.3" cy="622.6" r="3" fill="#348f6c"/>
<circle class="point" cx="100.2" cy="614.4" r="3" fill="#348f6c"/>
<circle class="point" cx="87.9" cy="623.6" r="3" fill="#348f6c"/>
<circle class="point" cx="94.7" cy="609.9" r="3" fill="#348f6c"/>
<circle class="point" cx="147.8" cy="594.8" r="3" fill="#348f6c"/>
<circle class="point" cx="174.9" cy="586.7" r="3" fill="#348f6c"/>
<circle class="point" cx="186.5" cy="581.3" r="3" fill="#348f6c"/>
<circle class="point" cx="234.8" cy="568.6" r="3" fill="#348f6c"/>
<circle class="point" cx="251.5" cy="561.4" r="3" fill="#348f6c"/>
<circle class="point" cx="322.3" cy="548.1" r="3" fill="#348f6c"/>
<circle class="point" cx="376.4" cy="534.7" r="3" fill="#348f6c"/>
<circle class="point" cx="413.2" cy="524.2" r="3" fill="#348f6c"/>
<circle class="point" cx="356.2" cy="540.0" r="3" fill="#348f6c"/>
<circle class="point" cx="373.2" cy="528.8" r="3" fill="#348f6c"/>
<circle class="point" cx="417.9" cy="521.1" r="3" fill="#348f6c"/>
<circle class="point" cx="449.5" cy="508.9" r="3" fill="#348f6c"/>
<circle class="point" cx="521.8" cy="500.9" r="3" fill="#348f6c"/>
<circle class="point" cx="542.3" cy="497.5" r="3" fill="#348f6c"/>
<circle class="point" cx="498.3" cy="505.8" r="3" fill="#348f6c"/>
<circle class="point" cx="464.5" cy="516.8" r="3" fill="#348f6c"/>
<circle class="point" cx="470.0" cy="508.8" r="3" fill="#348f6c"/>
<circle class="point" cx="496.5" cy="503.8" r="3" fill="#348f6c"/>
<circle class="point" cx="559.4" cy="483.4" r="3" fill="#348f6c"/>
<circle class="point" cx="499.8" cy="491.0" r="3" fill="#348f6c"/>
<circle class="point" cx="503.4" cy="498.2" r="3" fill="#348f6c"/>
<circle class="point" cx="541.8" cy="489.0" r="3" fill="#348f6c"/>
<circle class="point" cx="594.7" cy="478.4" r="3" fill="#348f6c"/>
<circle class="point" cx="541.9" cy="500.5" r="3" fill="#348f6c"/>
<circle class="point" cx="595.0" cy="483.0" r="3" fill="#348f6c"/>
<circle class="point" cx="580.8" cy="484.2" r="3" fill="#348f6c"/>
<circle class="point" cx="605.9" cy="475.0" r="3" fill="#348f6c"/>
<circle class="point" cx="567.8" cy="487.7" r="3" fill="#348f6c"/>
<circle class="point" cx="507.6" cy="503.8" r="3" fill="#348f6c"/>
<circle class="point" cx="581.1" cy="486.5" r="3" fill="#348f6c"/>
<circle class="point" cx="508.1" cy="511.4" r="3" fill="#348f6c"/>
<circle class="point" cx="507.6" cy="513.2" r="3" fill="#348f6c"/>
<circle class="point" cx="492.4" cy="519.0" r="3" fill="#348f6c"/>
<circle class="point" cx="486.8" cy="520.8" r="3" fill="#348f6c"/>
<circle class="point" cx="529.2" cy="507.2" r="3" fill="#348f6c"/>
<circle class="point" cx="583.2" cy="495.0" r="3" fill="#348f6c"/>
<circle class="point" cx="583.6" cy="491.7" r="3" fill="#348f6c"/>
<circle class="point" cx="540.6" cy="494.6" r="3" fill="#348f6c"/>
<circle class="point" cx="499.6" cy="513.7" r="3" fill="#348f6c"/>
<circle class="point" cx="527.0" cy="505.2" r="3" fill="#348f6c"/>
<circle class="point" cx="522.5" cy="509.9" r="3" fill="#348f6c"/>
<circle class="point" cx="570.1" cy="499.1" r="3" fill="#348f6c"/>
<circle class="point" cx="591.4" cy="494.0" r="3" fill="#348f6c"/>
<circle class="point" cx="602.2" cy="502.2" r="3" fill="#348f6c"/>
<circle class="point" cx="577.5" cy="503.2" r="3" fill="#348f6c"/>
<circle class="point" cx="559.7" cy="503.4" r="3" fill="#348f6c"/>
<circle class="point" cx="493.0" cy="519.3" r="3" fill="#348f6c"/>
<circle class="point" cx="521.4" cy="513.2" r="3" fill="#348f6c"/>
<circle class="point" cx="502.0" cy="512.0" r="3" fill="#348f6c"/>
<circle class="point" cx="492.2" cy="520.4" r="3" fill="#348f6c"/>
<circle class="point" cx="487.0" cy="527.4" r="3" fill="#348f6c"/>
<circle class="point" cx="587.3" cy="511.2" r="3" fill="#348f6c"/>
<circle class="point" cx="528.5" cy="515.4" r="3" fill="#348f6c"/>
<circle class="point" cx="473.9" cy="521.5" r="3" fill="#348f6c"/>
<circle class="point" cx="450.3" cy="535.2" r="3" fill="#348f6c"/>
<circle class="point" cx="487.3" cy="525.9" r="3" fill="#348f6c"/>
<circle class="point" cx="378.5" cy="550.2" r="3" fill="#348f6c"/>
<circle class="point" cx="383.5" cy="557.0" r="3" fill="#348f6c"/>
<circle class="point" cx="387.0" cy="552.0" r="3" fill="#348f6c"/>
<circle class="point" cx="481.8" cy="539.5" r="3" fill="#348f6c"/>
<circle class="point" cx="458.2" cy="526.6" r="3" fill="#348f6c"/>
<circle class="point" cx="466.8" cy="533.7" r="3" fill="#348f6c"/>
<circle class="point" cx="434.6" cy="541.2" r="3" fill="#348f6c"/>
<circle class="point" cx="396.7" cy="544.1" r="3" fill="#348f6c"/>
<circle class="point" cx="350.7" cy="555.0" r="3" fill="#348f6c"/>
<circle class="point" cx="365.5" cy="549.8" r="3" fill="#348f6c"/>
<circle class="point" cx="348.9" cy="551.5" r="3" fill="#348f6c"/>
<circle class="point" cx="339.3" cy="553.1" r="3" fill="#348f6c"/>
<circle class="point" cx="313.4" cy="559.7" r="3" fill="#348f6c"/>
<circle class="point" cx="331.8" cy="551.8" r="3" fill="#348f6c"/>
<circle class="point" cx="382.5" cy="540.2" r="3" fill="#348f6c"/>
<circle class="point" cx="413.7" cy="526.9" r="3" fill="#348f6c"/>
<circle class="point" cx="595.3" cy="491.7" r="3" fill="#348f6c"/>
<line class="fit" x1="80.0" y1="608.8" x2="622.0" y2="474.7" stroke="#348f6c"/>
<line class="grid" x1="696.0" y1="423.0" x2="696.0" y2="682.0"/>
<text x="696.0" y="702.0" text-anchor="middle">40</text>
<line class="grid" x1="831.5" y1="423.0" x2="831.5" y2="682.0"/>
<text x="831.5" y="702.0" text-anchor="middle">50</text>
<line class="grid" x1="967.0" y1="423.0" x2="967.0" y2="682.0"/>
<text x="967.0" y="702.0" text-anchor="middle">60</text>
<line class="grid" x1="1102.5" y1="423.0" x2="1102.5" y2="682.0"/>
<text x="1102.5" y="702.0" text-anchor="middle">70</text>
<line class="grid" x1="1238.0" y1="423.0" x2="1238.0" y2="682.0"/>
<text x="1238.0" y="702.0" text-anchor="middle">80</text>
<line class="grid" x1="696.0" y1="682.0" x2="1238.0" y2="682.0"/>
<text x="688.0" y="686.0" text-anchor="end">100</text>
<line class="grid" x1="696.0" y1="630.2" x2="1238.0" y2="630.2"/>
<text x="688.0" y="634.2" text-anchor="end">120</text>
<line class="grid" x1="696.0" y1="578.4" x2="1238.0" y2="578.4"/>
<text x="688.0" y="582.4" text-anchor="end">140</text>
<line class="grid" x1="696.0" y1="526.6" x2="1238.0" y2="526.6"/>
<text x="688.0" y="530.6" text-anchor="end">160</text>
<line class="grid" x1="696.0" y1="474.8" x2="1238.0" y2="474.8"/>
<text x="688.0" y="478.8" text-anchor="end">180</text>
<line class="grid" x1="696.0" y1="423.0" x2="1238.0" y2="423.0"/>
<text x="688.0" y="427.0" text-anchor="end">200</text>
<line class="axis" x1="696.0" y1="423.0" x2="696.0" y2="682.0"/>
<line class="axis" x1="696.0" y1="682.0" x2="1238.0" y2="682.0"/>
<text x="696.0" y="409.0">三油算术均价 n=149 y=74.33+1.280x</text>
<circle class="point" cx="747.1" cy="602.1" r="3" fill="#222222"/>
<circle class="point" cx="789.1" cy="592.9" r="3" fill="#222222"/>
<circle class="point" cx="810.8" cy="587.2" r="3" fill="#222222"/>
<circle class="point" cx="779.7" cy="601.6" r="3" fill="#222222"/>
<circle class="point" cx="714.3" cy="612.2" r="3" fill="#222222"/>
<circle class="point" cx="759.6" cy="602.7" r="3" fill="#222222"/>
<circle class="point" cx="775.5" cy="593.2" r="3" fill="#222222"/>
<circle class="point" cx="765.8" cy="600.8" r="3" fill="#222222"/>
<circle class="point" cx="804.4" cy="586.1" r="3" fill="#222222"/>
<circle class="point" cx="772.4" cy="611.7" r="3" fill="#222222"/>
<circle class="point" cx="781.4" cy="603.1" r="3" fill="#222222"/>
<circle class="point" cx="855.8" cy="583.8" r="3" fill="#222222"/>
<circle class="point" cx="870.3" cy="579.3" r="3" fill="#222222"/>
<circle class="point" cx="880.6" cy="564.1" r="3" fill="#222222"/>
<circle class="point" cx="878.2" cy="566.7" r="3" fill="#222222"/>
<circle class="point" cx="886.5" cy="563.5" r="3" fill="#222222"/>
<circle class="point" cx="872.1" cy="570.3" r="3" fill="#222222"/>
<circle class="point" cx="828.4" cy="580.7" r="3" fill="#222222"/>
<circle class="point" cx="868.5" cy="570.5" r="3" fill="#222222"/>
<circle class="point" cx="827.0" cy="583.8" r="3" fill="#222222"/>
<circle class="point" cx="842.7" cy="574.3" r="3" fill="#222222"/>
<circle class="point" cx="808.2" cy="580.5" r="3" fill="#222222"/>
<circle class="point" cx="769.3" cy="595.5" r="3" fill="#222222"/>
<circle class="point" cx="784.5" cy="588.0" r="3" fill="#222222"/>
<circle class="point" cx="825.5" cy="576.8" r="3" fill="#222222"/>
<circle class="point" cx="839.9" cy="561.9" r="3" fill="#222222"/>
<circle class="point" cx="887.5" cy="556.5" r="3" fill="#222222"/>
<circle class="point" cx="901.2" cy="547.7" r="3" fill="#222222"/>
<circle class="point" cx="968.7" cy="532.8" r="3" fill="#222222"/>
<circle class="point" cx="978.7" cy="521.5" r="3" fill="#222222"/>
<circle class="point" cx="1041.9" cy="508.7" r="3" fill="#222222"/>
<circle class="point" cx="1059.0" cy="495.4" r="3" fill="#222222"/>
<circle class="point" cx="1035.4" cy="503.3" r="3" fill="#222222"/>
<circle class="point" cx="1005.9" cy="518.1" r="3" fill="#222222"/>
<circle class="point" cx="1016.0" cy="503.9" r="3" fill="#222222"/>
<circle class="point" cx="1057.6" cy="499.8" r="3" fill="#222222"/>
<circle class="point" cx="1102.4" cy="489.6" r="3" fill="#222222"/>
<circle class="point" cx="1132.2" cy="484.1" r="3" fill="#222222"/>
<circle class="point" cx="1167.4" cy="473.9" r="3" fill="#222222"/>
<circle class="point" cx="1123.8" cy="482.1" r="3" fill="#222222"/>
<circle class="point" cx="1124.3" cy="497.1" r="3" fill="#222222"/>
<circle class="point" cx="1171.3" cy="486.1" r="3" fill="#222222"/>
<circle class="point" cx="1123.8" cy="503.5" r="3" fill="#222222"/>
<circle class="point" cx="1128.4" cy="502.4" r="3" fill="#222222"/>
<circle class="point" cx="1094.4" cy="506.0" r="3" fill="#222222"/>
<circle class="point" cx="1138.2" cy="496.5" r="3" fill="#222222"/>
<circle class="point" cx="1158.1" cy="490.2" r="3" fill="#222222"/>
<circle class="point" cx="1198.8" cy="478.3" r="3" fill="#222222"/>
<circle class="point" cx="1224.4" cy="473.9" r="3" fill="#222222"/>
<circle class="point" cx="1149.0" cy="490.5" r="3" fill="#222222"/>
<circle class="point" cx="1042.9" cy="519.6" r="3" fill="#222222"/>
<circle class="point" cx="959.7" cy="548.3" r="3" fill="#222222"/>
<circle class="point" cx="930.3" cy="551.7" r="3" fill="#222222"/>
<circle class="point" cx="865.9" cy="569.1" r="3" fill="#222222"/>
<circle class="point" cx="894.8" cy="557.1" r="3" fill="#222222"/>
<circle class="point" cx="933.8" cy="542.7" r="3" fill="#222222"/>
<circle class="point" cx="960.1" cy="542.4" r="3" fill="#222222"/>
<circle class="point" cx="997.3" cy="524.2" r="3" fill="#222222"/>
<circle class="point" cx="1017.8" cy="520.4" r="3" fill="#222222"/>
<circle class="point" cx="1071.5" cy="522.5" r="3" fill="#222222"/>
<circle class="point" cx="1090.3" cy="513.9" r="3" fill="#222222"/>
<circle class="point" cx="1075.9" cy="526.8" r="3" fill="#222222"/>
<circle class="point" cx="1072.5" cy="526.3" r="3" fill="#222222"/>
<circle class="point" cx="973.0" cy="550.5" r="3" fill="#222222"/>
<circle class="point" cx="970.8" cy="554.5" r="3" fill="#222222"/>
<circle class="point" cx="992.2" cy="546.4" r="3" fill="#222222"/>
<circle class="point" cx="971.7" cy="560.9" r="3" fill="#222222"/>
<circle class="point" cx="932.0" cy="571.6" r="3" fill="#222222"/>
<circle class="point" cx="936.7" cy="570.2" r="3" fill="#222222"/>
<circle class="point" cx="972.4" cy="561.3" r="3" fill="#222222"/>
<circle class="point" cx="940.4" cy="567.8" r="3" fill="#222222"/>
<circle class="point" cx="952.2" cy="558.9" r="3" fill="#222222"/>
<circle class="point" cx="968.6" cy="556.4" r="3" fill="#222222"/>
<circle class="point" cx="982.3" cy="555.4" r="3" fill="#222222"/>
<circle class="point" cx="1021.0" cy="538.1" r="3" fill="#222222"/>
<circle class="point" cx="981.8" cy="560.0" r="3" fill="#222222"/>
<circle class="point" cx="885.0" cy="582.3" r="3" fill="#222222"/>
<circle class="point" cx="746.8" cy="635.7" r="3" fill="#222222"/>
<circle class="point" cx="722.0" cy="622.6" r="3" fill="#222222"/>
<circle class="point" cx="736.4" cy="614.4" r="3" fill="#222222"/>
<circle class="point" cx="719.1" cy="623.6" r="3" fill="#222222"/>
<circle class="point" cx="705.1" cy="615.5" r="3" fill="#222222"/>
<circle class="point" cx="722.5" cy="609.9" r="3" fill="#222222"/>
<circle class="point" cx="774.8" cy="594.8" r="3" fill="#222222"/>
<circle class="point" cx="815.7" cy="586.7" r="3" fill="#222222"/>
<circle class="point" cx="824.1" cy="581.3" r="3" fill="#222222"/>
<circle class="point" cx="875.9" cy="568.6" r="3" fill="#222222"/>
<circle class="point" cx="888.9" cy="561.4" r="3" fill="#222222"/>
<circle class="point" cx="958.2" cy="548.1" r="3" fill="#222222"/>
<circle class="point" cx="1007.5" cy="534.7" r="3" fill="#222222"/>
<circle class="point" cx="1049.2" cy="524.2" r="3" fill="#222222"/>
<circle class="point" cx="1002.0" cy="540.0" r="3" fill="#222222"/>
<circle class="point" cx="1006.3" cy="528.8" r="3" fill="#222222"/>
<circle class="point" cx="1055.1" cy="521.1" r="3" fill="#222222"/>
<circle class="point" cx="1079.1" cy="508.9" r="3" fill="#222222"/>
<circle class="point" cx="1140.3" cy="500.9" r="3" fill="#222222"/>
<circle class="point" cx="1165.4" cy="497.5" r="3" fill="#222222"/>
<circle class="point" cx="1133.8" cy="505.8" r="3" fill="#222222"/>
<circle class="point" cx="1101.4" cy="516.8" r="3" fill="#222222"/>
<circle class="point" cx="1106.7" cy="508.8" r="3" fill="#222222"/>
<circle class="point" cx="1126.1" cy="503.8" r="3" fill="#222222"/>
<circle class="point" cx="1187.6" cy="483.4" r="3" fill="#222222"/>
<circle class="point" cx="1161.9" cy="491.0" r="3" fill="#222222"/>
<circle class="point" cx="1139.9" cy="498.2" r="3" fill="#222222"/>
<circle class="point" cx="1158.7" cy="489.0" r="3" fill="#222222"/>
<circle class="point" cx="1189.0" cy="500.5" r="3" fill="#222222"/>
<circle class="point" cx="1217.6" cy="483.0" r="3" fill="#222222"/>
<circle class="point" cx="1219.0" cy="484.2" r="3" fill="#222222"/>
<circle class="point" cx="1235.4" cy="487.7" r="3" fill="#222222"/>
<circle class="point" cx="1174.2" cy="503.8" r="3" fill="#222222"/>
<circle class="point" cx="1157.1" cy="511.4" r="3" fill="#222222"/>
<circle class="point" cx="1156.5" cy="513.2" r="3" fill="#222222"/>
<circle class="point" cx="1146.4" cy="519.0" r="3" fill="#222222"/>
<circle class="point" cx="1146.6" cy="520.8" r="3" fill="#222222"/>
<circle class="point" cx="1184.7" cy="507.2" r="3" fill="#222222"/>
<circle class="point" cx="1228.7" cy="495.0" r="3" fill="#222222"/>
<circle class="point" cx="1212.5" cy="494.6" r="3" fill="#222222"/>
<circle class="point" cx="1165.7" cy="513.7" r="3" fill="#222222"/>
<circle class="point" cx="1187.2" cy="505.2" r="3" fill="#222222"/>
<circle class="point" cx="1189.0" cy="509.9" r="3" fill="#222222"/>
<circle class="point" cx="1225.6" cy="499.1" r="3" fill="#222222"/>
<circle class="point" cx="1216.1" cy="503.2" r="3" fill="#222222"/>
<circle class="point" cx="1200.3" cy="503.4" r="3" fill="#222222"/>
<circle class="point" cx="1133.6" cy="519.3" r="3" fill="#222222"/>
<circle class="point" cx="1166.8" cy="513.2" r="3" fill="#222222"/>
<circle class="point" cx="1152.4" cy="512.0" r="3" fill="#222222"/>
<circle class="point" cx="1143.6" cy="520.4" r="3" fill="#222222"/>
<circle class="point" cx="1133.3" cy="527.4" r="3" fill="#222222"/>
<circle class="point" cx="1222.9" cy="511.2" r="3" fill="#222222"/>
<circle class="point" cx="1189.2" cy="515.4" r="3" fill="#222222"/>
<circle class="point" cx="1136.5" cy="521.5" r="3" fill="#222222"/>
<circle class="point" cx="1104.9" cy="535.2" r="3" fill="#222222"/>
<circle class="point" cx="1140.9" cy="525.9" r="3" fill="#222222"/>
<circle class="point" cx="1041.7" cy="550.2" r="3" fill="#222222"/>
<circle class="point" cx="1022.5" cy="557.0" r="3" fill="#222222"/>
<circle class="point" cx="1021.6" cy="552.0" r="3" fill="#222222"/>
<circle class="point" cx="1101.1" cy="539.5" r="3" fill="#222222"/>
<circle class="point" cx="1097.4" cy="526.6" r="3" fill="#222222"/>
<circle class="point" cx="1102.0" cy="533.7" r="3" fill="#222222"/>
<circle class="point" cx="1080.1" cy="541.2" r="3" fill="#222222"/>
<circle class="point" cx="1053.7" cy="544.1" r="3" fill="#222222"/>
<circle class="point" cx="999.2" cy="555.0" r="3" fill="#222222"/>
<circle class="point" cx="1015.5" cy="549.8" r="3" fill="#222222"/>
<circle class="point" cx="1003.0" cy="551.5" r="3" fill="#222222"/>
<circle class="point" cx="997.5" cy="553.1" r="3" fill="#222222"/>
<circle class="point" cx="970.4" cy="559.7" r="3" fill="#222222"/>
<circle class="point" cx="986.9" cy="551.8" r="3" fill="#222222"/>
<circle class="point" cx="1034.5" cy="540.2" r="3" fill="#222222"/>
<circle class="point" cx="1072.5" cy="526.9" r="3" fill="#222222"/>
<line class="fit" x1="696.0" y1="615.8" x2="1238.0" y2="483.2" stroke="#222222"/>
<text x="80" y="732">横轴：国际原油区间均价 USD/bbl；纵轴：国内汽油 USD/bbl。</text>
</svg>