<svg xmlns="http://www.w3.org/2000/svg" width="1280" height="620" viewBox="0 0 1280 620">
<style>
text{font-family:Arial,'Microsoft YaHei',sans-serif;font-size:12px;fill:#222}
.title{font-size:18px;font-weight:700}
.note{fill:#666;font-size:11px}
.axis{stroke:#222;stroke-width:1}
.grid{stroke:#ddd;stroke-width:1}
.line{fill:none;stroke-width:2}
</style>
<text class="title" x="92" y="30">成品油调价日与国际原油区间均价</text>
<text class="note" x="92" y="50">区间均值按 (prev, cur] 计算；汽油价格按 USD_CNY 与 7.33 bbl/ton 换算为 USD/bbl。</text>
<line class="grid" x1="92" y1="524.0" x2="1228" y2="524.0"/>
<text x="84" y="528.0" text-anchor="end">0</text>
<line class="grid" x1="92" y1="432.4" x2="1228" y2="432.4"/>
<text x="84" y="436.4" text-anchor="end">50</text>
<line class="grid" x1="92" y1="340.8" x2="1228" y2="340.8"/>
<text x="84" y="344.8" text-anchor="end">100</text>
<line class="grid" x1="92" y1="249.2" x2="1228" y2="249.2"/>
<text x="84" y="253.2" text-anchor="end">150</text>
<line class="grid" x1="92" y1="157.6" x2="1228" y2="157.6"/>
<text x="84" y="161.6" text-anchor="end">200</text>
<line class="grid" x1="92" y1="66.0" x2="1228" y2="66.0"/>
<text x="84" y="70.0" text-anchor="end">250</text>
<line class="grid" x1="92.0" y1="66" x2="92.0" y2="524"/>
<text x="92.0" y="562" text-anchor="middle">2016-01</text>
<line class="grid" x1="234.0" y1="66" x2="234.0" y2="524"/>
<text x="234.0" y="562" text-anchor="middle">2017-04</text>
<line class="grid" x1="376.0" y1="66" x2="376.0" y2="524"/>
<text x="376.0" y="562" text-anchor="middle">2018-08</text>
<line class="grid" x1="518.0" y1="66" x2="518.0" y2="524"/>
<text x="518.0" y="562" text-anchor="middle">2019-11</text>
<line class="grid" x1="660.0" y1="66" x2="660.0" y2="524"/>
<text x="660.0" y="562" text-anchor="middle">2021-03</text>
<line class="grid" x1="802.0" y1="66" x2="802.0" y2="524"/>
<text x="802.0" y="562" text-anchor="middle">2022-06</text>
<line class="grid" x1="944.0" y1="66" x2="944.0" y2="524"/>
<text x="944.0" y="562" text-anchor="middle">2023-10</text>
<line class="grid" x1="1086.0" y1="66" x2="1086.0" y2="524"/>
<text x="1086.0" y="562" text-anchor="middle">2025-01</text>
<line class="grid" x1="1228.0" y1="66" x2="1228.0" y2="524"/>
<text x="1228.0" y="562" text-anchor="middle">2026-05</text>
<line class="axis" x1="92" y1="66" x2="92" y2="524"/>
<line class="axis" x1="92" y1="524" x2="1228" y2="524"/>
<text x="92" y="596">单位：USD/bbl</text>
<path class="line" d="M92.0,297.8 L123.4,288.1 L127.9,284.3 L132.1,277.8 L136.3,273.8 L149.3,284.0 L153.5,291.4 L157.7,284.7 L161.9,278.0 L167.1,283.4 L176.4,273.0 L184.9,291.1 L189.1,285.0 L193.3,271.3 L197.5,268.1 L202.0,257.4 L206.0,259.2 L212.0,257.0 L220.4,261.8 L224.7,269.2 L229.2,261.9 L237.9,271.3 L242.1,264.6 L246.7,269.0 L250.9,279.6 L259.3,274.3 L263.5,266.4 L276.2,255.9 L280.4,252.0 L290.7,245.8 L294.9,235.3 L307.6,227.3 L312.1,218.2 L316.3,208.8 L320.5,214.4 L326.3,224.9 L334.7,214.9 L339.2,211.9 L343.4,204.7 L348.0,200.8 L352.2,193.6 L356.4,199.4 L361.5,210.0 L365.7,202.3 L370.0,214.5 L374.2,213.8 L378.4,216.3 L382.6,209.6 L386.9,205.1 L390.8,196.7 L396.5,193.6 L400.7,205.4 L404.9,225.9 L409.2,246.3 L413.4,248.7 L417.6,260.9 L422.7,252.5 L427.0,242.3 L432.1,242.1 L436.3,229.2 L444.7,226.5 L449.3,228.0 L453.5,221.9 L458.6,231.0 L462.8,230.7 L467.4,247.8 L471.6,250.6 L475.8,244.9 L484.2,255.1 L488.5,262.7 L492.7,261.7 L497.2,255.5 L507.1,260.0 L511.4,253.7 L515.6,251.9 L519.8,251.3 L528.3,239.0 L539.1,254.5 L543.3,270.3 L551.8,308.0 L582.8,304.8 L586.4,298.8 L599.1,293.0 L607.5,299.5 L617.8,293.8 L622.0,297.2 L626.2,289.8 L630.5,279.1 L634.7,273.4 L638.9,269.5 L643.4,260.6 L647.6,255.5 L653.7,246.1 L657.6,236.6 L661.8,229.2 L666.0,240.4 L674.5,232.4 L679.3,227.0 L687.7,218.4 L692.9,212.7 L697.1,210.3 L701.3,216.2 L709.7,223.9 L714.0,218.3 L717.6,214.8 L723.9,200.3 L727.8,185.6 L736.3,189.4 L740.5,205.7 L744.7,210.8 L748.9,204.3 L754.1,190.6 L757.7,178.8 L763.4,168.6 L767.6,158.0 L771.9,131.1 L776.1,126.5 L780.6,148.6 L784.5,154.3 L789.9,150.8 L794.2,132.2 L798.7,120.1 L802.9,131.2 L807.1,145.7 L811.3,159.0 L815.6,162.0 L819.8,176.6 L824.0,175.1 L828.5,190.8 L838.5,193.3 L842.7,187.0 L846.9,188.0 L851.1,196.8 L855.4,212.4 L859.9,200.0 L864.1,200.9 L869.2,194.4 L881.9,203.4 L886.1,214.7 L891.2,195.0 L894.6,202.6 L900.0,220.1 L904.2,221.4 L908.4,225.5 L912.9,226.8 L917.2,217.1 L921.4,208.5 L925.6,202.1 L929.8,203.0 L938.3,191.1 L944.3,193.6 L948.5,196.8 L952.7,199.9 L957.0,206.2 L961.2,208.3 L965.4,221.8 L969.9,215.8 L974.1,219.1 L978.4,211.4 L988.3,207.8 L996.8,202.5 L1001.3,195.8 L1005.2,198.3 L1010.0,205.5 L1018.8,213.6 L1023.0,206.9 L1027.2,202.4 L1031.4,207.4 L1035.7,214.3 L1044.1,214.4 L1048.6,225.7 L1054.6,221.4 L1058.6,220.5 L1062.8,226.5 L1080.0,231.4 L1084.2,220.0 L1094.4,223.0 L1098.7,227.3 L1102.9,236.9 L1107.1,230.4 L1111.6,247.5 L1121.3,252.4 L1125.8,248.9 L1130.0,240.0 L1134.2,230.8 L1138.5,235.9 L1151.1,241.2 L1165.6,243.2 L1169.8,251.0 L1174.0,247.3 L1178.3,248.5 L1182.5,249.6 L1186.7,254.3 L1195.4,248.7 L1199.7,240.5 L1206.0,231.1 L1209.9,206.2 L1214.1,164.8 L1218.7,146.3 L1222.9,166.4 L1228.0,153.2" stroke="#c35a4a"/>
<path class="line" d="M92.0,458.4 L123.4,458.0 L127.9,442.2 L132.1,435.5 L136.3,433.5 L149.3,438.5 L153.5,447.6 L157.7,439.5 L161.9,436.1 L167.1,438.3 L176.4,435.0 L184.9,440.7 L189.1,438.2 L193.3,427.7 L197.5,424.8 L202.0,424.1 L206.0,424.1 L212.0,423.4 L220.4,425.8 L224.7,431.7 L229.2,425.7 L237.9,433.2 L242.1,428.4 L246.7,434.7 L250.9,440.8 L259.3,437.2 L263.5,430.6 L276.2,427.4 L280.4,417.9 L290.7,417.9 L294.9,408.8 L307.6,406.8 L312.1,398.1 L316.3,396.3 L320.5,401.7 L326.3,405.3 L334.7,402.9 L339.2,396.9 L343.4,388.1 L348.0,385.8 L352.2,379.9 L356.4,387.4 L361.5,388.4 L365.7,383.6 L370.0,391.2 L374.2,389.4 L378.4,395.0 L382.6,385.4 L386.9,381.9 L390.8,375.1 L396.5,372.3 L400.7,384.5 L404.9,398.9 L409.2,414.2 L413.4,414.1 L417.6,425.8 L422.7,418.9 L427.0,412.4 L432.1,409.6 L436.3,403.9 L444.7,402.6 L449.3,395.0 L453.5,392.1 L458.6,392.8 L462.8,392.4 L467.4,405.4 L471.6,405.9 L475.8,405.1 L484.2,409.3 L488.5,416.9 L492.7,415.0 L497.2,407.4 L507.1,413.3 L511.4,412.1 L515.6,409.6 L519.8,406.1 L528.3,400.1 L539.1,409.4 L543.3,421.2 L551.8,442.5 L582.8,471.6 L586.4,445.6 L599.1,443.4 L607.5,446.9 L617.8,449.2 L622.0,453.9 L626.2,446.3 L630.5,437.7 L634.7,432.1 L638.9,431.1 L643.4,424.4 L647.6,422.9 L653.7,412.1 L657.6,404.1 L661.8,399.9 L666.0,408.4 L674.5,405.5 L679.3,398.1 L687.7,396.5 L692.9,387.7 L697.1,383.7 L701.3,389.3 L709.7,393.3 L714.0,391.5 L717.6,389.6 L723.9,380.0 L727.8,369.3 L736.3,372.1 L740.5,385.5 L744.7,387.9 L748.9,385.7 L754.1,370.6 L757.7,359.2 L763.4,348.7 L767.6,328.2 L771.9,311.6 L776.1,308.9 L780.6,333.0 L784.5,332.2 L789.9,323.1 L794.2,309.0 L798.7,292.2 L802.9,305.7 L807.1,315.9 L811.3,320.1 L815.6,332.3 L819.8,342.8 L824.0,350.2 L828.5,357.9 L838.5,356.3 L842.7,348.5 L846.9,355.2 L851.1,369.5 L855.4,378.4 L859.9,376.7 L864.1,376.2 L869.2,369.7 L881.9,374.2 L886.1,384.5 L891.2,365.6 L894.6,373.1 L900.0,385.7 L904.2,385.8 L908.4,386.6 L912.9,387.1 L917.2,381.7 L921.4,375.5 L925.6,365.7 L929.8,367.3 L938.3,356.1 L944.3,354.8 L948.5,356.4 L952.7,364.2 L957.0,373.3 L961.2,378.4 L965.4,383.3 L969.9,380.2 L974.1,379.2 L978.4,372.8 L988.3,370.4 L996.8,367.4 L1001.3,356.5 L1005.2,362.0 L1010.0,372.5 L1018.8,378.1 L1023.0,366.7 L1027.2,363.9 L1031.4,369.6 L1035.7,378.3 L1044.1,378.4 L1048.6,389.3 L1054.6,384.0 L1058.6,387.5 L1062.8,387.9 L1080.0,388.4 L1084.2,376.6 L1094.4,382.9 L1098.7,389.7 L1102.9,392.4 L1107.1,386.7 L1111.6,401.3 L1121.3,405.0 L1125.8,403.9 L1130.0,391.6 L1134.2,392.9 L1138.5,393.7 L1151.1,397.3 L1165.6,400.6 L1169.8,408.5 L1174.0,406.0 L1178.3,407.8 L1182.5,407.0 L1186.7,410.9 L1195.4,405.6 L1199.7,396.7 L1206.0,393.8 L1209.9,370.6 L1214.1,328.7 L1218.7,300.1 L1222.9,316.4 L1228.0,308.5" stroke="#2f6fbb"/>
<path class="line" d="M92.0,462.7 L123.4,464.0 L127.9,447.5 L132.1,442.9 L136.3,439.1 L149.3,441.7 L153.5,448.9 L157.7,445.6 L161.9,444.2 L167.1,443.8 L176.4,437.9 L184.9,441.5 L189.1,442.1 L193.3,429.9 L197.5,428.8 L202.0,425.9 L206.0,425.8 L212.0,424.8 L220.4,426.1 L224.7,430.3 L229.2,427.4 L237.9,430.9 L242.1,431.3 L246.7,434.8 L250.9,438.6 L259.3,438.2 L263.5,434.6 L276.2,430.4 L280.4,425.9 L290.7,422.3 L294.9,412.2 L307.6,412.5 L312.1,404.1 L316.3,402.9 L320.5,405.4 L326.3,410.1 L334.7,410.5 L339.2,402.8 L343.4,399.3 L348.0,392.7 L352.2,387.4 L356.4,388.3 L361.5,389.4 L365.7,387.7 L370.0,390.8 L374.2,391.0 L378.4,393.5 L382.6,390.6 L386.9,384.9 L390.8,381.9 L396.5,374.5 L400.7,381.3 L404.9,397.1 L409.2,403.2 L413.4,414.4 L417.6,418.3 L422.7,419.7 L427.0,415.8 L432.1,410.1 L436.3,405.4 L444.7,401.8 L449.3,396.7 L453.5,394.5 L458.6,395.2 L462.8,395.0 L467.4,408.9 L471.6,412.2 L475.8,409.3 L484.2,410.2 L488.5,416.5 L492.7,416.4 L497.2,414.0 L507.1,415.3 L511.4,414.3 L515.6,411.7 L519.8,411.2 L528.3,406.6 L539.1,406.5 L543.3,424.1 L551.8,439.7 L582.8,467.1 L586.4,445.7 L599.1,444.4 L607.5,446.2 L617.8,448.5 L622.0,450.5 L626.2,446.4 L630.5,441.0 L634.7,433.7 L638.9,432.8 L643.4,424.9 L647.6,423.5 L653.7,415.8 L657.6,411.1 L661.8,403.3 L666.0,406.3 L674.5,409.8 L679.3,403.4 L687.7,399.5 L692.9,393.2 L697.1,389.9 L701.3,391.2 L709.7,395.7 L714.0,396.1 L717.6,393.7 L723.9,386.8 L727.8,375.3 L736.3,375.0 L740.5,383.8 L744.7,390.7 L748.9,390.5 L754.1,377.3 L757.7,371.4 L763.4,359.5 L767.6,342.3 L771.9,320.3 L776.1,321.6 L780.6,338.4 L784.5,334.9 L789.9,331.3 L794.2,327.6 L798.7,313.5 L802.9,317.0 L807.1,334.6 L811.3,336.3 L815.6,345.1 L819.8,348.9 L824.0,351.0 L828.5,355.0 L838.5,356.6 L842.7,356.5 L846.9,361.9 L851.1,372.6 L855.4,385.5 L859.9,382.9 L864.1,380.8 L869.2,376.8 L881.9,374.4 L886.1,380.8 L891.2,368.2 L894.6,370.8 L900.0,386.6 L904.2,386.7 L908.4,387.9 L912.9,386.6 L917.2,382.2 L921.4,377.9 L925.6,367.6 L929.8,365.7 L938.3,357.9 L944.3,358.6 L948.5,359.4 L952.7,364.6 L957.0,371.4 L961.2,375.9 L965.4,384.3 L969.9,382.4 L974.1,382.0 L978.4,380.1 L988.3,376.4 L996.8,370.0 L1001.3,359.3 L1005.2,360.9 L1010.0,370.6 L1018.8,373.4 L1023.0,372.9 L1027.2,366.6 L1031.4,369.4 L1035.7,379.5 L1044.1,383.3 L1048.6,390.5 L1054.6,386.2 L1058.6,385.9 L1062.8,387.7 L1080.0,390.7 L1084.2,379.7 L1094.4,379.2 L1098.7,386.4 L1102.9,393.3 L1107.1,389.3 L1111.6,400.3 L1121.3,405.0 L1125.8,407.0 L1130.0,399.8 L1134.2,396.8 L1138.5,395.4 L1151.1,396.3 L1165.6,398.6 L1169.8,406.5 L1174.0,404.4 L1178.3,405.5 L1182.5,407.2 L1186.7,410.7 L1195.4,411.9 L1199.7,408.3 L1206.0,400.0 L1209.9,366.1 L1214.1,287.5 L1218.7,302.5 L1222.9,334.8 L1228.0,334.9" stroke="#7a5dbb"/>
<path class="line" d="M92.0,458.7 L123.4,459.5 L127.9,441.7 L132.1,436.0 L136.3,433.0 L149.3,438.0 L153.5,448.3 L157.7,441.3 L161.9,439.6 L167.1,441.8 L176.4,435.3 L184.9,439.0 L189.1,437.3 L193.3,429.8 L197.5,427.9 L202.0,427.4 L206.0,428.3 L212.0,426.7 L220.4,428.9 L224.7,436.5 L229.2,429.1 L237.9,434.9 L242.1,432.9 L246.7,437.1 L250.9,443.0 L259.3,440.8 L263.5,434.4 L276.2,435.9 L280.4,430.7 L290.7,428.8 L294.9,420.6 L307.6,418.1 L312.1,409.7 L316.3,405.8 L320.5,407.4 L326.3,411.0 L334.7,408.9 L339.2,405.7 L343.4,399.9 L348.0,396.7 L352.2,393.7 L356.4,403.0 L361.5,400.7 L365.7,388.0 L370.0,396.6 L374.2,396.3 L378.4,402.0 L382.6,396.8 L386.9,398.0 L390.8,391.2 L396.5,391.0 L400.7,402.6 L404.9,415.5 L409.2,427.8 L413.4,428.6 L417.6,439.1 L422.7,432.9 L427.0,427.5 L432.1,425.3 L436.3,420.7 L444.7,417.2 L449.3,408.2 L453.5,405.6 L458.6,410.1 L462.8,412.0 L467.4,425.5 L471.6,422.7 L475.8,417.6 L484.2,420.9 L488.5,422.9 L492.7,423.1 L497.2,418.7 L507.1,424.5 L511.4,421.8 L515.6,420.3 L519.8,418.7 L528.3,413.7 L539.1,420.3 L543.3,430.2 L551.8,449.3 L582.8,475.0 L586.4,450.3 L599.1,448.0 L607.5,449.6 L617.8,450.8 L622.0,455.3 L626.2,448.7 L630.5,441.5 L634.7,437.9 L638.9,436.3 L643.4,429.8 L647.6,427.5 L653.7,418.0 L657.6,410.6 L661.8,405.7 L666.0,413.4 L674.5,411.1 L679.3,405.0 L687.7,400.8 L692.9,391.0 L697.1,388.2 L701.3,394.2 L709.7,398.7 L714.0,398.0 L717.6,394.4 L723.9,385.9 L727.8,373.2 L736.3,374.4 L740.5,394.0 L744.7,393.5 L748.9,388.3 L754.1,377.1 L757.7,365.3 L763.4,357.2 L767.6,340.3 L771.9,328.1 L776.1,324.7 L780.6,340.4 L784.5,334.5 L789.9,327.9 L794.2,317.2 L798.7,306.1 L802.9,321.4 L807.1,334.0 L811.3,339.7 L815.6,349.6 L819.8,352.5 L824.0,359.0 L828.5,366.5 L838.5,367.5 L842.7,360.5 L846.9,369.7 L851.1,381.1 L855.4,388.3 L859.9,381.1 L864.1,383.0 L869.2,379.6 L881.9,384.8 L886.1,392.9 L891.2,375.2 L894.6,383.0 L900.0,392.8 L904.2,392.9 L908.4,395.0 L912.9,395.7 L917.2,390.0 L921.4,382.7 L925.6,373.9 L929.8,376.1 L938.3,365.0 L944.3,362.7 L948.5,365.2 L952.7,374.7 L957.0,382.6 L961.2,388.4 L965.4,394.0 L969.9,390.3 L974.1,390.9 L978.4,384.5 L988.3,381.6 L996.8,373.9 L1001.3,365.8 L1005.2,369.8 L1010.0,376.9 L1018.8,380.1 L1023.0,373.0 L1027.2,370.2 L1031.4,375.4 L1035.7,383.5 L1044.1,385.9 L1048.6,394.9 L1054.6,391.0 L1058.6,393.7 L1062.8,395.0 L1080.0,395.7 L1084.2,382.1 L1094.4,390.1 L1098.7,397.5 L1102.9,400.7 L1107.1,395.7 L1111.6,410.4 L1121.3,409.7 L1125.8,409.2 L1130.0,396.4 L1134.2,399.6 L1138.5,398.4 L1151.1,402.8 L1165.6,407.9 L1169.8,414.1 L1174.0,412.1 L1178.3,414.4 L1182.5,415.7 L1186.7,419.2 L1195.4,416.7 L1199.7,409.8 L1206.0,405.6 L1209.9,381.1 L1214.1,351.1 L1218.7,334.1 L1222.9,350.6 L1228.0,332.7" stroke="#348f6c"/>
<path class="line" d="M92.0,459.9 L123.4,460.5 L127.9,443.8 L132.1,438.1 L136.3,435.2 L149.3,439.4 L153.5,448.2 L157.7,442.1 L161.9,440.0 L167.1,441.3 L176.4,436.1 L184.9,440.4 L189.1,439.2 L193.3,429.1 L197.5,427.2 L202.0,425.8 L206.0,426.1 L212.0,425.0 L220.4,426.9 L224.7,432.8 L229.2,427.4 L237.9,433.0 L242.1,430.9 L246.7,435.5 L250.9,440.8 L259.3,438.8 L263.5,433.2 L276.2,431.3 L280.4,424.8 L290.7,423.0 L294.9,413.8 L307.6,412.5 L312.1,404.0 L316.3,401.6 L320.5,404.8 L326.3,408.8 L334.7,407.5 L339.2,401.8 L343.4,395.8 L348.0,391.7 L352.2,387.0 L356.4,392.9 L361.5,392.8 L365.7,386.5 L370.0,392.9 L374.2,392.3 L378.4,396.9 L382.6,390.9 L386.9,388.2 L390.8,382.7 L396.5,379.3 L400.7,389.5 L404.9,403.8 L409.2,415.1 L413.4,419.0 L417.6,427.7 L422.7,423.8 L427.0,418.6 L432.1,415.0 L436.3,410.0 L444.7,407.2 L449.3,400.0 L453.5,397.4 L458.6,399.4 L462.8,399.8 L467.4,413.3 L471.6,413.6 L475.8,410.7 L484.2,413.4 L488.5,418.8 L492.7,418.2 L497.2,413.3 L507.1,417.7 L511.4,416.1 L515.6,413.9 L519.8,412.0 L528.3,406.8 L539.1,412.1 L543.3,425.2 L551.8,443.9 L582.8,471.2 L586.4,447.2 L599.1,445.3 L607.5,447.6 L617.8,449.5 L622.0,453.2 L626.2,447.1 L630.5,440.1 L634.7,434.5 L638.9,433.4 L643.4,426.4 L647.6,424.6 L653.7,415.3 L657.6,408.6 L661.8,403.0 L666.0,409.3 L674.5,408.8 L679.3,402.2 L687.7,398.9 L692.9,390.6 L697.1,387.3 L701.3,391.5 L709.7,395.9 L714.0,395.2 L717.6,392.6 L723.9,384.2 L727.8,372.6 L736.3,373.8 L740.5,387.7 L744.7,390.7 L748.9,388.2 L754.1,375.0 L757.7,365.3 L763.4,355.1 L767.6,336.9 L771.9,320.0 L776.1,318.4 L780.6,337.3 L784.5,333.9 L789.9,327.4 L794.2,317.9 L798.7,303.9 L802.9,314.7 L807.1,328.1 L811.3,332.0 L815.6,342.4 L819.8,348.1 L824.0,353.4 L828.5,359.8 L838.5,360.1 L842.7,355.2 L846.9,362.3 L851.1,374.4 L855.4,384.1 L859.9,380.2 L864.1,380.0 L869.2,375.4 L881.9,377.8 L886.1,386.1 L891.2,369.6 L894.6,375.6 L900.0,388.4 L904.2,388.5 L908.4,389.8 L912.9,389.8 L917.2,384.7 L921.4,378.7 L925.6,369.1 L929.8,369.7 L938.3,359.7 L944.3,358.7 L948.5,360.3 L952.7,367.8 L957.0,375.8 L961.2,380.9 L965.4,387.2 L969.9,384.3 L974.1,384.1 L978.4,379.1 L988.3,376.1 L996.8,370.4 L1001.3,360.5 L1005.2,364.3 L1010.0,373.3 L1018.8,377.2 L1023.0,370.9 L1027.2,366.9 L1031.4,371.5 L1035.7,380.4 L1044.1,382.5 L1048.6,391.6 L1054.6,387.1 L1058.6,389.0 L1062.8,390.2 L1080.0,391.6 L1084.2,379.5 L1094.4,384.0 L1098.7,391.2 L1102.9,395.4 L1107.1,390.6 L1111.6,404.0 L1121.3,406.6 L1125.8,406.7 L1130.0,395.9 L1134.2,396.4 L1138.5,395.8 L1151.1,398.8 L1165.6,402.4 L1169.8,409.7 L1174.0,407.5 L1178.3,409.2 L1182.5,410.0 L1186.7,413.6 L1195.4,411.4 L1199.7,405.0 L1206.0,399.8 L1209.9,372.6 L1214.1,322.4 L1218.7,312.3 L1222.9,333.9 L1228.0,325.4" stroke="#222222"/>
<rect x="272" y="582" width="18" height="4" fill="#c35a4a"/>
<text x="298" y="586">汽油(USD/bbl)</text>
<rect x="462" y="582" width="18" height="4" fill="#2f6fbb"/>
<text x="488" y="586">布伦特区间均价</text>
<rect x="652" y="582" width="18" height="4" fill="#7a5dbb"/>
<text x="678" y="586">迪拜区间均价</text>
<rect x="842" y="582" width="18" height="4" fill="#348f6c"/>
<text x="868" y="586">WTI区间均价</text>
<rect x="1032" y="582" width="18" height="4" fill="#222222"/>
<text x="1058" y="586">三油算术均价</text>
</svg>