<svg xmlns="http://www.w3.org/2000/svg" width="1280" height="620" viewBox="0 0 1280 620">
<style>
text{font-family:Arial,'Microsoft YaHei',sans-serif;font-size:12px;fill:#222}
.title{font-size:18px;font-weight:700}
.note{fill:#666;font-size:11px}
.axis{stroke:#222;stroke-width:1}
.grid{stroke:#ddd;stroke-width:1}
.line{fill:none;stroke-width:2}
</style>
<text class="title" x="92" y="30">成品油调价日与国际原油区间均价</text>
<text class="note" x="92" y="50">区间均值按 (prev, cur] 计算；汽油价格按 USD_CNY 与 7.33 bbl/ton 换算为 USD/bbl。</text>
<line class="grid" x1="92" y1="524.0" x2="1228" y2="524.0"/>
<text x="84" y="528.0" text-anchor="end">0</text>
<line class="grid" x1="92" y1="432.4" x2="1228" y2="432.4"/>
<text x="84" y="436.4" text-anchor="end">50</text>
<line class="grid" x1="92" y1="340.8" x2="1228" y2="340.8"/>
<text x="84" y="344.8" text-anchor="end">100</text>
<line class="grid" x1="92" y1="249.2" x2="1228" y2="249.2"/>
<text x="84" y="253.2" text-anchor="end">150</text>
<line class="grid" x1="92" y1="157.6" x2="1228" y2="157.6"/>
<text x="84" y="161.6" text-anchor="end">200</text>
<line class="grid" x1="92" y1="66.0" x2="1228" y2="66.0"/>
<text x="84" y="70.0" text-anchor="end">250</text>
<line class="grid" x1="92.0" y1="66" x2="92.0" y2="524"/>
<text x="92.0" y="562" text-anchor="middle">2000-06</text>
<line class="grid" x1="233.9" y1="66" x2="233.9" y2="524"/>
<text x="233.9" y="562" text-anchor="middle">2003-09</text>
<line class="grid" x1="376.0" y1="66" x2="376.0" y2="524"/>
<text x="376.0" y="562" text-anchor="middle">2006-11</text>
<line class="grid" x1="517.9" y1="66" x2="517.9" y2="524"/>
<text x="517.9" y="562" text-anchor="middle">2010-02</text>
<line class="grid" x1="660.0" y1="66" x2="660.0" y2="524"/>
<text x="660.0" y="562" text-anchor="middle">2013-05</text>
<line class="grid" x1="801.9" y1="66" x2="801.9" y2="524"/>
<text x="801.9" y="562" text-anchor="middle">2016-08</text>
<line class="grid" x1="944.0" y1="66" x2="944.0" y2="524"/>
<text x="944.0" y="562" text-anchor="middle">2019-11</text>
<line class="grid" x1="1085.9" y1="66" x2="1085.9" y2="524"/>
<text x="1085.9" y="562" text-anchor="middle">2023-02</text>
<line class="grid" x1="1228.0" y1="66" x2="1228.0" y2="524"/>
<text x="1228.0" y="562" text-anchor="middle">2026-05</text>
<line class="axis" x1="92" y1="66" x2="92" y2="524"/>
<line class="axis" x1="92" y1="524" x2="1228" y2="524"/>
<text x="92" y="596">单位：USD/bbl</text>
<path class="line" d="M92.0,435.4 L96.7,429.4 L100.8,421.2 L104.7,414.8 L108.3,420.3 L111.8,427.8 L115.8,428.4 L118.6,432.4 L121.4,437.3 L124.9,431.0 L129.0,434.3 L133.2,431.3 L135.8,425.6 L139.2,439.1 L143.5,447.6 L147.3,447.6 L151.9,440.1 L156.4,450.9 L161.0,457.9 L168.4,453.9 L172.1,446.1 L175.7,438.9 L194.9,432.8 L208.5,427.1 L220.3,435.8 L226.5,433.1 L245.5,427.1 L259.4,418.0 L265.1,418.0 L277.0,410.8 L302.2,401.7 L308.0,401.7 L309.6,406.2 L313.5,400.2 L316.8,388.4 L346.4,377.6 L353.4,362.1 L381.6,364.3 L416.6,340.3 L444.4,288.6 L466.2,320.2 L469.3,325.1 L477.7,314.4 L478.6,314.5 L484.3,314.2 L485.9,299.7 L489.4,277.9 L492.9,285.9 L497.1,274.8 L500.4,281.6 L501.7,281.5 L505.3,264.0 L523.9,252.3 L529.7,260.9 L547.3,246.4 L554.2,233.4 L561.4,216.5 L566.9,195.9 L589.1,198.0 L603.7,183.4 L608.6,161.1 L614.8,173.5 L618.4,197.6 L622.2,214.2 L625.8,198.2 L629.5,175.2 L637.4,182.1 L649.6,170.0 L653.2,181.3 L656.6,194.9 L658.4,189.5 L661.8,192.9 L663.6,188.8 L665.3,192.1 L667.0,179.1 L672.0,168.5 L673.7,164.8 L675.6,174.9 L679.4,176.7 L681.1,182.9 L682.8,176.4 L684.5,172.6 L688.0,164.7 L689.6,169.9 L693.6,166.1 L697.0,176.4 L700.4,172.5 L702.2,173.0 L703.9,170.7 L707.6,163.8 L711.0,172.0 L714.4,176.2 L716.0,180.9 L717.8,186.1 L719.4,190.1 L721.6,201.6 L723.2,211.0 L724.9,219.6 L728.3,229.3 L730.0,251.5 L732.0,258.0 L733.7,274.6 L735.3,262.9 L737.5,248.5 L740.7,255.8 L742.5,250.7 L744.2,237.9 L746.3,228.3 L749.6,232.6 L753.1,236.6 L754.8,247.3 L756.5,256.1 L758.1,272.1 L759.8,275.5 L761.6,272.3 L765.7,269.7 L767.4,274.1 L769.1,279.3 L770.7,285.5 L775.9,297.8 L788.4,288.1 L790.2,284.3 L791.9,277.8 L793.5,273.8 L798.7,284.0 L800.4,291.4 L802.1,284.7 L803.7,278.0 L805.8,283.4 L809.5,273.0 L812.9,291.1 L814.5,285.0 L816.2,271.3 L817.9,268.1 L819.7,257.4 L821.3,259.2 L823.7,257.0 L827.0,261.8 L828.7,269.2 L830.5,261.9 L834.0,271.3 L835.7,264.6 L837.5,269.0 L839.1,279.6 L842.5,274.3 L844.2,266.4 L849.2,255.9 L850.9,252.0 L855.0,245.8 L856.7,235.3 L861.7,227.3 L863.5,218.2 L865.2,208.8 L866.9,214.4 L869.1,224.9 L872.5,214.9 L874.3,211.9 L876.0,204.7 L877.8,200.8 L879.4,193.6 L881.1,199.4 L883.2,210.0 L884.8,202.3 L886.5,214.5 L888.2,213.8 L889.9,216.3 L891.6,209.6 L893.2,205.1 L894.8,196.7 L897.1,193.6 L898.8,205.4 L900.4,225.9 L902.1,246.3 L903.8,248.7 L905.5,260.9 L907.5,252.5 L909.2,242.3 L911.2,242.1 L912.9,229.2 L916.3,226.5 L918.1,228.0 L919.8,221.9 L921.8,231.0 L923.5,230.7 L925.3,247.8 L927.0,250.6 L928.6,244.9 L932.0,255.1 L933.7,262.7 L935.4,261.7 L937.2,255.5 L941.1,260.0 L942.8,253.7 L944.5,251.9 L946.2,251.3 L949.5,239.0 L953.8,254.5 L955.5,270.3 L958.9,308.0 L971.2,304.8 L972.7,298.8 L977.7,293.0 L981.1,299.5 L985.2,293.8 L986.8,297.2 L988.5,289.8 L990.2,279.1 L991.9,273.4 L993.6,269.5 L995.4,260.6 L997.0,255.5 L999.4,246.1 L1001.0,236.6 L1002.7,229.2 L1004.4,240.4 L1007.7,232.4 L1009.6,227.0 L1013.0,218.4 L1015.0,212.7 L1016.7,210.3 L1018.4,216.2 L1021.7,223.9 L1023.4,218.3 L1024.9,214.8 L1027.4,200.3 L1028.9,185.6 L1032.3,189.4 L1034.0,205.7 L1035.7,210.8 L1037.3,204.3 L1039.4,190.6 L1040.8,178.8 L1043.1,168.6 L1044.8,158.0 L1046.5,131.1 L1048.1,126.5 L1049.9,148.6 L1051.5,154.3 L1053.7,150.8 L1055.3,132.2 L1057.1,120.1 L1058.8,131.2 L1060.5,145.7 L1062.2,159.0 L1063.9,162.0 L1065.5,176.6 L1067.2,175.1 L1069.0,190.8 L1073.0,193.3 L1074.7,187.0 L1076.3,188.0 L1078.0,196.8 L1079.7,212.4 L1081.5,200.0 L1083.2,200.9 L1085.2,194.4 L1090.3,203.4 L1091.9,214.7 L1094.0,195.0 L1095.3,202.6 L1097.5,220.1 L1099.1,221.4 L1100.8,225.5 L1102.6,226.8 L1104.3,217.1 L1106.0,208.5 L1107.7,202.1 L1109.3,203.0 L1112.7,191.1 L1115.1,193.6 L1116.8,196.8 L1118.5,199.9 L1120.1,206.2 L1121.8,208.3 L1123.5,221.8 L1125.3,215.8 L1127.0,219.1 L1128.7,211.4 L1132.6,207.8 L1136.0,202.5 L1137.8,195.8 L1139.3,198.3 L1141.3,205.5 L1144.7,213.6 L1146.4,206.9 L1148.1,202.4 L1149.8,207.4 L1151.5,214.3 L1154.8,214.4 L1156.6,225.7 L1159.0,221.4 L1160.6,220.5 L1162.2,226.5 L1169.1,231.4 L1170.8,220.0 L1174.8,223.0 L1176.5,227.3 L1178.2,236.9 L1179.9,230.4 L1181.7,247.5 L1185.5,252.4 L1187.3,248.9 L1189.0,240.0 L1190.7,230.8 L1192.4,235.9 L1197.4,241.2 L1203.2,243.2 L1204.8,251.0 L1206.5,247.3 L1208.2,248.5 L1209.9,249.6 L1211.6,254.3 L1215.0,248.7 L1216.7,240.5 L1219.2,231.1 L1220.8,206.2 L1222.5,164.8 L1224.3,146.3 L1226.0,166.4 L1228.0,153.2" stroke="#c35a4a"/>
<path class="line" d="M96.7,468.6 L100.8,473.1 L104.7,461.8 L108.3,467.9 L111.8,465.8 L115.8,470.9 L118.6,480.2 L121.4,474.8 L124.9,474.9 L129.0,479.6 L133.2,474.7 L135.8,470.9 L139.2,474.0 L143.5,478.8 L147.3,476.2 L151.9,482.0 L156.4,488.6 L161.0,489.6 L168.4,487.4 L172.1,479.1 L175.7,477.1 L194.9,475.8 L208.5,473.1 L220.3,471.2 L226.5,474.0 L245.5,471.3 L259.4,466.1 L265.1,459.8 L277.0,453.4 L302.2,441.2 L308.0,429.8 L309.6,437.4 L313.5,426.9 L316.8,419.3 L346.4,413.7 L353.4,396.5 L381.6,405.4 L416.6,396.4 L444.4,333.4 L466.2,359.1 L469.3,450.2 L477.7,442.6 L478.6,435.0 L484.3,427.5 L485.9,409.6 L489.4,398.1 L492.9,406.8 L497.1,392.4 L500.4,400.1 L501.7,399.3 L505.3,384.8 L523.9,383.3 L529.7,379.5 L547.3,382.0 L554.2,363.6 L561.4,344.9 L566.9,312.5 L589.1,314.7 L603.7,321.6 L608.6,296.8 L614.8,305.8 L618.4,331.2 L622.2,349.0 L625.8,327.8 L629.5,314.1 L637.4,320.6 L649.6,318.0 L653.2,324.3 L656.6,336.1 L658.4,336.0 L661.8,336.1 L663.6,334.1 L665.3,335.1 L667.0,324.6 L672.0,321.6 L673.7,314.3 L675.6,323.9 L679.4,324.4 L681.1,330.1 L682.8,322.1 L684.5,321.2 L688.0,323.6 L689.6,325.3 L693.6,324.5 L697.0,326.7 L700.4,327.3 L702.2,324.7 L703.9,322.3 L707.6,320.3 L711.0,326.0 L714.4,333.9 L716.0,340.0 L717.8,344.2 L719.4,349.1 L721.6,361.2 L723.2,367.2 L724.9,374.7 L728.3,392.5 L730.0,415.4 L732.0,430.2 L733.7,438.7 L735.3,427.4 L737.5,414.6 L740.7,421.2 L742.5,421.9 L744.2,413.6 L746.3,406.4 L749.6,408.4 L753.1,413.3 L754.8,419.6 L756.5,427.2 L758.1,436.9 L759.8,441.8 L761.6,436.3 L765.7,435.3 L767.4,437.6 L769.1,443.4 L770.7,444.9 L775.9,458.4 L788.4,458.0 L790.2,442.2 L791.9,435.5 L793.5,433.5 L798.7,438.5 L800.4,447.6 L802.1,439.5 L803.7,436.1 L805.8,438.3 L809.5,435.0 L812.9,440.7 L814.5,438.2 L816.2,427.7 L817.9,424.8 L819.7,424.1 L821.3,424.1 L823.7,423.4 L827.0,425.8 L828.7,431.7 L830.5,425.7 L834.0,433.2 L835.7,428.4 L837.5,434.7 L839.1,440.8 L842.5,437.2 L844.2,430.6 L849.2,427.4 L850.9,417.9 L855.0,417.9 L856.7,408.8 L861.7,406.8 L863.5,398.1 L865.2,396.3 L866.9,401.7 L869.1,405.3 L872.5,402.9 L874.3,396.9 L876.0,388.1 L877.8,385.8 L879.4,379.9 L881.1,387.4 L883.2,388.4 L884.8,383.6 L886.5,391.2 L888.2,389.4 L889.9,395.0 L891.6,385.4 L893.2,381.9 L894.8,375.1 L897.1,372.3 L898.8,384.5 L900.4,398.9 L902.1,414.2 L903.8,414.1 L905.5,425.8 L907.5,418.9 L909.2,412.4 L911.2,409.6 L912.9,403.9 L916.3,402.6 L918.1,395.0 L919.8,392.1 L921.8,392.8 L923.5,392.4 L925.3,405.4 L927.0,405.9 L928.6,405.1 L932.0,409.3 L933.7,416.9 L935.4,415.0 L937.2,407.4 L941.1,413.3 L942.8,412.1 L944.5,409.6 L946.2,406.1 L949.5,400.1 L953.8,409.4 L955.5,421.2 L958.9,442.5 L971.2,471.6 L972.7,445.6 L977.7,443.4 L981.1,446.9 L985.2,449.2 L986.8,453.9 L988.5,446.3 L990.2,437.7 L991.9,432.1 L993.6,431.1 L995.4,424.4 L997.0,422.9 L999.4,412.1 L1001.0,404.1 L1002.7,399.9 L1004.4,408.4 L1007.7,405.5 L1009.6,398.1 L1013.0,396.5 L1015.0,387.7 L1016.7,383.7 L1018.4,389.3 L1021.7,393.3 L1023.4,391.5 L1024.9,389.6 L1027.4,380.0 L1028.9,369.3 L1032.3,372.1 L1034.0,385.5 L1035.7,387.9 L1037.3,385.7 L1039.4,370.6 L1040.8,359.2 L1043.1,348.7 L1044.8,328.2 L1046.5,311.6 L1048.1,308.9 L1049.9,333.0 L1051.5,332.2 L1053.7,323.1 L1055.3,309.0 L1057.1,292.2 L1058.8,305.7 L1060.5,315.9 L1062.2,320.1 L1063.9,332.3 L1065.5,342.8 L1067.2,350.2 L1069.0,357.9 L1073.0,356.3 L1074.7,348.5 L1076.3,355.2 L1078.0,369.5 L1079.7,378.4 L1081.5,376.7 L1083.2,376.2 L1085.2,369.7 L1090.3,374.2 L1091.9,384.5 L1094.0,365.6 L1095.3,373.1 L1097.5,385.7 L1099.1,385.8 L1100.8,386.6 L1102.6,387.1 L1104.3,381.7 L1106.0,375.5 L1107.7,365.7 L1109.3,367.3 L1112.7,356.1 L1115.1,354.8 L1116.8,356.4 L1118.5,364.2 L1120.1,373.3 L1121.8,378.4 L1123.5,383.3 L1125.3,380.2 L1127.0,379.2 L1128.7,372.8 L1132.6,370.4 L1136.0,367.4 L1137.8,356.5 L1139.3,362.0 L1141.3,372.5 L1144.7,378.1 L1146.4,366.7 L1148.1,363.9 L1149.8,369.6 L1151.5,378.3 L1154.8,378.4 L1156.6,389.3 L1159.0,384.0 L1160.6,387.5 L1162.2,387.9 L1169.1,388.4 L1170.8,376.6 L1174.8,382.9 L1176.5,389.7 L1178.2,392.4 L1179.9,386.7 L1181.7,401.3 L1185.5,405.0 L1187.3,403.9 L1189.0,391.6 L1190.7,392.9 L1192.4,393.7 L1197.4,397.3 L1203.2,400.6 L1204.8,408.5 L1206.5,406.0 L1208.2,407.8 L1209.9,407.0 L1211.6,410.9 L1215.0,405.6 L1216.7,396.7 L1219.2,393.8 L1220.8,370.6 L1222.5,328.7 L1224.3,300.1 L1226.0,316.4 L1228.0,308.5" stroke="#2f6fbb"/>
<path class="line" d="M702.2,333.5 L703.9,333.5 L707.6,333.5 L711.0,330.6 L714.4,333.2 L716.0,338.3 L717.8,344.3 L719.4,347.1 L721.6,359.6 L723.2,365.3 L724.9,378.9 L728.3,394.4 L730.0,413.1 L732.0,429.5 L733.7,440.3 L735.3,430.1 L737.5,422.4 L740.7,422.3 L742.5,422.8 L744.2,417.7 L746.3,409.6 L749.6,408.1 L753.1,411.9 L754.8,418.9 L756.5,424.9 L758.1,433.1 L759.8,435.9 L761.6,438.7 L765.7,438.9 L767.4,439.9 L769.1,445.2 L770.7,448.4 L775.9,462.7 L788.4,464.0 L790.2,447.5 L791.9,442.9 L793.5,439.1 L798.7,441.7 L800.4,448.9 L802.1,445.6 L803.7,444.2 L805.8,443.8 L809.5,437.9 L812.9,441.5 L814.5,442.1 L816.2,429.9 L817.9,428.8 L819.7,425.9 L821.3,425.8 L823.7,424.8 L827.0,426.1 L828.7,430.3 L830.5,427.4 L834.0,430.9 L835.7,431.3 L837.5,434.8 L839.1,438.6 L842.5,438.2 L844.2,434.6 L849.2,430.4 L850.9,425.9 L855.0,422.3 L856.7,412.2 L861.7,412.5 L863.5,404.1 L865.2,402.9 L866.9,405.4 L869.1,410.1 L872.5,410.5 L874.3,402.8 L876.0,399.3 L877.8,392.7 L879.4,387.4 L881.1,388.3 L883.2,389.4 L884.8,387.7 L886.5,390.8 L888.2,391.0 L889.9,393.5 L891.6,390.6 L893.2,384.9 L894.8,381.9 L897.1,374.5 L898.8,381.3 L900.4,397.1 L902.1,403.2 L903.8,414.4 L905.5,418.3 L907.5,419.7 L909.2,415.8 L911.2,410.1 L912.9,405.4 L916.3,401.8 L918.1,396.7 L919.8,394.5 L921.8,395.2 L923.5,395.0 L925.3,408.9 L927.0,412.2 L928.6,409.3 L932.0,410.2 L933.7,416.5 L935.4,416.4 L937.2,414.0 L941.1,415.3 L942.8,414.3 L944.5,411.7 L946.2,411.2 L949.5,406.6 L953.8,406.5 L955.5,424.1 L958.9,439.7 L971.2,467.1 L972.7,445.7 L977.7,444.4 L981.1,446.2 L985.2,448.5 L986.8,450.5 L988.5,446.4 L990.2,441.0 L991.9,433.7 L993.6,432.8 L995.4,424.9 L997.0,423.5 L999.4,415.8 L1001.0,411.1 L1002.7,403.3 L1004.4,406.3 L1007.7,409.8 L1009.6,403.4 L1013.0,399.5 L1015.0,393.2 L1016.7,389.9 L1018.4,391.2 L1021.7,395.7 L1023.4,396.1 L1024.9,393.7 L1027.4,386.8 L1028.9,375.3 L1032.3,375.0 L1034.0,383.8 L1035.7,390.7 L1037.3,390.5 L1039.4,377.3 L1040.8,371.4 L1043.1,359.5 L1044.8,342.3 L1046.5,320.3 L1048.1,321.6 L1049.9,338.4 L1051.5,334.9 L1053.7,331.3 L1055.3,327.6 L1057.1,313.5 L1058.8,317.0 L1060.5,334.6 L1062.2,336.3 L1063.9,345.1 L1065.5,348.9 L1067.2,351.0 L1069.0,355.0 L1073.0,356.6 L1074.7,356.5 L1076.3,361.9 L1078.0,372.6 L1079.7,385.5 L1081.5,382.9 L1083.2,380.8 L1085.2,376.8 L1090.3,374.4 L1091.9,380.8 L1094.0,368.2 L1095.3,370.8 L1097.5,386.6 L1099.1,386.7 L1100.8,387.9 L1102.6,386.6 L1104.3,382.2 L1106.0,377.9 L1107.7,367.6 L1109.3,365.7 L1112.7,357.9 L1115.1,358.6 L1116.8,359.4 L1118.5,364.6 L1120.1,371.4 L1121.8,375.9 L1123.5,384.3 L1125.3,382.4 L1127.0,382.0 L1128.7,380.1 L1132.6,376.4 L1136.0,370.0 L1137.8,359.3 L1139.3,360.9 L1141.3,370.6 L1144.7,373.4 L1146.4,372.9 L1148.1,366.6 L1149.8,369.4 L1151.5,379.5 L1154.8,383.3 L1156.6,390.5 L1159.0,386.2 L1160.6,385.9 L1162.2,387.7 L1169.1,390.7 L1170.8,379.7 L1174.8,379.2 L1176.5,386.4 L1178.2,393.3 L1179.9,389.3 L1181.7,400.3 L1185.5,405.0 L1187.3,407.0 L1189.0,399.8 L1190.7,396.8 L1192.4,395.4 L1197.4,396.3 L1203.2,398.6 L1204.8,406.5 L1206.5,404.4 L1208.2,405.5 L1209.9,407.2 L1211.6,410.7 L1215.0,411.9 L1216.7,408.3 L1219.2,400.0 L1220.8,366.1 L1222.5,287.5 L1224.3,302.5 L1226.0,334.8 L1228.0,334.9" stroke="#7a5dbb"/>
<path class="line" d="M96.7,466.0 L100.8,469.4 L104.7,461.6 L108.3,464.4 L111.8,462.1 L115.8,466.8 L118.6,473.3 L121.4,468.1 L124.9,470.7 L129.0,474.6 L133.2,472.7 L135.8,471.5 L139.2,473.8 L143.5,475.0 L147.3,474.0 L151.9,479.9 L156.4,486.4 L161.0,488.4 L168.4,486.7 L172.1,477.6 L175.7,476.3 L194.9,473.2 L208.5,470.1 L220.3,465.8 L226.5,469.0 L245.5,468.3 L259.4,460.3 L265.1,454.1 L277.0,448.6 L302.2,435.4 L308.0,427.5 L309.6,435.2 L313.5,422.6 L316.8,416.5 L346.4,409.7 L353.4,396.3 L381.6,403.8 L416.6,397.4 L444.4,330.4 L466.2,352.4 L469.3,451.6 L477.7,445.2 L478.6,431.8 L484.3,427.2 L485.9,405.8 L489.4,396.3 L492.9,407.4 L497.1,394.6 L500.4,396.3 L501.7,393.9 L505.3,379.9 L523.9,380.5 L529.7,383.0 L547.3,382.8 L554.2,366.5 L561.4,362.3 L566.9,335.5 L589.1,351.1 L603.7,346.6 L608.6,330.6 L614.8,335.7 L618.4,361.0 L622.2,372.0 L625.8,358.7 L629.5,348.8 L637.4,359.5 L649.6,355.6 L653.2,354.2 L656.6,355.3 L658.4,351.0 L661.8,351.3 L663.6,347.2 L665.3,344.5 L667.0,330.2 L672.0,329.4 L673.7,325.2 L675.6,332.7 L679.4,340.3 L681.1,351.6 L682.8,352.7 L684.5,346.8 L688.0,347.5 L689.6,351.1 L693.6,340.9 L697.0,339.3 L700.4,336.8 L702.2,340.1 L703.9,335.5 L707.6,331.1 L711.0,333.1 L714.4,342.0 L716.0,349.3 L717.8,352.9 L719.4,353.6 L721.6,365.6 L723.2,374.3 L724.9,382.3 L728.3,397.9 L730.0,421.9 L732.0,432.5 L733.7,438.5 L735.3,433.9 L737.5,431.6 L740.7,436.5 L742.5,431.5 L744.2,422.4 L746.3,415.8 L749.6,415.6 L753.1,416.9 L754.8,429.9 L756.5,437.6 L758.1,445.3 L759.8,446.0 L761.6,440.4 L765.7,439.2 L767.4,440.8 L769.1,445.9 L770.7,450.1 L775.9,458.7 L788.4,459.5 L790.2,441.7 L791.9,436.0 L793.5,433.0 L798.7,438.0 L800.4,448.3 L802.1,441.3 L803.7,439.6 L805.8,441.8 L809.5,435.3 L812.9,439.0 L814.5,437.3 L816.2,429.8 L817.9,427.9 L819.7,427.4 L821.3,428.3 L823.7,426.7 L827.0,428.9 L828.7,436.5 L830.5,429.1 L834.0,434.9 L835.7,432.9 L837.5,437.1 L839.1,443.0 L842.5,440.8 L844.2,434.4 L849.2,435.9 L850.9,430.7 L855.0,428.8 L856.7,420.6 L861.7,418.1 L863.5,409.7 L865.2,405.8 L866.9,407.4 L869.1,411.0 L872.5,408.9 L874.3,405.7 L876.0,399.9 L877.8,396.7 L879.4,393.7 L881.1,403.0 L883.2,400.7 L884.8,388.0 L886.5,396.6 L888.2,396.3 L889.9,402.0 L891.6,396.8 L893.2,398.0 L894.8,391.2 L897.1,391.0 L898.8,402.6 L900.4,415.5 L902.1,427.8 L903.8,428.6 L905.5,439.1 L907.5,432.9 L909.2,427.5 L911.2,425.3 L912.9,420.7 L916.3,417.2 L918.1,408.2 L919.8,405.6 L921.8,410.1 L923.5,412.0 L925.3,425.5 L927.0,422.7 L928.6,417.6 L932.0,420.9 L933.7,422.9 L935.4,423.1 L937.2,418.7 L941.1,424.5 L942.8,421.8 L944.5,420.3 L946.2,418.7 L949.5,413.7 L953.8,420.3 L955.5,430.2 L958.9,449.3 L971.2,475.0 L972.7,450.3 L977.7,448.0 L981.1,449.6 L985.2,450.8 L986.8,455.3 L988.5,448.7 L990.2,441.5 L991.9,437.9 L993.6,436.3 L995.4,429.8 L997.0,427.5 L999.4,418.0 L1001.0,410.6 L1002.7,405.7 L1004.4,413.4 L1007.7,411.1 L1009.6,405.0 L1013.0,400.8 L1015.0,391.0 L1016.7,388.2 L1018.4,394.2 L1021.7,398.7 L1023.4,398.0 L1024.9,394.4 L1027.4,385.9 L1028.9,373.2 L1032.3,374.4 L1034.0,394.0 L1035.7,393.5 L1037.3,388.3 L1039.4,377.1 L1040.8,365.3 L1043.1,357.2 L1044.8,340.3 L1046.5,328.1 L1048.1,324.7 L1049.9,340.4 L1051.5,334.5 L1053.7,327.9 L1055.3,317.2 L1057.1,306.1 L1058.8,321.4 L1060.5,334.0 L1062.2,339.7 L1063.9,349.6 L1065.5,352.5 L1067.2,359.0 L1069.0,366.5 L1073.0,367.5 L1074.7,360.5 L1076.3,369.7 L1078.0,381.1 L1079.7,388.3 L1081.5,381.1 L1083.2,383.0 L1085.2,379.6 L1090.3,384.8 L1091.9,392.9 L1094.0,375.2 L1095.3,383.0 L1097.5,392.8 L1099.1,392.9 L1100.8,395.0 L1102.6,395.7 L1104.3,390.0 L1106.0,382.7 L1107.7,373.9 L1109.3,376.1 L1112.7,365.0 L1115.1,362.7 L1116.8,365.2 L1118.5,374.7 L1120.1,382.6 L1121.8,388.4 L1123.5,394.0 L1125.3,390.3 L1127.0,390.9 L1128.7,384.5 L1132.6,381.6 L1136.0,373.9 L1137.8,365.8 L1139.3,369.8 L1141.3,376.9 L1144.7,380.1 L1146.4,373.0 L1148.1,370.2 L1149.8,375.4 L1151.5,383.5 L1154.8,385.9 L1156.6,394.9 L1159.0,391.0 L1160.6,393.7 L1162.2,395.0 L1169.1,395.7 L1170.8,382.1 L1174.8,390.1 L1176.5,397.5 L1178.2,400.7 L1179.9,395.7 L1181.7,410.4 L1185.5,409.7 L1187.3,409.2 L1189.0,396.4 L1190.7,399.6 L1192.4,398.4 L1197.4,402.8 L1203.2,407.9 L1204.8,414.1 L1206.5,412.1 L1208.2,414.4 L1209.9,415.7 L1211.6,419.2 L1215.0,416.7 L1216.7,409.8 L1219.2,405.6 L1220.8,381.1 L1222.5,351.1 L1224.3,334.1 L1226.0,350.6 L1228.0,332.7" stroke="#348f6c"/>
<path class="line" d="M96.7,467.3 L100.8,471.2 L104.7,461.7 L108.3,466.2 L111.8,463.9 L115.8,468.8 L118.6,476.7 L121.4,471.4 L124.9,472.8 L129.0,477.1 L133.2,473.7 L135.8,471.2 L139.2,473.9 L143.5,476.9 L147.3,475.1 L151.9,481.0 L156.4,487.5 L161.0,489.0 L168.4,487.1 L172.1,478.3 L175.7,476.7 L194.9,474.5 L208.5,471.6 L220.3,468.5 L226.5,471.5 L245.5,469.8 L259.4,463.2 L265.1,456.9 L277.0,451.0 L302.2,438.3 L308.0,428.7 L309.6,436.3 L313.5,424.7 L316.8,417.9 L346.4,411.7 L353.4,396.4 L381.6,404.6 L416.6,396.9 L444.4,331.9 L466.2,355.8 L469.3,450.9 L477.7,443.9 L478.6,433.4 L484.3,427.4 L485.9,407.7 L489.4,397.2 L492.9,407.1 L497.1,393.5 L500.4,398.2 L501.7,396.6 L505.3,382.4 L523.9,381.9 L529.7,381.3 L547.3,382.4 L554.2,365.0 L561.4,353.6 L566.9,324.0 L589.1,332.9 L603.7,334.1 L608.6,313.7 L614.8,320.7 L618.4,346.1 L622.2,360.5 L625.8,343.3 L629.5,331.5 L637.4,340.1 L649.6,336.8 L653.2,339.2 L656.6,345.7 L658.4,343.5 L661.8,343.7 L663.6,340.6 L665.3,339.8 L667.0,327.4 L672.0,325.5 L673.7,319.7 L675.6,328.3 L679.4,332.3 L681.1,340.9 L682.8,337.4 L684.5,334.0 L688.0,335.6 L689.6,338.2 L693.6,332.7 L697.0,333.0 L700.4,332.0 L702.2,332.7 L703.9,330.4 L707.6,328.3 L711.0,329.9 L714.4,336.4 L716.0,342.5 L717.8,347.1 L719.4,350.0 L721.6,362.2 L723.2,368.9 L724.9,378.6 L728.3,394.9 L730.0,416.8 L732.0,430.7 L733.7,439.2 L735.3,430.5 L737.5,422.9 L740.7,426.7 L742.5,425.4 L744.2,417.9 L746.3,410.6 L749.6,410.7 L753.1,414.0 L754.8,422.8 L756.5,429.9 L758.1,438.4 L759.8,441.2 L761.6,438.5 L765.7,437.8 L767.4,439.5 L769.1,444.8 L770.7,447.8 L775.9,459.9 L788.4,460.5 L790.2,443.8 L791.9,438.1 L793.5,435.2 L798.7,439.4 L800.4,448.2 L802.1,442.1 L803.7,440.0 L805.8,441.3 L809.5,436.1 L812.9,440.4 L814.5,439.2 L816.2,429.1 L817.9,427.2 L819.7,425.8 L821.3,426.1 L823.7,425.0 L827.0,426.9 L828.7,432.8 L830.5,427.4 L834.0,433.0 L835.7,430.9 L837.5,435.5 L839.1,440.8 L842.5,438.8 L844.2,433.2 L849.2,431.3 L850.9,424.8 L855.0,423.0 L856.7,413.8 L861.7,412.5 L863.5,404.0 L865.2,401.6 L866.9,404.8 L869.1,408.8 L872.5,407.5 L874.3,401.8 L876.0,395.8 L877.8,391.7 L879.4,387.0 L881.1,392.9 L883.2,392.8 L884.8,386.5 L886.5,392.9 L888.2,392.3 L889.9,396.9 L891.6,390.9 L893.2,388.2 L894.8,382.7 L897.1,379.3 L898.8,389.5 L900.4,403.8 L902.1,415.1 L903.8,419.0 L905.5,427.7 L907.5,423.8 L909.2,418.6 L911.2,415.0 L912.9,410.0 L916.3,407.2 L918.1,400.0 L919.8,397.4 L921.8,399.4 L923.5,399.8 L925.3,413.3 L927.0,413.6 L928.6,410.7 L932.0,413.4 L933.7,418.8 L935.4,418.2 L937.2,413.3 L941.1,417.7 L942.8,416.1 L944.5,413.9 L946.2,412.0 L949.5,406.8 L953.8,412.1 L955.5,425.2 L958.9,443.9 L971.2,471.2 L972.7,447.2 L977.7,445.3 L981.1,447.6 L985.2,449.5 L986.8,453.2 L988.5,447.1 L990.2,440.1 L991.9,434.5 L993.6,433.4 L995.4,426.4 L997.0,424.6 L999.4,415.3 L1001.0,408.6 L1002.7,403.0 L1004.4,409.3 L1007.7,408.8 L1009.6,402.2 L1013.0,398.9 L1015.0,390.6 L1016.7,387.3 L1018.4,391.5 L1021.7,395.9 L1023.4,395.2 L1024.9,392.6 L1027.4,384.2 L1028.9,372.6 L1032.3,373.8 L1034.0,387.7 L1035.7,390.7 L1037.3,388.2 L1039.4,375.0 L1040.8,365.3 L1043.1,355.1 L1044.8,336.9 L1046.5,320.0 L1048.1,318.4 L1049.9,337.3 L1051.5,333.9 L1053.7,327.4 L1055.3,317.9 L1057.1,303.9 L1058.8,314.7 L1060.5,328.1 L1062.2,332.0 L1063.9,342.4 L1065.5,348.1 L1067.2,353.4 L1069.0,359.8 L1073.0,360.1 L1074.7,355.2 L1076.3,362.3 L1078.0,374.4 L1079.7,384.1 L1081.5,380.2 L1083.2,380.0 L1085.2,375.4 L1090.3,377.8 L1091.9,386.1 L1094.0,369.6 L1095.3,375.6 L1097.5,388.4 L1099.1,388.5 L1100.8,389.8 L1102.6,389.8 L1104.3,384.7 L1106.0,378.7 L1107.7,369.1 L1109.3,369.7 L1112.7,359.7 L1115.1,358.7 L1116.8,360.3 L1118.5,367.8 L1120.1,375.8 L1121.8,380.9 L1123.5,387.2 L1125.3,384.3 L1127.0,384.1 L1128.7,379.1 L1132.6,376.1 L1136.0,370.4 L1137.8,360.5 L1139.3,364.3 L1141.3,373.3 L1144.7,377.2 L1146.4,370.9 L1148.1,366.9 L1149.8,371.5 L1151.5,380.4 L1154.8,382.5 L1156.6,391.6 L1159.0,387.1 L1160.6,389.0 L1162.2,390.2 L1169.1,391.6 L1170.8,379.5 L1174.8,384.0 L1176.5,391.2 L1178.2,395.4 L1179.9,390.6 L1181.7,404.0 L1185.5,406.6 L1187.3,406.7 L1189.0,395.9 L1190.7,396.4 L1192.4,395.8 L1197.4,398.8 L1203.2,402.4 L1204.8,409.7 L1206.5,407.5 L1208.2,409.2 L1209.9,410.0 L1211.6,413.6 L1215.0,411.4 L1216.7,405.0 L1219.2,399.8 L1220.8,372.6 L1222.5,322.4 L1224.3,312.3 L1226.0,333.9 L1228.0,325.4" stroke="#222222"/>
<rect x="272" y="582" width="18" height="4" fill="#c35a4a"/>
<text x="298" y="586">汽油(USD/bbl)</text>
<rect x="462" y="582" width="18" height="4" fill="#2f6fbb"/>
<text x="488" y="586">布伦特区间均价</text>
<rect x="652" y="582" width="18" height="4" fill="#7a5dbb"/>
<text x="678" y="586">迪拜区间均价</text>
<rect x="842" y="582" width="18" height="4" fill="#348f6c"/>
<text x="868" y="586">WTI区间均价</text>
<rect x="1032" y="582" width="18" height="4" fill="#222222"/>
<text x="1058" y="586">三油算术均价</text>
</svg>